<?xml version="1.0" encoding="UTF-8"?>
<svg id="Camada_1" data-name="Camada 1" xmlns="http://www.w3.org/2000/svg" xmlns:xlink="http://www.w3.org/1999/xlink" viewBox="0 0 2866 1034">
  <defs>
    <symbol id="Novo_símbolo" data-name="Novo símbolo" viewBox="0 0 696.51929 540.45415">
      <path d="M253.52995,396.75434c16.89915,10.49114,37.26546,19.39236,56.20216,13.30579,4.04214-1.29921,8.04542-3.41205,10.3578-6.9729,5.76278-8.87415-1.0525-22.70285,6.21145-30.39669-2.35888,16.20169,5.58677,33.44684,19.43486,42.18121,13.84809,8.73438,32.83392,8.47566,46.43887-.63282-9.22642,6.54829-11.78099,20.81036-5.40109,30.154,6.37936,9.34285,20.59089,12.15594,30.04869,5.94857-28.62322,18.78605-13.78802,64.92726,11.28048,78.41464,41.18828,22.16017,90.79691,10.96919,125.58221-17.90307,10.1533-8.42738,19.34534-18.50252,24.30932-30.72827s5.17579-26.8775-1.76688-38.09844c-1.48162,11.03182,5.99167,21.85368,15.81144,27.09469s21.46647,5.84038,32.55869,4.9136c16.80361-1.40398,33.64994-6.22905,47.251-16.19618,13.60106-9.96713,23.61623-25.50218,24.61013-42.33503.62379-10.56457-3.58052-22.71669-13.53818-26.30058,4.40198-4.54288,8.99907-9.44461,10.25008-15.64543s-2.52463-13.83634-8.83969-14.20405c5.17915-5.65759,4.64845-15.5619-1.1056-20.63366-5.75405-5.07177-15.64662-4.35479-20.60921,1.49368,6.8796-11.42054,7.28666-26.46226,1.03481-38.23816-6.25185-11.7759-18.93945-19.86564-32.25366-20.56525-16.85334-.88557-32.90678,9.67004-41.96637,23.90901-8.3987,13.20033-13.6302,31.97625-11.39326,47.5227-1.34811-9.36922,5.44107-14.03492-2.14363-23.37527-21.65969-26.67139-87.90736-15.18056-99.11129,17.70516,4.49729-13.20042,2.14729-28.53336-6.09701-39.78094s-22.15878-18.10399-36.10072-17.78874c8.17689-.95728,16.51922-2.29384,23.71063-6.30154s13.10368-11.21581,13.42893-19.44205c-.5276,13.34436,28.36192,20.13892,37.37401,18.63727,14.90894-2.48422,27.22271-16.16101,28.54787-31.1708.42256-4.78618-1.29541-10.90938-6.06483-11.49132,2.21204-8.61482-8.42565-17.38396-16.46016-13.56887,14.95838-2.7074,21.11093-25.37461,9.57428-35.27354,5.93427,16.04383,29.61013,19.83919,43.07542,9.28902,13.46529-10.55017,16.95763-30.24858,12.58752-46.78708-1.51605-5.73741-6.65094-12.47691-11.94989-9.80532,5.4456-4.46251,11.07985-9.16746,13.9244-15.60773s1.91386-15.13739-3.96917-19.00502-15.87573,1.09239-14.54935,8.00681c-2.30896-16.5685-11.29193-33.41776-26.78937-39.71663s-36.87311,2.89198-38.66555,19.52429c3.66737-5.75076.26507-14.62273-6.30713-16.44673s-14.06021,4.02556-13.88115,10.84382c9.29583-14.83934,14.71811-32.67316,12.10093-49.98699s-14.24756-33.70377-30.8587-39.24348c-19.19027-6.39984-41.09205,2.81925-54.15324,18.2669-13.3799,15.82459-17.54334,35.49477-21.20539,55.2767-2.94762-3.30108-6.67978-6.58616-11.10197-6.45678-8.23665.24097-6.35982,7.96896-2.05282,11.33782-21.14602-5.29413-43.84023,9.04394-49.75517,29.73945-5.82284,20.37374,3.97484,43.43825,21.2532,55.70419-13.15548-11.29597-37.20962-3.78697-41.60247,12.98708,4.96308-.39216,4.15705-8.388,2.75096-13.16386-4.45597-15.13494-12.48886-29.20409-23.25775-40.73462-3.37289-3.61144-7.22494-7.09943-12.00804-8.36188-27.9518-7.38504-43.43173-35.53518-72.82023-41.91671-24.60352-5.3425-49.14099,2.07158-57.74746,27.70708-6.0286,17.95698-.34326,39.26344,13.8301,51.82979-16.88929-13.52867-42.45207-15.47601-60.69726-3.84045s-27.23273,36.38489-19.82583,56.7174c7.40691,20.33251,31.01496,33.57684,52.03246,28.42537-5.14029-.55236-10.16544,4.27228-9.82274,9.43079s5.96191,9.276,10.98396,8.04851c-16.85759-3.96027-35.67247-1.97545-49.69843,8.18034-11.04399,7.99663-21.00623,24.3171-17.22898,38.14312,2.28183-6.52117-1.58415-13.96743-8.65312-16.17991-7.58899-2.37523-15.86151.91199-22.30865,5.56743-21.3767,15.43613-34.99861,38.88561-19.96498,64.55002,11.63265,19.85849,32.97203,34.64316,56.32072,35.12859,30.03305.6244,58.8854-22.25596,65.12022-51.64135-5.69125-1.36733-9.19921,6.0429-9.98358,11.84331-2.64308,19.54594-.94613,39.66675,4.93329,58.49391,4.44149,14.22263,11.51791,28.04694,22.82601,37.74935,11.30811,9.70241,27.36962,14.66659,41.57098,10.15756s24.96878-19.83237,21.85131-34.4026c-1.29721,7.11875,6.96788,13.41834,14.02793,11.83242s11.78172-8.81502,12.49218-16.01604-1.80269-14.32439-4.83642-20.89371c1.40915,2.8291,21.43797-1.64,22.84712,1.1891Z" style="fill: #82dd52; stroke-width: 0px;"/>
    </symbol>
    <symbol id="Novo_símbolo_1" data-name="Novo símbolo 1" viewBox="0 0 486.52472 398.0079">
      <path d="M177.09285,292.18271c11.8042,7.72602,26.03024,14.28116,39.2577,9.79881,2.82347-.95678,5.61979-2.51274,7.23501-5.13507,4.02535-6.53521-.73518-16.71911,4.33875-22.3851-1.6477,11.93145,3.90241,24.63133,13.57542,31.06361,9.67301,6.43228,22.93477,6.24175,32.43795-.46603-6.44473,4.82237-8.22912,15.32542-3.7727,22.20638,4.45604,6.88037,14.38291,8.95202,20.98927,4.38072-19.99356,13.83466-9.63105,47.81453,7.87951,57.74708,28.77037,16.31947,63.42243,8.07806,87.72026-13.1844,7.09217-6.20619,13.51288-13.62586,16.98027-22.62929,3.46739-9.00344,3.61533-19.79346-1.23418-28.05692-1.03492,8.12419,4.18523,16.09375,11.04443,19.95341,6.8592,3.85965,14.99452,4.30104,22.74253,3.61853,11.73747-1.03394,23.50478-4.58727,33.00523-11.92739,9.50046-7.34012,16.49614-18.78063,17.19039-31.17688.43573-7.78009-2.50102-16.72931-9.45654-19.3686,3.07482-3.34552,6.28593-6.95532,7.15977-11.5218s-1.76348-10.18953-6.1746-10.46032c3.61768-4.16643,3.24698-11.46028-.77227-15.1953s-10.9293-3.20701-14.39571,1.09999c4.80546-8.41045,5.08979-19.48766.72282-28.15982s-13.22937-14.6297-22.52946-15.14491c-11.7722-.65216-22.98567,7.12133-29.31387,17.60737-5.86656,9.72115-9.52081,23.54835-7.95829,34.99725-.94167-6.8998,3.80064-10.33577-1.49734-17.2143-15.12948-19.64167-61.40405-11.17946-69.23009,13.03865,3.14139-9.72121,1.4999-21.01289-4.25881-29.29597s-15.4781-13.33236-25.21666-13.1002c5.71163-.70497,11.53882-1.68926,16.56208-4.64066s9.15304-8.25969,9.38022-14.31775c-.36853,9.82722,19.81105,14.83095,26.10607,13.72508,10.41402-1.82946,19.01529-11.90149,19.94093-22.95519.29516-3.5247-.90485-8.03402-4.23634-8.46258,1.54513-6.34423-5.88539-12.80211-11.49756-9.99255,10.44856-1.99382,14.74616-18.68668,6.68772-25.97657,4.14514,11.81519,20.68293,14.61022,30.08855,6.84074s11.84505-22.27603,8.79249-34.45552c-1.05897-4.22522-4.64574-9.1884-8.3471-7.22095,3.8038-3.28634,7.73937-6.75121,9.72632-11.49403s1.33685-11.14767-2.7725-13.99591-11.08933.80447-10.16284,5.89648c-1.61283-12.20158-7.88751-24.60992-18.71261-29.24861-10.8251-4.63869-25.75619,2.12974-27.00822,14.37832,2.56169-4.23505.18515-10.76865-4.40559-12.1119s-9.82118,2.96455-9.6961,7.98574c6.49322-10.92817,10.28073-24.06157,8.4526-36.81204-1.82813-12.75047-9.95204-24.82054-21.55507-28.90017-13.40457-4.71305-28.70315,2.07618-37.82651,13.45233-9.34598,11.65374-12.25417,26.13949-14.81215,40.70755-2.05893-2.43102-4.66589-4.85026-7.75482-4.75498-5.75337.17746-4.44239,5.8686-1.43391,8.34954-14.77067-3.89877-30.62278,6.66025-34.75442,21.9011-4.0673,15.00388,2.77646,31.98933,14.84554,41.02236-9.18922-8.31872-25.99124-2.78885-29.05968,9.5641,3.46675-.2888,2.90374-6.17719,1.92157-9.69429-3.11253-11.14586-8.72358-21.50684-16.24574-29.99829-2.35599-2.65958-5.04668-5.22825-8.38772-6.15796-19.52457-5.43858-30.33743-26.16925-50.86556-30.86882-17.18577-3.93439-34.3254,1.52558-40.3371,20.40439-4.21103,13.2241-.23977,28.91486,9.66044,38.16913-11.79732-9.96295-29.65314-11.39703-42.39756-2.82823-12.74442,8.5688-19.0223,26.79501-13.84851,41.76853,5.17379,14.97352,21.66421,24.72707,36.34512,20.93336-3.59054-.40677-7.10065,3.14624-6.86127,6.94514s4.16445,6.83114,7.67239,5.92718c-11.77517-2.91647-24.91753-1.45478-34.71478,6.02427-7.71432,5.88898-14.67304,17.9079-12.03459,28.08982,1.59388-4.8024-1.10654-10.28607-6.04428-11.9154-5.30097-1.7492-11.0794.67162-15.58279,4.10003-14.93181,11.36766-24.44683,28.63662-13.94571,47.53672,8.12551,14.62444,23.03125,25.51234,39.34051,25.86982,20.97834.45983,41.13196-16.39001,45.48703-38.03036-3.97539-1.00695-6.42573,4.45018-6.97362,8.7218-1.84622,14.39426-.66088,29.21188,3.44595,43.07681,3.10242,10.474,8.04536,20.65467,15.94417,27.79984,7.89881,7.14517,19.11791,10.80095,29.03769,7.48036,9.91977-3.3206,17.44091-14.6052,15.26333-25.33518-.90611,5.24248,4.86713,9.8817,9.79863,8.71377s8.22963-6.49166,8.72589-11.79473-1.25919-10.54895-3.37828-15.3868c.9843,2.08344,14.97461-1.20775,15.95891.8757Z" style="fill: #4ce548; stroke-width: 0px;"/>
    </symbol>
    <symbol id="Novo_símbolo_2" data-name="Novo símbolo 2" viewBox="0 0 618.52472 480.0079">
      <path d="M225.14027,352.37997c15.00682,9.31778,33.09256,17.22345,49.90878,11.81763,3.58951-1.1539,7.14451-3.03043,9.19796-6.19303,5.11748-7.88163-.93464-20.16368,5.5159-26.99702-2.09474,14.38964,4.96118,29.70603,17.25859,37.46352,12.29742,7.75749,29.15725,7.52771,41.23875-.56205-8.19326,5.8159-10.46178,18.48285-4.79628,26.78147,5.66502,8.29791,18.28517,10.79637,26.68391,5.28326-25.41806,16.68496-12.24407,57.66557,10.01732,69.64448,36.57612,19.6817,80.62969,9.74236,111.51982-15.90073,9.01636-7.48483,17.17909-16.43314,21.58722-27.29152,4.40813-10.85838,4.59621-23.87143-1.56903-33.83738-1.31571,9.79798,5.32073,19.40948,14.04091,24.06433,8.72018,4.65484,19.06271,5.18717,28.91285,4.36404,14.92198-1.24695,29.8819-5.53237,41.95995-14.38474,12.07805-8.85238,20.97174-22.64993,21.85435-37.60013.55394-9.38299-3.17958-20.17598-12.02221-23.35903,3.90906-4.03479,7.99138-8.38829,9.1023-13.89559s-2.24193-12.28884-7.84984-12.61542c4.5992-5.02483,4.12793-13.8214-.9818-18.32592-5.10972-4.50452-13.89454-3.86774-18.30144,1.32662,6.10924-10.14322,6.47072-23.50263.91893-33.96148-5.55178-10.45885-16.81866-17.6438-28.64197-18.26516-14.96614-.78653-29.22196,8.58851-37.26708,21.23495-7.45823,11.72396-12.10392,28.39992-10.11747,42.2076-1.19715-8.32134,4.8318-12.46521-1.90359-20.7609-19.23429-23.68837-78.0637-13.48272-88.01304,15.72496,3.99369-11.72404,1.90684-25.34209-5.41428-35.3317s-19.67749-16.07918-32.05825-15.79918c7.26126-.85022,14.66944-2.03729,21.05557-5.59675,6.38608-3.55944,11.63636-9.9614,11.92519-17.26758-.46852,11.85188,25.18602,17.88651,33.18896,16.55281,13.23947-2.20638,24.17437-14.35351,25.35115-27.68455.37524-4.25087-1.15035-9.68924-5.38571-10.20609,1.96434-7.65131-7.48217-15.43968-14.61699-12.05128,13.28337-2.40459,18.74698-22.53662,8.50217-31.32842,5.26976,14.24943,26.29446,17.62031,38.25194,8.25011,11.95748-9.3702,15.05876-26.86547,11.178-41.55425-1.34628-5.09572-5.90618-11.08145-10.61177-8.70866,4.83581-3.96341,9.83915-8.14214,12.36518-13.8621s1.69955-13.44438-3.52471-16.87943-14.098.97021-12.92015,7.1113c-2.05041-14.71542-10.02748-29.6802-23.78956-35.27459s-32.74415,2.56853-34.33587,17.34062c3.25671-5.10758.23539-12.98727-5.60088-14.60727-5.83626-1.62-12.48578,3.57532-12.32677,9.63101,8.2549-13.17966,13.07001-29.01888,10.7459-44.39628-2.32412-15.3774-12.65215-29.93422-27.40322-34.85435-17.04139-5.68406-36.49066,2.50393-48.08929,16.22387-11.88165,14.05472-15.57888,31.52491-18.83087,49.09436-2.61755-2.93187-5.9318-5.84954-9.8588-5.73463-7.31433.21402-5.64766,7.07768-1.82295,10.06976-18.77814-4.70202-38.9311,8.03244-44.18371,26.41329-5.17081,18.09507,3.52975,38.57997,18.87332,49.47404-11.68237-10.03259-33.04298-3.36342-36.94392,11.53456,4.40732-.3483,3.69155-7.44985,2.44292-11.69157-3.957-13.44219-11.09039-25.93781-20.6534-36.17872-2.9952-3.20752-6.41591-6.30541-10.66341-7.42666-24.82182-6.55907-38.56834-31.5608-64.66599-37.2286-21.84848-4.74498-43.6383,1.83989-51.28104,24.60823-5.35354,15.94861-.30483,34.87208,12.28144,46.03297-14.99807-12.01557-37.69839-13.74512-53.90053-3.41092-16.20214,10.3342-24.18328,32.31548-17.60578,50.37393,6.5775,18.05845,27.54198,29.82149,46.20599,25.24618-4.56469-.49058-9.02714,3.79445-8.72281,8.37602s5.29431,8.23854,9.754,7.14834c-14.96991-3.51734-31.67795-1.75451-44.13331,7.26542-9.80731,7.10226-18.65401,21.59739-15.29972,33.87706,2.02631-5.79182-1.40676-12.40527-7.68416-14.37029-6.73919-2.10958-14.08538.80999-19.81058,4.94475-18.98299,13.7097-31.07955,34.53651-17.72935,57.33052,10.33006,17.63745,29.2799,30.76855,50.01406,31.19968,26.67002.55456,52.29155-19.76678,57.82821-45.8656-5.05396-1.2144-8.16911,5.36704-8.86564,10.51871-2.34712,17.35985-.84018,35.23029,4.38087,51.95175,3.94415,12.63192,10.22816,24.91007,20.27001,33.52733,10.04185,8.61726,24.30483,13.02623,36.91596,9.0215,12.61113-4.00472,22.17283-17.61425,19.40445-30.55489-1.15195,6.32257,6.18763,11.91758,12.45712,10.50904s10.46243-7.82912,11.09333-14.22475c.6309-6.39564-1.60083-12.7223-4.29485-18.55689,1.25136,2.51269,19.0374-1.45658,20.28875,1.05611Z" style="fill: #73d34a; stroke-width: 0px;"/>
    </symbol>
    <symbol id="Novo_símbolo_3" data-name="Novo símbolo 3" viewBox="0 0 489.95497 420.61482">
      <g>
        <path d="M417.78946,56.67325c-.71835-1.91517-.1888-4.20961,1.13696-5.73633s3.3484-2.30516,5.32872-2.28071c2.20128.02718,4.44755,1.08113,5.64248,2.99973s1.1145,4.69926-.42966,6.32744c1.67515-2.09685,5.03233-1.05355,7.00704.74072,1.69097,1.53646,3.05817,3.60294,3.27762,5.92412.25369,2.68332-1.14079,5.40047-3.3031,6.8954s-4.98181,1.81119-7.48345,1.08273c-3.24736-.9456-6.1484-4.19718-5.54436-7.64052,1.22571,1.23326.59688,3.55551-.79455,4.58211s-3.20939,1.11937-4.91613,1.16404c-1.96972.05155-3.98299.0821-5.85734-.54834s-3.61639-2.05075-4.14233-4.02119c-.64572-2.41917.72129-5.02728,2.67099-6.51323s4.37572-2.09383,6.73055-2.66849" style="fill: #e49ff4; stroke-width: 0px;"/>
        <path d="M235.41357,223.73099c-6.76983-1.9313-11.93841-9.05057-11.43812-16.3177.50029-7.26713,6.95211-13.68187,13.97024-13.47374,7.01813.20813,13.21164,7.41629,12.23154,14.63061,1.18348-4.77524,5.92109-8.31267,10.66043-7.95982,2.71552.20217,5.48307,1.75421,6.5009,4.37448s-.36656,6.16672-3.03501,6.72688c5.33943-1.46444,11.23521-.59719,15.97207,2.34944,1.38856.86377,2.74156,1.98098,3.31191,3.55324.60226,1.66024.22384,3.529-.37237,5.19159-1.58473,4.41921-4.86181,8.32746-9.16706,9.83572s-9.58286.21353-12.25342-3.60144c4.50345,3.02283,6.15684,9.84113,3.56847,14.71577s-9.02613,7.06664-13.89443,4.73095c-4.86831-2.33569-7.42917-8.84501-5.52704-14.04889,1.02634,4.4126-2.44109,9.08494-6.72162,10.02033s-8.80599-1.29952-11.6022-4.79036c-.87779-1.09585-1.63123-2.34491-1.90355-3.74159-.58835-3.01754,1.24045-6.09672,3.70446-7.81154s5.45786-2.35466,8.36701-2.9589" style="fill: #e49ff4; stroke-width: 0px;"/>
        <path d="M143.28872,396.65853c.58208-1.65705-.47518-3.5763-1.99138-4.37329s-3.33058-.69421-4.98633-.296c-1.16843.28101-2.33233.7142-3.25513,1.50923-2.9284,2.52291-2.28581,7.27551-1.37793,11.1111.335,1.41528,1.01354,3.13811,2.41726,3.18353-1.28242-.37124-2.70237.37058-3.43009,1.5275s-.8531,2.63137-.64218,3.99549c.77631,5.02087,6.4401,8.54216,11.07265,6.88409s7.00001-8.0539,4.62836-12.50377c.25105,1.39118,1.44368,2.44333,2.74596,2.86409s2.7041.31739,4.05731.14016c2.43211-.31853,4.91127-.89536,6.91419-2.36205s3.43738-3.99625,3.06096-6.5099c-.20499-1.36888-.91099-2.60275-1.71819-3.70614-2.00544-2.74131-5.27826-5.03262-8.47831-4.12788-1.14856.32473-2.1616,1.03223-3.08542,1.81132-1.5934,1.34377-2.9915,2.93646-4.13259,4.70777" style="fill: #e49ff4; stroke-width: 0px;"/>
        <path d="M464.4691,281.23591c-1.21172-5.20276-5.44369-9.61522-10.52749-10.5205-5.0838-.90528-10.67481,2.00061-12.70199,6.92246s.02089,11.36048,4.63194,13.75939c3.18296,1.65595,6.94154,1.37646,10.48888,1.05798-3.0586.37826-5.63442,2.80891-6.9171,5.71495s-1.43767,6.22044-1.15279,9.40309c.27791,3.10473,1.04927,6.35401,3.19453,8.53734,1.66103,1.6905,3.96988,2.54284,6.2718,2.8934,3.31972.50557,6.95774-.0348,9.50403-2.3022s3.55263-6.526,1.61819-9.37085c1.85207,2.59685,5.51136,3.22545,8.47582,2.23843s5.35494-3.26334,7.4662-5.63768c2.07792-2.33685,4.03864-4.93352,4.82079-8.00786s.12713-6.72843-2.28611-8.68783c-3.8022-3.08715-9.29606-.65291-13.48379,1.83978,2.01695-2.80859,1.47415-7.2366-1.15618-9.43176s-6.9146-1.79561-9.1256.85104" style="fill: #e49ff4; stroke-width: 0px;"/>
        <path d="M27.79959,222.24048c.6855-4.08893-1.22991-8.62061-4.78601-10.52013-3.5561-1.89952-8.48254-.68346-10.53542,2.87847s-.49339,8.92114,3.24544,10.39516c-5.36174-.39559-11.50763.80106-14.39706,5.50455-3.36284,5.47413.04838,13.64263,5.96105,15.7636s12.84824-1.23366,16.04795-6.81208c-1.19019,3.14445.88263,6.60016,3.26645,8.90099,2.55448,2.46555,6.0339,4.47159,9.4151,3.58005,1.5609-.41157,2.91781-1.4002,4.17384-2.44622,4.91114-4.09002,8.88522-9.38357,11.5055-15.32553,1.60747-3.64523,2.67998-8.00097.92477-11.57207-2.07004-4.21165-7.46134-5.65934-11.88476-4.52682s-8.10143,4.22415-11.61842,7.22963" style="fill: #e49ff4; stroke-width: 0px;"/>
        <path d="M160.44591,58.82844c-3.59113-5.4032-2.3243-13.84405,3.02679-17.34372s13.70447-.50011,15.30085,5.85104c.94966,3.77819-.33711,7.75199-1.85779,11.32352,3.85653-3.02746,9.6699-3.00126,13.50094.06086,2.75223,2.19984,4.38168,5.66868,4.97104,9.22141.40758,2.45692.2773,5.22638-1.30586,7.10159-1.74331,2.0649-4.67996,2.43008-7.32544,2.41476-5.19821-.03011-10.72989-1.16364-14.43802-4.94405,1.10006,1.16207,1.18312,3.09408.48246,4.55177s-2.04268,2.48673-3.47443,3.15468c-5.37515,2.50768-11.78858.38415-16.63545-3.09484-2.09101-1.50088-4.06618-3.3078-5.21739-5.66019s-1.34515-5.33924.02353-7.56267c.9277-1.50705,2.45249-2.51314,4.02743-3.23906,2.46433-1.13587,5.17161-1.6999,7.86748-1.63912" style="fill: #e49ff4; stroke-width: 0px;"/>
        <path d="M186.1465,3.10917c-1.93823-3.05781-7.06511-2.92973-8.8593.22133-.57146,1.00363-.81773,2.18268-.83022,3.34833-.01496,1.39588.33101,2.85852,1.25949,3.86868s2.52548,1.42169,3.67085.68951c-2.86149,1.09161-3.14434,5.85937-.67338,7.71249s6.31709.6587,7.89761-2.04663,1.1158-6.34244-.59233-8.96291c1.06977.69887,2.46418,1.40219,3.51401.67149.64483-.44882.90211-1.30717.95906-2.11072.21655-3.05572-2.13975-6.06904-5.06594-6.47849-1.252-.17519-2.95144.70309-2.53642,1.94128" style="fill: #e49ff4; stroke-width: 0px;"/>
        <path d="M402.88552,371.74552c-1.73967-.11758-3.50639.86056-4.38097,2.42552-.43083.77092-.64981,1.64638-.86033,2.51036-.4649,1.90792-.91531,3.87533-.66194,5.82565s1.36893,3.90554,3.16279,4.54413c2.4917.887,5.0468-.96414,7.07926-2.70311-1.24909.96343-1.87012,2.72648-1.51421,4.29869s1.66847,2.86392,3.20029,3.14946c2.96378.55247,5.43237-2.3278,6.87952-5.06803.94669-1.79259,1.77497-3.80497,1.46086-5.82294s-2.2171-3.87846-4.12452-3.36784c.34827-2.51247-1.32728-5.15661-3.68829-5.82038s-5.09368.74106-6.01526,3.09235" style="fill: #e49ff4; stroke-width: 0px;"/>
      </g>
    </symbol>
  </defs>
  <use width="618.52472" height="480.0079" transform="translate(432.24988 59.58345)" xlink:href="#Novo_símbolo_2"/>
  <use width="618.52472" height="480.0079" transform="translate(487.07333 491.49534)" xlink:href="#Novo_símbolo_2"/>
  <use width="618.52472" height="480.0079" transform="translate(894.35563 104.61147)" xlink:href="#Novo_símbolo_2"/>
  <use width="618.52472" height="480.0079" transform="translate(1093.50827 506.47374)" xlink:href="#Novo_símbolo_2"/>
  <use width="618.52472" height="480.0079" transform="translate(1560.94846 69.75252)" xlink:href="#Novo_símbolo_2"/>
  <use width="618.52472" height="480.0079" transform="translate(1990.43014 455.8984)" xlink:href="#Novo_símbolo_2"/>
  <use width="618.52472" height="480.0079" transform="translate(1441.84663 545.99985)" xlink:href="#Novo_símbolo_2"/>
  <use width="618.52472" height="480.0079" transform="translate(1489.60486 468.1507)" xlink:href="#Novo_símbolo_2"/>
  <use width="618.52472" height="480.0079" transform="translate(1966.84297 55.81273)" xlink:href="#Novo_símbolo_2"/>
  <use width="696.51929" height="540.45415" transform="translate(1710.0198 173.99257)" xlink:href="#Novo_símbolo"/>
  <use width="696.51929" height="540.45415" transform="translate(1093.67831 343.58311)" xlink:href="#Novo_símbolo"/>
  <use width="696.51929" height="540.45415" transform="translate(1157.44817)" xlink:href="#Novo_símbolo"/>
  <use width="696.51929" height="540.45415" transform="translate(658.86817 383.1711)" xlink:href="#Novo_símbolo"/>
  <use width="696.51929" height="540.45415" transform="translate(460.41266 150.15968)" xlink:href="#Novo_símbolo"/>
  <use width="696.51929" height="540.45415" transform="translate(360.69288 164.58533)" xlink:href="#Novo_símbolo"/>
  <use width="696.51929" height="540.45415" transform="translate(93.33068 444.49164)" xlink:href="#Novo_símbolo"/>
  <use width="696.51929" height="540.45415" transform="translate(1768.94493 462.7263)" xlink:href="#Novo_símbolo"/>
  <use width="696.51929" height="540.45415" transform="translate(2082.09523 173.46432)" xlink:href="#Novo_símbolo"/>
  <use width="486.52472" height="398.0079" transform="translate(1942.31294 349.55307)" xlink:href="#Novo_símbolo_1"/>
  <use width="486.52472" height="398.0079" transform="translate(443.62933 373.57939)" xlink:href="#Novo_símbolo_1"/>
  <use width="486.52472" height="398.0079" transform="translate(631.85807 105.56841)" xlink:href="#Novo_símbolo_1"/>
  <use width="486.52472" height="398.0079" transform="translate(1595.79862 335.76106)" xlink:href="#Novo_símbolo_1"/>
  <use width="486.52472" height="398.0079" transform="translate(926.9758 608.26885)" xlink:href="#Novo_símbolo_1"/>
  <use width="486.52472" height="398.0079" transform="translate(9 258.50079)" xlink:href="#Novo_símbolo_1"/>
  <use width="489.95497" height="420.61482" transform="translate(258.61745 306.1144) rotate(-20.97157)" xlink:href="#Novo_símbolo_3"/>
  <use width="489.95497" height="420.61482" transform="translate(670.30706 501.74524)" xlink:href="#Novo_símbolo_3"/>
  <use width="489.95497" height="420.61482" transform="translate(1430.35284 32.51181) rotate(15.23852)" xlink:href="#Novo_símbolo_3"/>
  <use width="489.95497" height="420.61482" transform="translate(1377.06341 135.98495) rotate(7.38667)" xlink:href="#Novo_símbolo_3"/>
  <use width="489.95497" height="420.61482" transform="translate(1967.49127 459.94449) rotate(-16.29272)" xlink:href="#Novo_símbolo_3"/>
  <use width="489.95497" height="420.61482" transform="translate(971.80613 259.87932)" xlink:href="#Novo_símbolo_3"/>
  <use width="489.95497" height="420.61482" transform="translate(2362.42847 444.18986)" xlink:href="#Novo_símbolo_3"/>
</svg>