<?xml version="1.0" standalone="no"?>
<!DOCTYPE svg PUBLIC "-//W3C//DTD SVG 20010904//EN" "http://www.w3.org/TR/2001/REC-SVG-20010904/DTD/svg10.dtd">
<!-- Created using Krita: https://krita.org -->
<svg xmlns="http://www.w3.org/2000/svg" 
    xmlns:xlink="http://www.w3.org/1999/xlink"
    xmlns:krita="http://krita.org/namespaces/svg/krita"
    xmlns:sodipodi="http://sodipodi.sourceforge.net/DTD/sodipodi-0.dtd"
    width="600pt"
    height="600pt"
    viewBox="0 0 600 600">
<defs/>
<path id="shape0" transform="translate(420.50491403845, 220.436578171091)" fill="#402a89" fill-rule="evenodd" stroke="none" stroke-width="24" stroke-linecap="square" stroke-linejoin="bevel" d="M41.442 79.5634L103.035 66.2891C127.106 54.2537 137.017 38.3245 132.769 18.5015C128.522 -1.32153 108.699 -5.21534 73.3004 6.82006C59.1411 9.65192 40.734 11.4218 18.0792 12.1298C-11.6554 23.8112 -5.28368 35.4926 41.442 79.5634Z" sodipodi:nodetypes="cczccc"/><path id="shape1" transform="translate(29.7345132743363, 238.938053097345)" fill="#402a89" fill-rule="evenodd" stroke="none" stroke-width="24" stroke-linecap="square" stroke-linejoin="bevel" d="M120 0C76.8142 12.3894 47.0796 18.0531 30.7965 16.9912C14.5133 15.9292 4.24779 26.5487 0 48.8496C9.20354 72.9204 26.5487 83.5398 52.0354 80.708C77.5221 77.8761 101.947 71.3274 125.31 61.0619C135.929 62.1239 134.159 41.7699 120 0Z" sodipodi:nodetypes="czczcc"/><path id="shape2" transform="translate(60.7113040574385, 167.510002563484)" fill="#503ad4" fill-rule="evenodd" stroke="none" stroke-width="24" stroke-linecap="square" stroke-linejoin="bevel" d="M117.696 236.03C151.678 251.605 192.209 257.977 239.289 255.145C309.908 250.897 354.51 242.402 384.244 214.791L413.979 238.154L452.209 257.269C467.784 260.809 480.882 256.561 491.501 244.525C502.121 232.49 499.643 217.623 484.067 199.924C471.324 188.95 448.669 172.667 416.103 151.074C421.059 109.304 411.855 78.1537 388.492 57.6227C353.448 26.8263 315.218 4.5254 239.289 0.277608C163.359 -3.97018 97.5188 41.6935 83.7135 57.6227C69.9082 73.5519 53.979 112.844 59.2887 152.136C62.8285 167.003 66.3683 177.623 69.9082 183.994L27.4303 216.915C1.2356 247.357 -6.19803 269.304 5.1294 282.755C22.1206 302.932 39.1117 297.623 63.5365 281.694C79.8197 271.074 97.8728 255.853 117.696 236.03Z" sodipodi:nodetypes="czccczcczzzccczcc"/><path id="shape3" transform="translate(186.401370676234, 115.408302181407)" fill="#30274e" fill-rule="evenodd" d="M109.351 69.3705C111.121 46.7156 105.634 30.0784 92.8907 19.459C73.7756 3.52975 53.5986 -7.08972 32.3597 5.65364C11.1208 18.397 -6.93234 37.5121 2.62518 65.1227C12.1827 92.7333 39.7933 105.477 57.8464 95.9191C69.8818 89.5475 75.8995 80.6979 75.8995 69.3705C69.5278 57.3351 62.4482 56.6271 54.6606 67.2466C61.7402 75.7421 57.8464 81.7598 42.9792 85.2997C28.1119 80.3439 19.2623 70.7864 16.4305 56.6271C12.1827 35.3882 30.2358 25.8306 40.8553 21.5828C51.4747 17.3351 72.7137 13.0873 85.457 31.1404C93.9526 43.1758 98.2004 53.4413 98.2004 61.9368Z" sodipodi:nodetypes="czzzzccczzzcc"/>
</svg>
