<?xml version="1.0" standalone="no"?>
<!DOCTYPE svg PUBLIC "-//W3C//DTD SVG 20010904//EN" "http://www.w3.org/TR/2001/REC-SVG-20010904/DTD/svg10.dtd">
<!-- Created using Krita: https://krita.org -->
<svg xmlns="http://www.w3.org/2000/svg" 
    xmlns:xlink="http://www.w3.org/1999/xlink"
    xmlns:krita="http://krita.org/namespaces/svg/krita"
    xmlns:sodipodi="http://sodipodi.sourceforge.net/DTD/sodipodi-0.dtd"
    width="600pt"
    height="600pt"
    viewBox="0 0 600 600">
<defs/>
<path id="shape0" transform="translate(418.050128586269, 227.256637168142)" fill="#402a89" fill-rule="evenodd" stroke="none" stroke-width="24" stroke-linecap="square" stroke-linejoin="bevel" d="M37.5251 72.7434L125.667 61.5929C141.242 55.9292 147.614 44.9558 144.782 28.6726C141.95 12.3894 126.021 2.83186 96.9941 0C65.8437 3.53982 40.357 9.20354 20.5339 16.9912C-9.20057 28.6726 -9.20057 28.6726 37.5251 72.7434Z" sodipodi:nodetypes="cczccc"/><path id="shape1" transform="translate(31.255028157683, 261.238938053097)" fill="#402a89" fill-rule="evenodd" stroke="none" stroke-width="24" stroke-linecap="square" stroke-linejoin="bevel" d="M97.2405 0C63.2582 6.72566 36.7096 14.8673 17.5945 24.4248C-1.52051 33.9823 -5.06034 50.6195 6.97506 74.3363C18.3025 87.0796 37.7715 89.2035 65.3821 80.708C92.9928 72.2124 110.692 66.1947 118.479 62.6549C118.479 62.6549 111.4 41.7699 97.2405 0Z" sodipodi:nodetypes="czczcc"/><path id="shape2" transform="translate(58.1347855684139, 167.510002563484)" fill="#503ad4" fill-rule="evenodd" stroke="none" stroke-width="24" stroke-linecap="square" stroke-linejoin="bevel" d="M120.272 236.03C154.255 251.605 194.786 257.977 241.865 255.145C312.485 250.897 357.086 242.402 386.821 214.791L429.299 238.154L454.786 248.773C473.193 256.561 487.706 254.437 498.325 242.402C508.945 230.366 508.237 215.145 496.201 196.738C480.626 178.685 454.786 163.463 418.679 151.074C423.635 109.304 414.432 78.1537 391.069 57.6227C356.025 26.8263 317.794 4.5254 241.865 0.277608C165.936 -3.97018 100.095 41.6935 86.29 57.6227C72.4847 73.5519 56.5555 112.844 61.8652 152.136C65.405 167.003 68.9449 177.623 72.4847 183.994L27.8829 213.729C5.22805 231.428 -3.62151 249.127 1.33424 266.826C8.76787 293.375 34.2546 292.313 58.6794 276.384C74.9626 265.764 95.4935 252.313 120.272 236.03Z" sodipodi:nodetypes="czccczcczzzccczcc"/><path id="shape3" transform="translate(175.545411981078, 288.053097345133)" fill="#eeeafc" fill-rule="evenodd" stroke="none" stroke-width="24" stroke-linecap="square" stroke-linejoin="bevel" d="M69.7643 11.9469C48.5254 -3.9823 29.4103 -3.9823 12.4192 11.9469C-13.0675 35.8407 6.04751 70.885 21.9767 77.2566C37.9059 83.6283 59.1449 86.8142 75.0741 69.823C91.0033 52.8319 85.6935 28.4071 69.7643 11.9469Z" sodipodi:nodetypes="czzcc"/><path id="shape4" transform="translate(347.256637168142, 259.193706981318)" fill="#eeeafc" fill-rule="evenodd" d="M72.2124 19.0364C57.3451 3.46116 43.5398 -2.55654 30.7965 0.983284C11.6814 6.29302 0 22.2222 0 40.8063C0 59.3904 13.8053 77.4435 40.354 78.5054C58.0531 79.2134 70.4425 71.0718 77.5221 54.0806C82.4779 42.0452 80.708 30.3638 72.2124 19.0364Z" sodipodi:nodetypes="czzzcc"/><path id="shape5" transform="translate(185.689001264222, 312.094395280236)" fill="#30274e" fill-rule="evenodd" d="M47.9393 14.9853C52.1871 31.2684 48.6473 41.8879 37.3198 46.8437C20.3287 54.2773 10.7712 47.9056 0.151707 34.1003C-0.556258 22.0649 1.21365 13.2153 5.46144 7.55162C9.70923 1.88791 17.1429 -0.589971 27.7623 0.117994C23.5145 7.9056 24.5765 13.5693 30.9482 17.1091C37.3198 20.649 42.9836 19.941 47.9393 14.9853Z" sodipodi:nodetypes="czczccc"/><path id="shape6" transform="translate(360.622686395184, 278.230088495575)" fill="#30274e" fill-rule="evenodd" d="M31.2357 0C12.8286 1.41593 2.56315 8.67257 0.439261 21.7699C-2.74658 41.4159 12.1207 52.0354 21.6782 52.0354C31.2357 52.0354 52.4747 49.9115 51.4127 21.7699C38.6693 29.2035 30.5278 29.2035 26.9879 21.7699C23.4481 14.3363 24.864 7.07965 31.2357 0Z" sodipodi:nodetypes="czzccc"/><path id="shape7" transform="translate(190.649158286853, 155.762284482292)" fill="#30274e" fill-rule="evenodd" d="M109.351 69.3705C111.121 46.7156 105.634 30.0784 92.8907 19.459C73.7756 3.52975 53.5986 -7.08972 32.3597 5.65364C11.1208 18.397 -6.93234 37.5121 2.62518 65.1227C12.1827 92.7333 39.7933 105.477 57.8464 95.9191C69.8818 89.5475 75.8995 80.6979 75.8995 69.3705C69.5278 57.3351 62.4482 56.6271 54.6606 67.2466C61.7402 75.7421 57.8464 81.7598 42.9792 85.2997C28.1119 80.3439 19.2623 70.7864 16.4305 56.6271C12.1827 35.3882 30.2358 25.8306 40.8553 21.5828C51.4747 17.3351 72.7137 13.0873 85.457 31.1404C93.9526 43.1758 98.2004 53.4413 98.2004 61.9368Z" sodipodi:nodetypes="czzzzccczzzcc"/>
</svg>
