<?xml version="1.0" encoding="utf-8"?>
<!-- Generator: Adobe Illustrator 28.2.0, SVG Export Plug-In . SVG Version: 6.00 Build 0)  -->
<!DOCTYPE svg PUBLIC "-//W3C//DTD SVG 1.1//EN" "http://www.w3.org/Graphics/SVG/1.1/DTD/svg11.dtd" [
	<!ENTITY st0 "fill:#F2D7F1;">
	<!ENTITY st1 "fill:#FBF2FA;">
	<!ENTITY st2 "fill:#161315;">
	<!ENTITY st3 "fill:#120E0F;">
	<!ENTITY st4 "fill:#E1CCE5;">
	<!ENTITY st5 "fill:#181316;">
	<!ENTITY st6 "fill:#0E0B0D;">
	<!ENTITY st7 "fill:#611893;">
	<!ENTITY st8 "fill:#5F1693;">
	<!ENTITY st9 "fill:#641D94;">
	<!ENTITY st10 "fill:#623794;">
	<!ENTITY st11 "fill:#7A34A1;">
	<!ENTITY st12 "fill:#3E444C;">
	<!ENTITY st13 "fill:#F1D6F0;">
	<!ENTITY st14 "fill:#F0D5EF;">
	<!ENTITY st15 "fill:#EED4ED;">
	<!ENTITY st16 "fill:#EDD3EC;">
	<!ENTITY st17 "fill:#EED3ED;">
	<!ENTITY st18 "fill:#40353B;">
	<!ENTITY st19 "fill:#EFD5EF;">
	<!ENTITY st20 "fill:#EFD5EE;">
	<!ENTITY st21 "fill:#EED4EE;">
	<!ENTITY st22 "fill:#EACEED;">
	<!ENTITY st23 "fill:#262024;">
	<!ENTITY st24 "fill:#EBD0ED;">
	<!ENTITY st25 "fill:#230F11;">
	<!ENTITY st26 "fill:#1B191C;">
]>
<svg version="1.1" id="Camada_2" xmlns="http://www.w3.org/2000/svg" xmlns:xlink="http://www.w3.org/1999/xlink" x="0px" y="0px"
	 width="1052.40002px" height="459.72px" viewBox="0 0 1052.40002 459.72" style="enable-background:new 0 0 1052.40002 459.72;"
	 xml:space="preserve">
<g>
	<path style="&st0;" d="M985.6861,407.55338c-2.63794,0.6405-5.24884,1.4563-7.92181,1.87079
		c-2.52539,0.3916-5.30298,1.02643-7.6366,0.36984c-4.09015-1.1506-6.40491,0.59433-8.65662,3.45309
		c-0.95154,1.20813-2.07629,2.59396-3.42535,3.11746c-4.61017,1.78894-7.44611,4.81351-8.98267,9.59964
		c-1.8999,5.91815-6.71454,9.72705-11.13055,13.79584c-2.72925,2.51471-5.36658,5.23758-7.51788,8.24454
		c-2.73535,3.82349-4.47461,4.82904-9.0271,3.72751c-0.57684-0.13953-1.19287-0.31482-1.66791-0.6485
		c-6.92487-4.86447-15.70447-6.51682-21.88898-12.69022c-1.07428-1.07236-2.52832-1.76404-3.76318-2.60181
		c-0.52124,0.59412-0.93604,0.84558-0.97687,1.14758c-0.41736,3.09338-1.33197,6.70932-4.39203,7.11591
		c-2.09686,0.27859-5.24536-1.90018-6.77722-3.87183c-4.25732-5.47964-7.94244-11.40714-11.79663-17.19568
		c-1.32288-1.98669-2.44812-4.10391-3.71515-6.12927c-2.55621-4.08627-4.6405-7.63699-11.16577-5.99051
		c-3.89178,0.98193-8.82959-1.53479-13.11572-3.00714c-2.62299-0.90103-4.59729-1.47913-7.11871,0.43185
		c-3.61108,2.73691-7.79645,3.81564-12.43518,2.57971c-1.18854-0.31662-2.86652-0.13507-3.89429,0.50314
		c-6.37555,3.95938-13.05969,2.77942-19.57391,1.02127c-3.6759-0.99216-6.80542-1.26102-10.3327,0.48047
		c-4.23254,2.08975-8.62738,4.21597-13.19324,5.16751c-5.09088,1.06088-10.49744,0.14676-14.7431-3.09598
		c-5.8421-4.46207-12.69122-6.21506-19.36469-8.64606c-6.12756-2.23221-11.85278-5.32172-16.24005-10.44324
		c-1.38367-1.6152-2.99017-3.18597-4.80139-4.2594c-4.63074-2.74442-8.05328-6.41122-10.16211-11.37781
		c-1.39282-3.28018-2.84521-6.55203-4.55731-9.6702c-0.57135-1.04053-1.97168-2.15552-3.09473-2.27438
		c-5.91614-0.62604-12.00012-1.90244-17.76239-1.08792c-5.28992,0.74768-10.48535,3.47891-14.0481,8.10358
		c-0.97064,1.25986-1.92639,2.5643-2.65948,3.9682c-2.6225,5.02258-6.97772,7.11508-12.3252,6.74542
		c-4.78461-0.33066-8.58514,0.86987-11.45721,4.78116c-2.20221,2.99899-5.15875,4.17889-8.87958,3.73367
		c-1.77191-0.21201-3.61664,0.16138-5.38232-0.07471c-7.44781-0.99591-13.75592,0.61862-18.25922,7.18225
		c-0.72717,1.05981-2.2486,1.54947-3.32861,2.39737c-1.83496,1.44058-4.24475,2.60437-5.29871,4.5033
		c-3.94611,7.10974-9.51123,10.96121-17.64917,12.69489c-5.41656,1.1539-10.84656,4.38046-15.1665,7.9985
		c-5.16992,4.32983-9.80139,3.52267-14.69568,0.82321c-2.46033-1.35709-4.13647-2.31094-6.96582-0.49475
		c-1.77545,1.13974-4.59137,0.84341-6.94202,0.85443c-3.05554,0.01434-5.80164,0.18381-8.21844,2.60931
		c-2.02966,2.03699-4.64551,2.11612-7.73126,1.66339c-6.27075-0.92007-12.58466-0.38-18.19836,3.25912
		c-1.15497,0.74872-2.45389,1.97617-3.61365,1.89835c-5.89972-0.3959-11.36765,1.6001-17.03116,2.51309
		c-4.60571,0.74249-8.9422-0.41037-13.04922-3.08359c-3.26117-2.12268-7.00604-3.78064-10.76559-4.78824
		c-4.81326-1.28992-8.39029-4.28531-10.8504-8.00687c-3.85306-5.82867-9.65152-8.58203-15.28055-11.81903
		c-3.44241-1.97958-6.74576-4.22101-10.28125-6.00912c-1.49142-0.75424-3.54349-1.18802-5.12692-0.82758
		c-5.34137,1.21588-10.22098,0.18933-14.84351-2.3736c-3.561-1.97437-6.99149-1.77951-10.12552,0.51251
		c-3.61411,2.64307-7.54425,3.44669-11.83218,2.90848c-9.03635-1.13431-18.2074-1.70978-27.04843-3.72235
		c-7.06158-1.60748-14.05591-4.20255-19.97589-8.90442c-1.23425-0.98026-3.47443-1.81827-4.79358-1.37125
		c-5.65842,1.91779-10.5127,0.0712-15.53021-2.16138c-2.04193-0.9086-4.66733-1.66705-6.71121-1.17642
		c-4.81458,1.15564-8.78622,0.07172-11.95789-3.36984c-2.96609-3.21848-6.12048-3.88766-10.20932-2.68823
		c-2.2341,0.65536-4.767,0.80798-7.0899,0.53842c-5.12692-0.59503-9.30807,1.05276-13.04105,4.3941
		c-3.74094,3.34845-7.78787,5.91342-12.87285,7.14951c-3.14914,0.76556-5.85754,3.28641-8.80756,4.94116
		c-9.69264,5.43683-19.3423,10.95569-29.1382,16.20059c-4.55537,2.439-9.42502,4.28613-14.12468,6.46115
		c-6.16034,2.85092-14.76991,1.95038-19.36665-3.12592c-5.12984-5.66495-11.76222-6.84729-18.57727-8.4519
		c-7.44551-1.75296-14.54214-0.5708-21.75238,1.00748c-2.10681,0.46115-4.40221,0.46655-6.55853,0.22009
		c-6.9323-0.7923-12.84009,2.01849-18.76054,4.93668c-3.2002,1.57736-6.38959,3.19043-9.66595,4.59583
		c-4.00426,1.71768-8.08853,1.86731-12.2047,0.17499c-4.85581-1.99649-9.88832-2.76678-15.17789-2.53262
		c-7.7016,0.341-13.89514-2.78473-18.39289-9.08871c-2.32734-3.26196-4.95987-4.92801-9.14079-3.07977
		c-4.52724,2.00131-9.36989,3.3085-13.8358,5.42374c-5.58006,2.64301-10.99337,4.08514-17.26636,2.37817
		c-5.77273-1.57089-10.84906,1.29919-15.81417,4.0191C4.83333,422.83606,2.35323,423.53101,0,424.4577C0,283.02924,0,141.60075,0,0
		c350.39679,0,700.79364,0,1051.19043,0c0.00085,125.89892,0.00183,251.79784,0.00269,377.69675
		c-0.47339,0.34149-0.97937,1.0177-1.41528,0.9751c-9.27625-0.9061-16.46545,3.60513-23.50574,8.74741
		c-2.0437,1.49268-4.54797,2.35425-6.84125,3.50488c-2.83441-3.23929-5.46008-6.70016-8.58093-9.63406
		c-1.86414-1.7525-4.32166-3.42017-7.29761-2.00955c3.24731,5.20691,6.44916,10.34085,9.65094,15.47476
		c-1.59265,3.09854-3.05609,6.276-4.86646,9.24155c-0.46765,0.7659-2.02386,0.86676-3.08051,1.27246
		c-1.46802-2.54465-2.6908-5.27783-4.46985-7.58099c-1.89862-2.45779-3.99969-5.03262-6.58472-6.62888
		c-5.30615-3.27652-10.07465-0.69977-10.20154,5.53622C983.92615,400.23526,985.08301,403.89996,985.6861,407.55338z
		 M883.38867,154.66029l0.00568,0.00717c-0.40601-2.13628-1.0387-4.05518-4.54401-4.48503
		c1.31207,2.81413,2.2923,4.91661,3.27246,7.0191c0.88977,5.01274,1.77942,10.02548,2.66919,15.03821
		c-10.95953-0.01724-21.91962,0.03705-32.8783-0.0687c-16.07532-0.15511-32.15033-0.38104-48.22363-0.67902
		c-3.60614-0.06685-6.53082,0.83299-8.97833,3.66795c-2.7326,3.16513-5.75952,6.08067-8.71857,9.04475
		c-17.88934,17.92-35.7995,35.81921-53.69324,53.73482c-3.16827,3.17212-3.26642,4.80789-0.19202,8.06226
		c2.32703,2.46327,4.93494,4.65828,7.33362,7.05696c27.4903,27.49081,55.03961,54.92361,82.34515,82.59695
		c3.30933,3.35388,6.86548,4.51123,11.07953,4.58725c20.09729,0.36255,40.19659,0.61853,60.2951,0.90903
		c4.5354,0.06561,8.21997-1.2312,11.61481-4.72409c16.52039-16.99796,33.30505-33.73944,50.03131-50.53662
		c13.2193-13.2753,26.52271-26.46692,39.71613-39.76781c3.65179-3.68153,3.54681-4.59247,0.11664-8.41801
		c-0.53223-0.59358-1.13373-1.12457-1.69702-1.69072c-20.25146-20.35097-40.513-40.69194-60.73425-61.07285
		c-1.79633-1.81047-3.68018-2.52361-6.30914-2.5006c-12.54163,0.10986-25.08563-0.04346-37.62866-0.10316
		c-1.40479-5.50081-2.80951-11.00165-4.21429-16.50246C883.83405,155.44391,883.61139,155.05209,883.38867,154.66029z
		 M98.48241,110.33836c0.11848,0.80753,0.23696,1.61505,0.35544,2.42258c0.16815,0.47697,0.33632,0.95395,0.50447,1.43092
		c0.45686,1.28397,0.8886,2.57754,1.37446,3.85043c4.69144,12.29142,18.92294,15.97974,30.02349,6.44221
		c5.55496-4.77277,9.60243-10.84341,11.32228-17.96672c2.13748-8.85298-0.07677-16.7012-7.63409-22.34608
		c-7.53329-5.62691-15.99977-7.35436-24.69515-3.48138c-6.8907,3.06917-11.03905,8.91357-12.53635,16.44357
		C97.62543,101.53537,98.05392,105.93687,98.48241,110.33836z M416.86502,84.81446c0.6265,0.4752,1.25299,0.9504,1.87946,1.42562
		c-1.26434,1.22402-2.54608,2.43068-3.79016,3.67499c-5.93817,5.93915-10.26541,12.60329-10.34494,21.43587
		c-0.08289,9.20428,8.03452,21.83743,20.93555,21.90396c12.453,0.06421,22.40591-5.24069,30.69846-13.7127
		c4.98865-5.09661,6.30194-11.8643,4.20166-18.93894c-4.65909-15.69376-23.74118-26.84591-39.40811-22.48759
		c-8.46298,2.35427-15.01529,7.51717-18.44357,17.30766C407.99512,91.40771,412.42993,88.11095,416.86502,84.81446z
		 M962.56201,357.23294c0.44342,0.40128,0.86688,0.82761,1.33325,1.20007c7.56561,6.04227,16.76703,8.15125,25.82416,10.4032
		c5.38458,1.33881,10.95667,2.28064,16.48901,2.58264c8.06677,0.44043,12.505-4.24411,13.01251-12.24173
		c0.3338-5.26071-1.6485-9.65964-4.62231-13.69864c8.59821-5.21121,9.5741-10.14157,3.82025-17.72195
		c-1.31891-1.73758-2.94403-3.24344-4.43762-4.84714c-0.86273-0.92639-1.74445-1.83521-2.79504-2.93835
		c11.56921-3.58099,14.61737-7.00229,14.07843-21.12506c-0.04553-1.1911-0.24841-2.38446-0.47083-3.55923
		c-2.67688-14.13638-9.59631-26.70078-14.62708-39.99892c-0.35138,2.81679-0.7951,5.62682-0.26953,8.2419
		c1.68201,8.36911,3.91162,16.62888,5.55975,25.00372c1.10645,5.62198,1.74316,11.35254,2.28369,17.06354
		c0.30139,3.18588-1.61023,5.42966-4.65686,6.08118c-2.67529,0.57205-5.48712,0.62143-8.242,0.6597
		c-1.57123,0.02182-3.14154-0.56839-4.72528-0.6622c-6.1344-0.36334-9.005,2.76938-9.32141,8.83075
		c-0.46857,8.97879,2.90717,15.87173,9.93445,21.21759c2.06262,1.56903,4.1535,3.14166,5.98682,4.9595
		c1.67645,1.66226,3.37958,3.47296,4.45087,5.53986c4.18927,8.08267,1.25299,12.61325-7.79315,12.32538
		c-1.19458-0.03799-2.3938-0.11444-3.578-0.2709c-12.26465-1.62021-24.3653-3.95178-35.97321-8.39236
		c-1.02106-0.50134-2.04205-1.00269-3.06311-1.50403C961.36053,355.33194,961.9613,356.28244,962.56201,357.23294z
		 M542.9093,363.44434c18.04834-18.03793,36.091-36.08154,54.14679-54.11194c13.67188-13.65262,27.3728-27.27606,41.03632-40.93704
		c6.76068-6.7594,13.5202-13.52155,20.17688-20.38286c4.20837-4.33791,4.05548-5.39032-0.32745-9.71359
		c-3.40802-3.36162-6.69611-6.84454-10.09204-10.21861c-17.94275-17.8273-35.94513-35.59465-53.84552-53.46436
		c-20.4444-20.40945-40.79102-40.91693-61.20874-61.35321c-4.66626-4.6705-5.94421-4.55283-10.67908,0.21978
		c-10.53113,10.61514-21.11069,21.18224-31.65482,31.78461c-13.21191,13.2849-26.36835,26.62521-39.62073,39.86951
		c-18.03931,18.02832-36.16599,35.9691-54.20844,53.99425c-3.59781,3.59435-3.43491,5.33868,0.21661,8.95952
		c15.13809,15.01083,30.30954,29.9884,45.37863,45.06833c18.75214,18.76559,37.40695,37.62833,56.1207,56.43231
		c8.29126,8.33127,16.60587,16.63956,24.94589,24.92194c3.85974,3.83307,4.82031,3.76941,8.74896-0.12921
		c2.40381-2.38544,4.84113-4.73712,7.26343-7.10397c1.72577,3.12863,3.16504,6.46289,5.2326,9.34622
		c5.57605,7.77588,14.38336,7.59628,19.76825-0.23776c0.8974-1.30548,1.64124-2.73514,2.31207-4.17456
		c2.56677-5.50705,3.54767-11.35843,3.7287-17.39246c0.04553-1.51727,0.13989-3.13937,0.70319-4.51147
		c1.0177-2.47913,0.13074-6.75784-2.05261-6.91492c-1.06348-0.07648-2.44897,1.90067-3.38867,3.17038
		c-1.06836,1.44345-2.04279,3.03879,0.6651,4.21332c0.5708,0.24753,0.82379,2.15546,0.59772,3.15707
		c-1.09216,4.83954-2.29919,9.65933-3.67712,14.42496c-0.54425,1.88223-1.422,3.75198-2.52173,5.37378
		c-3.32678,4.90579-7.82721,5.40976-12.02081,1.22415C545.50671,371.81781,543.53259,367.92719,542.9093,363.44434z
		 M335.16003,239.2368c-1.64279-1.84355-2.98657-3.51526-4.49606-5.02069c-19.7493-19.69603-39.56451-39.32605-59.27734-59.0585
		c-20.98454-21.00549-41.82088-42.15936-62.84236-63.12759c-7.11996-7.10191-5.78413-9.57824-15.59436,0.25855
		c-21.12048,21.17767-42.28302,42.31341-63.43301,63.46163c-19.73495,19.73329-39.47996,39.45654-59.2111,59.19366
		c-4.35923,4.36052-4.30486,5.40898-0.02707,9.67511c21.4384,21.37984,42.89039,42.74626,64.26945,64.18538
		c20.54512,20.60275,41.00011,41.29547,61.51085,61.93259c4.23613,4.26221,4.91666,4.32434,9.17862,0.09213
		c12.87399-12.78415,25.68068-25.63617,38.50006-38.47531c18.03067-18.05847,36.03525-36.14304,54.07797-54.18945
		c11.40472-11.40704,22.88229-22.74136,34.2554-34.17969C333.26312,242.78578,333.96854,241.10283,335.16003,239.2368z
		 M760.77313,106.95002c-0.4046,12.73011,8.2099,21.33064,20.86804,20.30373c9.01245-0.73114,16.02942-5.56562,21.80804-12.189
		c4.6582-5.3392,6.71423-11.69823,6.0318-18.81351c-1.14008-11.88774-11.51953-21.67166-22.11713-20.68836
		c-12.08856,1.12164-20.06335,8.81381-27.21954,17.62404c-0.70581,0.86892-0.87561,2.20434-1.15961,3.3564
		c-0.04999,0.20252,0.69214,0.88104,0.86066,0.81435c2.15686-0.85327,2.35461,0.01405,1.98822,1.91325
		C761.34473,101.80448,761.1145,104.38798,760.77313,106.95002z"/>
	<path style="&st1;" d="M1051.19312,377.69675c-0.00085-125.89891-0.00183-251.79782-0.00269-377.69675
		c0.39954,0.19984,1.13135,0.3788,1.14539,0.60287c0.09998,1.59241,0.05322,3.19406,0.05322,4.79277
		c0,124.09993,0,248.19984,0,372.29974C1051.99048,377.69608,1051.59192,377.69653,1051.19312,377.69675z"/>
	<path style="&st2;" d="M985.6861,407.55338c-0.60309-3.65341-1.75995-7.31812-1.68591-10.95773
		c0.12689-6.23599,4.89539-8.81274,10.20154-5.53622c2.58502,1.59625,4.6861,4.17108,6.58472,6.62888
		c1.77905,2.30316,3.00183,5.03635,4.46985,7.58099c0.30969,4.11563-2.4494,3.11688-4.76227,2.86142
		c-0.38348-0.91565-0.62195-1.93381-1.17792-2.73019c-2.03564-2.91577-4.10339-5.8172-6.33557-8.58139
		c-0.49298-0.6105-1.92938-1.09631-2.53186-0.80695c-0.6424,0.30853-1.27515,1.71262-1.10315,2.4494
		c0.62024,2.65521,1.63464,5.21552,2.38892,7.84357c0.33264,1.15921,0.39844,2.39502,0.58533,3.59604
		C990.10858,409.11862,987.8974,408.336,985.6861,407.55338z"/>
	<path style="&st3;" d="M1013.20325,394.75528c-3.20178-5.13391-6.40363-10.26785-9.65094-15.47476
		c2.97595-1.41061,5.43347,0.25705,7.29761,2.00955c3.12085,2.9339,5.74652,6.39478,8.58093,9.63412
		C1017.82776,392.97037,1016.69952,395.78903,1013.20325,394.75528z"/>
	<path style="&st4;" d="M992.31976,409.90118c-0.18689-1.20102-0.25269-2.43683-0.58533-3.59604
		c-0.75427-2.62805-1.76868-5.18835-2.38892-7.84357c-0.172-0.73679,0.46075-2.14087,1.10315-2.4494
		c0.60248-0.28937,2.03888,0.19644,2.53186,0.80695c2.23218,2.76419,4.29993,5.66562,6.33557,8.58139
		c0.55597,0.79639,0.79443,1.81454,1.17792,2.73019C997.7688,408.72043,995.04431,409.31079,992.31976,409.90118z"/>
	<path style="&st2;" d="M888.27112,172.33817c12.54303,0.05969,25.08704,0.21301,37.62866,0.10315
		c2.62897-0.02301,4.51282,0.69012,6.30914,2.5006c20.22125,20.38091,40.48279,40.72188,60.73425,61.07285
		c0.56329,0.56615,1.16479,1.09714,1.69702,1.69072c3.43018,3.82555,3.53516,4.73648-0.11664,8.41801
		c-13.19342,13.30089-26.49683,26.49251-39.71613,39.76781c-16.72626,16.79718-33.51093,33.53867-50.03131,50.53662
		c-3.39484,3.49289-7.07941,4.7897-11.61481,4.72409c-20.09851-0.2905-40.19781-0.54648-60.2951-0.90903
		c-4.21405-0.07602-7.7702-1.23337-11.07953-4.58725c-27.30554-27.67334-54.85486-55.10614-82.34515-82.59695
		c-2.39868-2.39868-5.00659-4.59369-7.33362-7.05696c-3.0744-3.25436-2.97626-4.89014,0.19202-8.06226
		c17.89374-17.9156,35.80389-35.81482,53.69324-53.73482c2.95905-2.96408,5.98596-5.87962,8.71857-9.04475
		c2.44751-2.83496,5.37219-3.7348,8.97833-3.66795c16.0733,0.29797,32.14832,0.52391,48.22363,0.67902
		c10.95868,0.10574,21.91876,0.05145,32.87695,0.06885c1.73706,2.47115,1.68353,4.02522-1.91431,4.02332
		c-8.94305-0.00473-17.88605,0.05237-26.8291,0.08466c-17.33148,0.16975-34.67194-0.5519-53.09985-0.39595
		c21.10492,21.45947,41.20654,41.89868,61.39532,62.42659c18.95782-20.31065,37.64746-40.33398,56.74963-60.79927
		c-2.29803-0.18262-3.85736-0.30653-5.41663-0.43045c-1.12421-0.22604-2.24603-0.63274-3.37317-0.64842
		c-6.72485-0.09351-13.45294-0.20728-20.17566-0.08064C889.06598,176.47733,887.59412,175.55917,888.27112,172.33817z
		 M901.32043,242.13731c-3.59216-1.6371-7.17065-1.78432-10.73065,0.0979c-0.08472,0.30165-0.12781,0.60915-0.12915,0.92247
		c-0.74341-0.01605-1.48682-0.0321-2.23022-0.04817c-4.43652-1.41148-8.86884-1.59207-13.29523,0.04442
		c-1.96216-0.04745-3.92426-0.09494-5.88641-0.14238c-1.22052,0.09285-2.44092,0.1857-3.66144,0.27853
		c0,0-0.1275,0.03287-0.1275,0.03288c-0.65753-0.0078-1.315-0.01556-1.97253-0.02336
		c-1.68024,0.0721-3.36053,0.14421-5.04077,0.21631c-1.2182-0.00392-2.4364-0.00781-3.6546-0.01173
		c-1.97681,0.00803-3.95355,0.01604-5.93036,0.02406c-2.01733-0.00635-4.03473-0.0127-6.05206-0.01907
		c-0.78217,0.00391-1.56433,0.00783-2.3465,0.01176c-0.81561-0.00842-1.63116-0.01682-2.44672-0.02524
		c-0.7865-0.00911-1.57306-0.01822-2.35956-0.02734c-0.80756-0.00739-1.61505-0.01474-2.42255-0.02209
		c-0.39514-0.00653-0.79034-0.01306-1.18549-0.01959c-1.60461,0.01305-3.20935,0.02608-4.81403,0.03909
		c-0.78589,0.01273-1.5719,0.02542-2.35785,0.03812c-2.41138-0.01436-4.82263-0.02875-7.23401-0.04309
		c-1.9931-0.02722-3.98627-0.05444-5.97937-0.08168c-1.60571,0.04961-3.21143,0.09923-4.81714,0.14886
		c-0.78381-0.01588-1.56775-0.03175-2.35156-0.04762c-1.2085-0.00604-2.41687-0.01207-3.62537-0.01813
		c-0.39355-0.00584-0.78699-0.01169-1.18048-0.01755c-5.59961-0.00563-11.1991-0.01125-16.79871-0.01689
		c-1.19153,0.00233-2.38312,0.00464-3.57465,0.00696c-0.80585,0.00609-1.61157,0.01216-2.41742,0.01823
		c-0.39227,0.00688-0.78448,0.01378-1.17676,0.02066c-12.14801-1.05518-24.28143-0.67482-37.69299-0.32903
		c2.8045,2.98573,4.61761,5.02127,6.54071,6.94684c15.03046,15.04967,30.0838,30.07655,45.12677,45.11369
		c12.52472,12.51993,25.00824,25.08167,37.61792,37.51538c1.4458,1.42566,3.54413,2.96143,5.41089,3.05688
		c9.12885,0.46677,18.2868,0.33237,27.42346,0.68994c3.56116,0.1394,3.90442-1.86047,3.96118-4.46393
		c0.08759-0.17462,0.27277-0.36829,0.24323-0.51999c-0.07123-0.36533-0.24304-0.71106-0.37433-1.06467
		c0.00934-1.65692,0.01862-3.31384,0.02795-4.97076c0.01019-0.54236,0.02039-1.08472,0.03052-1.62708
		c-0.12427-1.59482-0.2486-3.18967-0.37286-4.78448l0.53607,0.03607l0.52338-0.12186l0.42041-0.01477l0.4201,0.01855
		c0.24121,4.55417,0.7251,9.11322,0.63458,13.66083c-0.05627,2.83014,0.64124,3.91492,3.57172,3.86423
		c6.76465-0.11697,13.54413-0.19135,20.29755,0.13419c4.75226,0.22906,8.12299-1.47775,11.44769-4.83823
		c22.25073-22.48999,44.70984-44.7735,67.05438-67.1709c6.99652-7.01306,13.84857-14.17024,20.7666-21.26173
		c-0.06628-1.1846-0.13245-2.36917-0.19873-3.55376c-20.99664-20.89153-41.99341-41.78304-62.99622-62.68074
		c-18.89514,20.99689-37.46722,41.6348-56.85651,63.18079c19.49213,0.24767,37.91217,0.48172,56.33209,0.71579
		c-2.84393,0.36725-5.68799,0.73448-8.53192,1.10172c-1.98761-1.49519-3.96283-1.50151-5.92499,0.04947
		c-0.10217,0.31438-0.14575,0.63667-0.13068,0.96689c-0.35846,0.21637-0.70093,0.19345-1.0274-0.06876
		C906.97473,242.7486,904.14764,242.44296,901.32043,242.13731z M799.68982,178.41216
		c-20.28314,20.28123-40.44617,40.44238-60.60919,60.60353c0.19739,0.39207,0.39465,0.78413,0.59204,1.17621
		c13.18463,0,26.36932,0.00989,39.55389-0.00276c13.2981-0.01273,26.59637-0.02052,39.89435-0.0809
		c13.10168-0.05948,26.23517,1.03593,40.43719-0.22313C839.06506,218.84277,819.53381,198.78801,799.68982,178.41216z"/>
	<path style="&st5;" d="M335.16003,239.2368c-1.1915,1.86603-1.89691,3.54898-3.08896,4.74782
		c-11.37311,11.43832-22.85068,22.77264-34.2554,34.17969c-18.04272,18.04642-36.0473,36.13098-54.07797,54.18945
		c-12.81938,12.83914-25.62607,25.69116-38.50006,38.47531c-4.26196,4.23221-4.94249,4.17007-9.17862-0.09213
		c-20.51074-20.63712-40.96573-41.32983-61.51085-61.93259c-21.37906-21.43912-42.83105-42.80554-64.26945-64.18538
		c-4.27779-4.26613-4.33216-5.31459,0.02707-9.67511c19.73114-19.73712,39.47615-39.46037,59.2111-59.19366
		c21.14999-21.14822,42.31253-42.28397,63.43301-63.46163c9.81023-9.83679,8.4744-7.36046,15.59436-0.25855
		c21.02148,20.96823,41.85782,42.1221,62.84236,63.12759c19.71283,19.73245,39.52805,39.36247,59.27734,59.0585
		C332.17346,235.72154,333.51724,237.39325,335.16003,239.2368z M197.82173,363.52206c0-3.54373-0.13789-6.3074,0.08333-9.04205
		c0.06706-0.82901,1.12709-1.57767,1.73232-2.36316c0.64415,0.78555,1.79529,1.54077,1.8443,2.36188
		c0.20775,3.48019,0.08813,6.97998,0.08813,11.71307c2.39423-2.23367,3.71492-3.39359,4.95534-4.63391
		c19.5885-19.58688,39.16386-39.18695,58.74808-58.77817c18.88568-18.89243,37.78326-37.77295,56.65897-56.67537
		c1.73248-1.73494,5.04095-3.29546,1.021-6.10826c-0.18268-0.12781,0.18515-1.72664,0.65891-1.99129
		c2.07431-1.15877,0.98166-2.01721-0.05997-3.0274c-5.43613-5.27209-10.90982-10.50691-16.27216-15.85335
		c-17.63458-17.58223-35.25027-35.18358-52.82802-52.82268c-14.61925-14.6703-29.16475-29.41415-43.76794-44.10053
		c-2.59412-2.60889-5.31079-5.09586-8.50249-8.14736c-0.3734,3.02309-0.62198,5.03556-0.87056,7.04803
		c-0.38455,0.02354-0.7691,0.04709-1.15366,0.07064c-0.38219-1.96327-0.76436-3.92654-1.30132-6.68491
		c-41.06685,40.98994-81.83747,81.63037-122.29466,122.38644c1.70743,2.23523,5.14191-0.26167,4.9001,3.09476
		c-0.03671,0.50966-2.97232,0.78407-4.54732,1.23613c-0.24781,0.07111-0.39014,0.51001-0.44336,0.5849
		C116.70074,282.14597,156.90109,322.47275,197.82173,363.52206z"/>
	<path style="&st3;" d="M539.3067,367.27985c-2.4223,2.36679-4.85962,4.71848-7.26343,7.10391
		c-3.92865,3.89862-4.88922,3.96228-8.74896,0.12921c-8.34003-8.28238-16.65463-16.59067-24.94589-24.92194
		c-18.71375-18.80399-37.36856-37.66672-56.1207-56.43231c-15.06909-15.07993-30.24054-30.0575-45.37863-45.06833
		c-3.65152-3.62083-3.81442-5.36517-0.21661-8.95952c18.04245-18.02515,36.16913-35.96593,54.20844-53.99425
		c13.25238-13.24429,26.40881-26.58461,39.62073-39.86951c10.54413-10.60237,21.12369-21.16947,31.65482-31.78461
		c4.73486-4.77261,6.01282-4.89028,10.67908-0.21978c20.41772,20.43628,40.76434,40.94376,61.20874,61.35321
		c17.90039,17.86971,35.90277,35.63705,53.84552,53.46436c3.39594,3.37407,6.68402,6.85699,10.09204,10.21861
		c4.38293,4.32327,4.53583,5.37569,0.32745,9.71359c-6.65668,6.86131-13.4162,13.62346-20.17688,20.38286
		c-13.66351,13.66098-27.36444,27.28442-41.03632,40.93704c-18.05579,18.0304-36.09845,36.07401-54.14575,54.11099
		c-0.74768-1.99088-1.4964-3.9808-2.24597-5.97092c4.73267-4.47531,9.46625-8.9505,14.19977-13.42575
		c0.24548-0.78113,0.49084-1.56229,0.73621-2.34351c-0.23376,0.14441-0.4306,0.1048-0.59045-0.11871
		c0.8446-0.73438,1.68915-1.46872,2.53375-2.20312c2.2038-1.65225,4.62927-3.0791,6.57483-4.99387
		c11.22266-11.04489,22.34332-22.1936,33.47693-33.3288c18.59637-18.59903,37.17645-37.21442,55.76343-55.82294
		c2.02692-1.22372,1.27496-2.19209-0.28333-3.08641c-10.69672-10.79582-21.39349-21.59161-32.09021-32.38744
		c-0.42267-0.36772-0.8454-0.73547-1.26813-1.10321l-0.06232-0.05457c-0.38507-0.37939-0.77014-0.75877-1.15521-1.13814
		c-9.15649-9.22485-18.31299-18.44971-27.46948-27.67456c-2.03436-0.35555-4.06873-0.71109-6.10309-1.06664
		c-0.05933-0.30725-0.23859-0.41516-0.53778-0.3237c-0.19629-1.09573-0.39252-2.19148-0.58881-3.28723
		c2.44153-0.09627,2.09735-0.91878,0.70435-2.30411c-10.84747-10.78784-21.62994-21.64107-32.49329-32.41275
		c-5.35187-5.30673-10.83252-10.48352-16.25488-15.71909c-0.38287-0.38234-0.76575-0.76467-1.14862-1.147l-0.05786-0.05196
		c-0.3844-0.36996-0.7688-0.73992-1.1532-1.10989c0,0-0.07153-0.0694-0.07129-0.06916
		c-1.5517-1.57774-3.10364-3.15572-4.65552-4.73369c-1.18262,0.19791-2.36523,0.39581-3.54785,0.5937
		c-10.79865,10.9215-21.573,21.86724-32.40491,32.75564c-6.74924,6.78442-13.61194,13.4559-20.35437,20.24699
		c-1.02377,1.03123-3.61487,2.55008,0.24243,3.50291c0.50339,0.12437,0.81052,1.04387,1.20856,1.59509
		c-0.64398,0.32437-1.38861,1.04521-1.91611,0.91112c-4.68048-1.1899-7.40335,1.73785-10.24899,4.5899
		c-19.71225,19.75673-39.44623,39.49174-59.17322,59.2337c-0.30139,0.8224-0.60281,1.64479-0.90424,2.46719
		c1.09946,1.5899,1.99225,3.38483,3.33215,4.7361c8.12964,8.19861,16.37793,16.2793,24.55545,24.4306
		c21.02234,20.95496,42.07224,41.88275,62.9826,62.94907c2.46707,2.48547,4.89954,3.66275,8.36432,3.45358
		c1.51291-0.09131,3.08939,0.87106,4.63699,1.35492c-1.53986,0.45782-3.08548,0.89743-4.61456,1.38876
		c-0.3085,0.09915-0.55414,0.39435-1.22568,0.89523c3.5296,3.55441,6.94055,7.10092,10.47363,10.52118
		c5.39578,5.22342,10.87595,10.35962,16.32028,15.53284c0.80334,0.15079,1.60663,0.30161,2.40991,0.45239
		c2.70233-2.43057,5.40466-4.86118,8.10699-7.29172C537.71124,363.68356,538.50897,365.48169,539.3067,367.27985z"/>
	<path style="&st6;" d="M963.82288,355.88547c11.60791,4.44058,23.70856,6.77216,35.97321,8.39236
		c1.1842,0.15646,2.38342,0.23291,3.578,0.2709c9.04614,0.28787,11.98242-4.24271,7.79315-12.32538
		c-1.07129-2.06689-2.77441-3.87759-4.45087-5.53986c-1.83331-1.81784-3.92419-3.39047-5.98682-4.9595
		c-7.02728-5.34586-10.40302-12.2388-9.93445-21.21759c0.31641-6.06137,3.18701-9.19409,9.32141-8.83075
		c1.58374,0.09381,3.15405,0.68402,4.72528,0.6622c2.75488-0.03827,5.56671-0.08765,8.242-0.6597
		c3.04663-0.65152,4.95825-2.89529,4.65686-6.08118c-0.54053-5.711-1.17725-11.44156-2.28369-17.06354
		c-1.64813-8.37485-3.87775-16.63461-5.55975-25.00372c-0.52557-2.61508-0.08185-5.42511,0.26953-8.2419
		c5.03076,13.29814,11.9502,25.86253,14.62708,39.99892c0.22241,1.17477,0.42529,2.36813,0.47083,3.55923
		c0.53894,14.12277-2.50922,17.54407-14.07843,21.12506c1.0506,1.10315,1.93231,2.01196,2.79504,2.93835
		c1.49359,1.6037,3.11871,3.10956,4.43762,4.84714c5.75385,7.58038,4.77795,12.51074-3.82025,17.72195
		c2.97382,4.039,4.95612,8.43793,4.62231,13.69864c-0.50751,7.99762-4.94574,12.68216-13.01251,12.24173
		c-5.53235-0.302-11.10443-1.24384-16.48901-2.58264c-9.05713-2.25195-18.25854-4.36093-25.82416-10.4032
		c-0.46637-0.37247-0.88983-0.7988-1.33344-1.2002C962.98199,356.7836,963.40247,356.33456,963.82288,355.88547z
		 M998.29865,319.06937c-2.54205,10.53775,3.61987,19.77374,12.57349,19.82391c1.6228,0.00912,3.96399-0.48599,4.66003-1.58261
		c0.59845-0.94281-0.34753-3.27814-1.18243-4.64917C1010.61584,326.52997,1004.1983,323.54602,998.29865,319.06937z"/>
	<path style="&st7;" d="M416.86469,84.81415c-4.43475,3.2968-8.86957,6.59356-14.27133,10.60918
		c3.42828-9.79048,9.98059-14.95338,18.44357-17.30766c15.66693-4.35832,34.74902,6.79383,39.40811,22.48759
		c2.10028,7.07465,0.78699,13.84233-4.20166,18.93894c-8.29254,8.47201-18.24545,13.77691-30.69846,13.7127
		c-12.90103-0.06653-21.01843-12.69968-20.93555-21.90396c0.07953-8.83258,4.40677-15.49672,10.34494-21.43587
		c1.24408-1.24431,2.52582-2.45097,3.77457-3.68252c0.63428-0.1637,1.28415-0.31985,1.93402-0.47602
		c0.40286,0.55113,0.80569,1.10226,1.20859,1.65339c-5.40323,4.78735-10.16406,10.03128-12.29929,17.16613
		c-2.27756,7.61026-0.10855,14.30129,5.02673,19.80774c4.72836,5.0701,11.12033,6.38763,17.55765,4.03799
		c5.90616-2.15577,11.82016-4.74411,17.05569-8.17317c7.0777-4.63564,10.08182-14.53837,4.93259-22.60721
		c-4.681-7.33517-10.80582-12.57978-19.10632-15.23545c-3.97729-1.63168-7.96396-1.47717-11.95734-0.06326
		C421.00906,83.1665,418.93686,83.99033,416.86469,84.81415z"/>
	<path style="&st8;" d="M760.77313,106.95002c0.34137-2.56204,0.57159-5.14554,1.06049-7.6791
		c0.36639-1.89919,0.16864-2.76652-1.98822-1.91325c-0.16852,0.06669-0.91064-0.61183-0.86066-0.81435
		c0.284-1.15206,0.4538-2.48748,1.15961-3.3564c7.15619-8.81023,15.13098-16.5024,27.21954-17.62404
		c10.5976-0.9833,20.97705,8.80062,22.11713,20.68836c0.68243,7.11527-1.3736,13.47431-6.0318,18.81351
		c-5.77863,6.62337-12.79559,11.45786-21.80804,12.189C768.98303,128.28065,760.36853,119.68013,760.77313,106.95002z
		 M765.02264,106.15021c0.20471,12.00642,8.90033,19.54249,18.4812,16.65252c4.29987-1.29701,8.59839-3.39469,12.19794-6.07072
		c11.19403-8.32215,12.2757-22.78201,2.82953-32.29076c-3.52295-3.5462-7.82806-5.26114-12.47833-3.32243
		c-5.07782,2.11697-9.99536,4.80966-14.56171,7.8785c-2.10327,1.41352-3.82611,4.12258-4.61304,6.59695
		C765.68909,99.33398,765.46918,103.38219,765.02264,106.15021z"/>
	<path style="&st9;" d="M539.3067,367.27979c-0.79773-1.7981-1.59546-3.59622-2.39417-5.39362
		c-1.17114-6.77249-2.34131-13.54565-3.51227-20.31854c-0.11102-0.62778-0.22119-1.25577-0.33136-1.88379
		c0.06323-0.32486,0.16187-0.63855,0.29602-0.9411c1.27667-6.18686,2.55328-12.37372,3.8299-18.56058
		c0.53387-0.00018,1.06775-0.00043,1.60156-0.00061c-0.30646,3.31339-0.73041,6.62085-0.89575,9.94125
		c-0.38062,7.64236-0.32959,7.64493,6.97473,9.09552c-2.09393,0.22318-4.19128,0.44452-6.28857,0.66586
		c0.02301,0.37598,0.04602,0.75198,0.06903,1.12802c2,0.24606,3.99994,0.49219,5.99988,0.73825
		c-0.78522,0.08377-1.56866,0.19315-2.3559,0.24698c-4.31744,0.29535-4.53015,0.31952-3.97638,4.39465
		c0.50702,3.73071,1.54047,7.38986,2.34186,11.08057c0.74866,1.98993,1.49738,3.97986,2.24506,5.97073
		c0.62225,4.4838,2.59637,8.37442,5.74304,11.51511c4.1936,4.18561,8.69403,3.68164,12.02081-1.22415
		c1.09973-1.6218,1.97748-3.49155,2.52173-5.37378c1.37793-4.76562,2.58496-9.58542,3.67712-14.42496
		c0.22607-1.00162-0.02692-2.90955-0.59772-3.15707c-2.70789-1.17453-1.73346-2.76987-0.6651-4.21332
		c0.9397-1.26971,2.3252-3.24686,3.38867-3.17038c2.18335,0.15707,3.07031,4.43579,2.05261,6.91492
		c-0.56329,1.3721-0.65765,2.9942-0.70319,4.51147c-0.18103,6.03403-1.16193,11.88541-3.7287,17.39246
		c-0.67084,1.43942-1.41467,2.86908-2.31207,4.17456c-5.38489,7.83405-14.1922,8.01364-19.76825,0.23776
		C542.47174,373.74268,541.03247,370.40842,539.3067,367.27979z"/>
	<path style="&st9;" d="M97.19695,97.13389c1.49729-7.53001,5.64565-13.37441,12.53635-16.44358
		c8.69538-3.87298,17.16186-2.14553,24.69515,3.48138c7.55733,5.64488,9.77158,13.4931,7.63409,22.34608
		c-1.71985,7.12331-5.76732,13.19395-11.32228,17.96672c-11.10056,9.53754-25.33205,5.84921-30.02349-6.44221
		c-0.48586-1.27289-0.9176-2.56646-1.37419-3.85106c-0.16808-0.47718-0.33641-0.95374-0.50474-1.43029
		c-0.11848-0.80753-0.23696-1.61505-0.35546-2.42255c0.70997-0.00423,1.41994-0.00848,2.12991-0.01272
		c0.60382,1.67761,1.00779,3.46342,1.84663,5.01379c3.33387,6.16179,7.41979,11.32494,15.44416,11.02279
		c5.56445-0.20953,11.49643-4.22685,12.81155-8.86545l-0.06889,0.06955c5.91727-3.29822,7.62154-9.12569,8.1194-15.10979
		c0.28081-3.37496-0.29185-7.51597-2.09314-10.24737c-7.27557-11.03233-20.37666-11.99638-29.22516-5.32693
		c-4.03705,3.04288-5.59302,7.01942-6.90878,11.41653C99.42436,97.91051,98.31066,97.5222,97.19695,97.13389z"/>
	<path style="&st10;" d="M888.27112,172.33815c-0.677,3.22102,0.79486,4.13918,3.85577,4.08157
		c6.72272-0.12663,13.45081-0.01286,20.17566,0.08064c1.12714,0.01569,2.24896,0.42238,3.37531,0.64905
		c-1.97675,0.08836-3.95532,0.24312-5.93457,0.2514c-6.15564,0.02574-12.31158,0.01982-18.4671-0.02652
		c-1.91168-0.01439-3.29633,0.64911-2.81348,2.71764c1.32465,5.67522-3.48254,11.47978,0.41107,17.11462
		c0.21545,0.31178-0.43573,1.51759-0.96521,1.99409c-1.56879,1.41196-3.27875,2.66705-5.5744,4.4933
		c-0.46185-3.98206-3.82654-7.35313,1.54968-9.6237c0.52875-0.2233,0.57751-1.78888,0.69196-2.75017
		c0.3288-2.76205,0.63763-5.52922,0.84399-8.3026c0.42096-5.65506,0.25403-5.7242-5.17285-5.85861
		c-8.0683-0.19981-16.1333-0.53401-24.19971-0.811c8.94305-0.03229,17.88605-0.08939,26.8291-0.08466
		c3.59784,0.00191,3.65137-1.55217,1.91431-4.0233c-0.88843-5.01289-1.77808-10.02563-2.66766-15.03847
		c0.42383-0.84471,0.84766-1.68933,1.27136-2.53398c0,0-0.00568-0.00717-0.00568-0.00713
		c0.22272,0.39182,0.44537,0.78358,0.66815,1.17535C885.46161,161.3365,886.86633,166.83734,888.27112,172.33815z"/>
	<path style="&st11;" d="M100.61229,110.32568c-0.70997,0.00424-1.41994,0.00849-2.12991,0.01272
		c-0.42847-4.40153-0.85695-8.80302-1.28544-13.20451c1.11372,0.38832,2.22742,0.77663,3.34122,1.16487
		C100.56293,102.3077,100.58762,106.31668,100.61229,110.32568z"/>
	<path style="&st11;" d="M883.39435,154.66747c-0.42371,0.84465-0.84753,1.68927-1.2713,2.53397
		c-0.98041-2.10239-1.96063-4.20486-3.27271-7.019C882.35565,150.61229,882.98834,152.53119,883.39435,154.66747z"/>
	<path style="&st12;" d="M963.82288,355.88547c-0.42041,0.4491-0.84088,0.89813-1.26105,1.34735
		c-0.60052-0.95038-1.20129-1.90088-1.80206-2.85138C961.78082,354.88278,962.80182,355.38412,963.82288,355.88547z"/>
	<path style="&st11;" d="M884.05682,155.83569c-0.22278-0.39177-0.44543-0.78354-0.66815-1.17535
		C883.61139,155.05209,883.83405,155.44391,884.05682,155.83569z"/>
	<path style="&st11;" d="M98.83784,112.76094c0.16833,0.47655,0.33666,0.95311,0.50474,1.43029
		C99.17416,113.71489,99.006,113.23791,98.83784,112.76094z"/>
	<path style="&st13;" d="M863.46381,319.03647c0.12427,1.59479,0.2486,3.18964,0.3728,4.78442
		c-0.01007,0.54236-0.02026,1.08475-0.03046,1.62711c-0.00934,1.65692-0.01862,3.31384-0.02704,4.97125
		c-0.08313,0.17392-0.26111,0.36517-0.2323,0.51724c0.06927,0.36542,0.23553,0.71246,0.36249,1.06693
		c-0.05676,2.60345-0.40002,4.60333-3.96118,4.46393c-9.13666-0.35757-18.29462-0.22318-27.42346-0.68994
		c-1.86676-0.09546-3.96509-1.63123-5.41089-3.05688c-12.60968-12.43372-25.0932-24.99545-37.61792-37.51538
		c-15.04297-15.03714-30.09631-30.06403-45.12677-45.11369c-1.9231-1.92557-3.73621-3.96111-6.54071-6.94684
		c13.41156-0.34579,25.54498-0.72615,37.69287,0.32904c0.39215-0.00688,0.78455-0.01378,1.17688-0.02065
		c0.80585-0.0061,1.61157-0.01218,2.4173-0.01826c1.1944,1.49974,2.38605,1.49763,3.57477-0.00696
		c5.59961,0.00565,11.1991,0.01126,16.79852,0.01688c0.39355,0.00583,0.78705,0.01169,1.18066,0.01756
		c1.2085,0.00606,2.41687,0.01208,3.62524,0.01811c0.78381,0.01588,1.56769,0.03175,2.35168,0.04764
		c1.60571-0.04964,3.21143-0.09926,4.81708-0.14886c1.96887,1.79823,3.96326,1.73846,5.97943,0.08168
		c2.41138,0.01434,4.82263,0.02873,7.23376,0.04308c0.78595-0.01268,1.57202-0.02538,2.35809-0.03807
		c1.60468-0.01305,3.20941-0.02608,4.8139-0.03911c0.39514,0.00653,0.79041,0.01306,1.18561,0.01958
		c0.8075,0.00735,1.61499,0.01471,2.42236,0.02209c0.7865,0.00911,1.57312,0.01822,2.35974,0.02734
		c0.81555,0.00842,1.6311,0.01682,2.44647,0.02521c0.7821-0.00391,1.56451-0.00783,2.34674-0.0117
		c2.01733,0.00635,4.03473,0.0127,6.05182,0.019c1.98309,1.57281,3.96008,1.58582,5.9306-0.02402
		c1.2182,0.00392,2.4364,0.00781,3.65442,0.0117c1.7312,0.35474,3.46277,0.7095,5.19427,1.06425
		c-0.09766,3.2068-0.19531,6.41362-0.29309,9.62041c0.06891,12.8145,0.13782,25.62901,0.20685,38.4435
		c0.02338,2.73926,0.04688,5.47852,0.07037,8.21777c-0.0191,0.46127-0.03821,0.92258-0.05737,1.38388
		c0.04358,4.3605,0.08728,8.72098,0.13086,13.08148C863.48676,316.5636,863.47528,317.80002,863.46381,319.03647z"/>
	<path style="&st14;" d="M888.23041,243.10951c0.74341,0.01607,1.48682,0.03212,2.23071,0.04811
		c6.44739-0.0345,12.89404-0.06895,19.34082-0.10341c0.32648,0.26221,0.66895,0.28513,1.02795,0.06866
		c1.98737,0.09131,3.9743,0.26195,5.96118,0.26201c24.11517,0.00061,48.23022-0.02385,72.3454-0.04181
		c-6.91821,7.09123-13.77026,14.24841-20.76678,21.26147c-22.34454,22.3974-44.80365,44.68091-67.05438,67.1709
		c-3.32471,3.36047-6.69543,5.06729-11.44769,4.83823c-6.75342-0.32553-13.5329-0.25116-20.29755-0.13419
		c-2.93048,0.05069-3.62799-1.03409-3.57172-3.86423c0.09052-4.54761-0.39337-9.10666-0.63458-13.66083
		c0.02911-5.60471,0.05823-11.20941,0.08746-16.81412c-0.01154-0.39301-0.02301-0.78604-0.03455-1.17905
		c-0.00812-2.79782-0.01617-5.59564-0.02429-8.39349c-0.08417-12.40442-0.16833-24.80884-0.25256-37.21324
		c-0.19019-2.34439-0.51605-4.68828-0.52496-7.03336c-0.00635-1.66522,0.41473-3.33209,0.64496-4.99823
		c0,0,0.1275-0.03287,0.12714-0.03275c1.22028-0.09282,2.4411-0.18575,3.6618-0.27867
		c1.96216,0.04745,3.92426,0.09494,5.88666,0.14232C879.36725,243.13904,883.79877,243.12427,888.23041,243.10951z"/>
	<path style="&st15;" d="M925.41693,241.00487c-18.41992-0.23404-36.83997-0.46809-56.33209-0.71576
		c19.38928-21.54599,37.96136-42.1839,56.85651-63.18079c21.00281,20.89771,41.99957,41.78922,62.99603,62.68062
		c-1.64325,0.33675-3.28442,0.95607-4.92987,0.96747C964.47766,240.89175,944.9472,240.93643,925.41693,241.00487z"/>
	<path style="&st16;" d="M799.68982,178.41216c19.84399,20.37585,39.37524,40.43062,59.86829,61.47295
		c-14.20203,1.25906-27.33551,0.16365-40.43719,0.22313c-13.29797,0.06038-26.59625,0.06818-39.89435,0.0809
		c-13.18457,0.01265-26.36926,0.00276-39.55389,0.00276c-0.19739-0.39207-0.39465-0.78413-0.59204-1.17621
		C759.24365,218.85454,779.40668,198.69339,799.68982,178.41216z"/>
	<path style="&st17;" d="M856.04724,176.34787c8.06641,0.27699,16.13141,0.61119,24.19971,0.811
		c5.42688,0.13441,5.59381,0.20355,5.17285,5.85861c-0.20636,2.77338-0.5152,5.54054-0.84399,8.3026
		c-0.11444,0.96129-0.16321,2.52687-0.69196,2.75017c-5.37622,2.27057-2.01154,5.64165-1.54968,9.6237
		c2.29565-1.82625,4.00562-3.08134,5.5744-4.4933c0.52948-0.4765,1.18066-1.68231,0.96521-1.99409
		c-3.89362-5.63484,0.91357-11.43941-0.41107-17.11462c-0.48285-2.06853,0.90179-2.73203,2.81348-2.71764
		c6.15552,0.04634,12.31146,0.05226,18.4671,0.02652c1.97925-0.00829,3.95782-0.16304,5.93457-0.2514
		c1.55713,0.12329,3.11646,0.24721,5.41449,0.42982c-19.10217,20.46529-37.79181,40.48862-56.74963,60.79927
		c-20.18878-20.52791-40.29041-40.96712-61.39532-62.42659C821.37531,175.79597,838.71576,176.51762,856.04724,176.34787z"/>
	<path style="&st12;" d="M925.41693,241.0049c19.53027-0.06847,39.06073-0.11314,58.59058-0.24849
		c1.64545-0.0114,3.28662-0.63072,4.92987-0.9675c0.06647,1.18474,0.13263,2.36931,0.19897,3.55403
		c-24.11505,0.0181-48.2301,0.04256-72.34528,0.04195c-1.98688-0.00006-3.97382-0.1707-5.96118-0.26201
		c-0.01562-0.33012,0.02795-0.65242,0.13-0.96657c1.97498-0.0164,3.95001-0.03305,5.92511-0.0497
		C919.72894,241.73938,922.573,241.37215,925.41693,241.0049z"/>
	<path style="&st6;" d="M865.45111,302.14032c-0.02911,5.60471-0.05823,11.20941-0.08734,16.81412l-0.4201-0.01855
		c0,0-0.42041,0.01477-0.42218,0.01465c-0.34229-1.20782-0.68274-2.41559-1.02325-3.62335
		c-0.04358-4.3605-0.08728-8.72098-0.13086-13.08148C864.06195,302.21054,864.75647,302.17545,865.45111,302.14032z"/>
	<path style="&st12;" d="M865.25983,243.32295c-0.23022,1.66614-0.65131,3.33301-0.64496,4.99823
		c0.00891,2.34508,0.33478,4.68896,0.52496,7.03352c-0.66412-0.38461-1.32819-0.76938-1.99231-1.15416
		c0.09778-3.20679,0.19543-6.4136,0.29181-9.62025c-0.05157-0.4268-0.10181-0.85374-0.15204-1.28069
		C863.94482,243.3074,864.60229,243.31517,865.25983,243.32295z"/>
	<path style="&st12;" d="M909.80194,243.05421c-6.44678,0.03445-12.89343,0.06891-19.34082,0.10341
		c0.00085-0.31326,0.04395-0.62076,0.12848-0.92256c3.57678-0.03267,7.15387-0.06522,10.73083-0.09775
		C904.14764,242.44296,906.97473,242.7486,909.80194,243.05421z"/>
	<path style="&st12;" d="M888.23041,243.10951c-4.43164,0.01476-8.86316,0.02953-13.29498,0.04434
		C879.36157,241.51744,883.79388,241.69803,888.23041,243.10951z"/>
	<path style="&st6;" d="M901.32043,242.13731c-3.57697,0.03253-7.15405,0.06508-10.73083,0.09775
		C894.14978,240.353,897.72827,240.50021,901.32043,242.13731z"/>
	<path style="&st14;" d="M854.59192,243.50418c-1.97052,1.60983-3.94751,1.59683-5.9306,0.02402
		C850.63837,243.52022,852.61511,243.51221,854.59192,243.50418z"/>
	<path style="&st14;" d="M817.44281,243.46078c-2.01617,1.65678-4.01056,1.71655-5.97943-0.08167
		C813.45654,243.40634,815.44971,243.43356,817.44281,243.46078z"/>
	<path style="&st6;" d="M916.88501,242.10661c-1.9751,0.01665-3.95013,0.03329-5.92511,0.0497
		C912.92218,240.6051,914.8974,240.61142,916.88501,242.10661z"/>
	<path style="&st14;" d="M863.28729,243.29961c0.05023,0.42694,0.10046,0.85388,0.15204,1.28069
		c-1.73022-0.3549-3.46179-0.70967-5.19299-1.06444C859.92676,243.44382,861.60706,243.3717,863.28729,243.29961z"/>
	<path style="&st18;" d="M863.49823,315.32718c0.34052,1.20776,0.68097,2.41553,1.02325,3.62335
		c0.00177,0.00012-0.52161,0.12198-0.52161,0.12198s-0.53607-0.03607-0.53607-0.03604
		C863.47528,317.80002,863.48676,316.5636,863.49823,315.32718z"/>
	<path style="&st14;" d="M782.69019,243.42778c-1.18872,1.50459-2.38037,1.5067-3.57477,0.00696
		C780.30707,243.43242,781.49866,243.43011,782.69019,243.42778z"/>
	<path style="&st12;" d="M869.04877,243.01155c-1.2207,0.09291-2.44153,0.18584-3.6618,0.27866
		C866.60785,243.19725,867.82825,243.1044,869.04877,243.01155z"/>
	<path style="&st14;" d="M806.6463,243.52797c-0.784-0.01588-1.56787-0.03175-2.35168-0.04764
		C805.07855,243.49622,805.86249,243.51208,806.6463,243.52797z"/>
	<path style="&st14;" d="M837.81628,243.4957c-0.78662-0.00912-1.57324-0.01823-2.35974-0.02734
		C836.24323,243.47748,837.02979,243.48659,837.81628,243.4957z"/>
	<path style="&st14;" d="M842.6095,243.50917c-0.78223,0.00391-1.56464,0.00783-2.34674,0.01172
		C841.04517,243.517,841.82733,243.51308,842.6095,243.50917z"/>
	<path style="&st14;" d="M827.03467,243.46576c-0.78607,0.01273-1.57214,0.02542-2.35809,0.0381
		C825.46277,243.49118,826.24878,243.47849,827.03467,243.46576z"/>
	<path style="&st14;" d="M800.66937,243.46222c-0.39362-0.00587-0.78711-0.01173-1.18066-0.01756
		C799.88239,243.45053,800.27582,243.45638,800.66937,243.46222z"/>
	<path style="&st14;" d="M776.69812,243.453c-0.39233,0.00687-0.78473,0.01376-1.17688,0.02065
		C775.91364,243.46675,776.30585,243.45985,776.69812,243.453z"/>
	<path style="&st18;" d="M863.80615,325.448c0.01019-0.54236,0.02039-1.08475,0.03046-1.62711
		C863.82654,324.36328,863.81635,324.90564,863.80615,325.448z"/>
	<path style="&st18;" d="M863.9093,332.00342c-0.12695-0.35446-0.29321-0.70151-0.36249-1.06693
		c-0.02881-0.15207,0.14917-0.34332,0.2323-0.51724c0.13037,0.35312,0.30219,0.69885,0.37341,1.06418
		C864.18207,331.63513,863.99689,331.8288,863.9093,332.00342z"/>
	<path style="&st14;" d="M833.03418,243.44626c-0.3952-0.00652-0.79047-0.01305-1.18561-0.01958
		C832.24384,243.4332,832.63904,243.43973,833.03418,243.44626z"/>
	<path style="&st19;" d="M197.82173,363.52206c-40.92064-41.04932-81.12099-81.3761-121.35098-121.73259
		c0.05322-0.07489,0.19555-0.51379,0.44336-0.5849c1.575-0.45206,4.5106-0.72647,4.54732-1.23613
		c0.24181-3.35643-3.19267-0.85953-4.9001-3.09476c40.45719-40.75607,81.22781-81.3965,122.29466-122.38644
		c0.53696,2.75837,0.91913,4.72164,1.30132,6.68491c0.38455-0.02355,0.7691-0.0471,1.15366-0.07064
		c0.24858-2.01247,0.49716-4.02495,0.87056-7.04803c3.1917,3.05151,5.90837,5.53848,8.50249,8.14736
		c14.6032,14.68638,29.1487,29.43023,43.76794,44.10053c17.57774,17.6391,35.19344,35.24045,52.82802,52.82268
		c5.36234,5.34644,10.83603,10.58125,16.27216,15.85335c1.04163,1.01019,2.13428,1.86864,0.05997,3.0274
		c-0.47375,0.26465-0.84158,1.86348-0.65891,1.99129c4.01996,2.81281,0.71149,4.37332-1.021,6.10826
		c-18.8757,18.90242-37.77328,37.78294-56.65897,56.67537c-19.58421,19.59122-39.15958,39.19128-58.74808,58.77817
		c-1.24042,1.24033-2.56111,2.40024-4.95534,4.63391c0-4.73309,0.11961-8.23288-0.08813-11.71307
		c-0.04901-0.82111-1.20015-1.57632-1.8443-2.36188c-0.60522,0.78549-1.66525,1.53415-1.73232,2.36316
		C197.68384,357.21466,197.82173,359.97833,197.82173,363.52206z M161.93445,247.97835
		c0.24969-2.04347-0.20659-3.60268-2.69704-3.30898c-1.61647,0.19064-3.20061,0.65547-4.79924,0.99744
		c0.71053,1.29485,1.32938,2.65311,2.16441,3.86188c0.5406,0.78255,1.32077,1.46571,2.12784,1.98438
		c1.83548,1.17958,2.34497-0.32158,2.91711-1.59595c2.86234,0.99504,5.72466,1.99007,8.58698,2.98511
		c0.86038,0.4402,1.67632,1.10472,2.58809,1.2856c8.32283,1.6508,16.66235,3.21745,24.99699,4.80867
		c0.02574,3.18121,0.08466,6.36261,0.06262,9.54349c-0.01039,1.49835,0.05103,3.1503,2.02794,2.66544
		c0.94899-0.23276,2.15727-1.65686,2.26665-2.64963c0.34619-3.14267,0.22957-6.33633,0.29195-9.51025
		c4.35585-0.45999,8.71675-0.87802,13.06532-1.39902c1.94388-0.23285,3.25458,0.20432,2.88837,2.43967
		c-0.86641,5.28864-1.76903,10.57452-2.85075,15.82156c-0.18559,0.90027-1.43944,2.35956-2.00946,2.27512
		c-3.79794-0.56265-3.14822,1.89142-2.99284,4.04486c0.17903,2.48114,0.41206,4.95837,0.67207,8.03357
		c2.82048-1.90125,4.96828-3.27502,7.03386-4.76306c1.91946-1.38272,4.09164-2.586,1.40388-5.47757
		c-0.75917-0.81674-0.26582-3.03006,0.01257-4.53638c0.79478-4.30032,2.20549-8.53091,2.56194-12.85596
		c0.36731-4.45627,1.7874-6.98466,6.31816-8.66673c4.22437-1.5683,9.00531-3.29805,11.07968-8.18399l0.2097-0.14597
		l-0.15524,0.09877c-4.25526,0.78752-8.50189,1.62628-12.76913,2.34232c-2.35863,0.39577-3.68387-0.49727-3.80692-3.14066
		c-0.1171-2.51511,0.64201-3.65852,3.32336-3.52965c2.04872,0.09846,4.11879-0.24767,6.17937-0.39603
		c0.84442-2.002,0.7338-3.49503-1.94824-3.52831c-2.54741-0.03163-5.0954-0.02003-7.64313-0.02745
		c-1.60553-6.93637-2.7657-14.01637-4.94215-20.76857c-2.16426-6.7144-5.76161-12.85732-10.44022-18.29335
		c-0.25388,0.90552-0.09599,1.60974,0.21675,2.23666c4.66098,9.34253,5.9066,19.29298,5.04332,29.54878
		c-0.20761,2.46646-1.21049,4.86592-1.84764,7.29619c-0.19934-0.01263-0.39859-0.034-0.59805-0.03654
		c-2.38953-0.03052-5.72981,0.87852-6.92075-0.33096c-1.39343-1.41519-0.7206-4.72545-1.33324-7.11372
		c-0.28136-1.09689-1.49083-1.95552-2.27942-2.9222c-0.54834,0.90884-1.42555,1.76555-1.57938,2.73691
		c-0.36676,2.31618,0.45978,5.52863-0.79459,6.79826c-1.2562,1.27147-4.47566,0.49092-6.78752,0.88565
		c-0.89247,0.15239-1.65546,1.06363-2.47745,1.6291c0.76997,0.71539,1.44363,1.8647,2.32877,2.06134
		c2.27063,0.50444,5.45236-0.22801,6.73581,1.06168c1.32312,1.32957,0.75104,4.47887,1.18265,6.79951
		c0.15627,0.84019,0.81755,1.58638,1.2484,2.3755c0.79655-0.72571,1.86356-1.31735,2.30916-2.217
		c0.3988-0.80518,0.12334-1.94978,0.12717-2.94467c0.01889-4.93657,0.01668-4.95262,4.71419-4.97987
		c0.99236-0.00577,1.98564,0.15352,2.9785,0.23677c-0.40846,2.56528-0.81693,5.13055-1.22537,7.69585
		c6.76439-5.65686,7.00021-13.61662,9.0625-21.06221c0.68956,2.03564,1.56117,4.18777,1.28839,6.18335
		c-0.45573,3.33394-0.57475,6.46304,0.43875,9.74254c0.82675,2.67516-0.9086,3.94032-3.44398,4.28653
		c-0.14172,0.01935-0.20941,0.58113-0.35703,1.02805c1.21402,0.7067,2.44533,1.42345,4.49232,2.61504
		c-5.32256,2.21469-10.06737,2.1738-14.71338,2.61519c-10.75227,1.02148-21.29062-0.41985-31.74527-2.79268
		C169.7932,250.54063,165.86382,249.25949,161.93445,247.97835z M131.47614,241.27412
		c0.00021,0.01942,0.00043,0.03885,0.00066,0.05826c2.9733,0,5.94987,0.07085,8.91685-0.06625
		c0.52502-0.02425,1.48326-0.99786,1.41508-1.38887c-0.14214-0.81505-0.82074-2.18045-1.30679-2.1925
		c-5.16597-0.12784-10.3385-0.07584-15.50576,0.05917c-0.54253,0.01416-1.57505,1.0117-1.49402,1.31955
		c0.21215,0.80591,0.84969,2.04227,1.4341,2.11058C127.09068,241.42596,129.29227,241.27412,131.47614,241.27412z
		 M201.76682,322.32361c-0.04732-0.00006-0.09464-0.00009-0.14195-0.00015c0-2.38669,0.16055-4.79044-0.09009-7.15048
		c-0.08379-0.78888-1.21829-1.46613-1.87248-2.19437c-0.55658,0.64914-1.56972,1.27997-1.59654,1.95035
		c-0.19125,4.77988-0.25,9.56921-0.15097,14.35141c0.01283,0.61877,1.17227,1.21378,1.80057,1.81979
		c0.68382-0.73248,1.85425-1.40268,1.95744-2.20947C201.94878,326.73294,201.76682,324.51663,201.76682,322.32361z
		 M198.60933,191.75847c0.01941,0.0006,0.03883,0.00117,0.05823,0.00175c0,2.3604-0.1304,4.73299,0.08784,7.07301
		c0.05754,0.61697,1.23361,1.61528,1.82037,1.56445c0.62267-0.05394,1.61108-1.12048,1.65108-1.79184
		c0.21175-3.55501,0.18834-7.12471,0.21616-10.68956c0.00769-0.98466,0.1674-2.0873-0.21379-2.92003
		c-0.33583-0.73369-1.32922-1.16614-2.03226-1.73163c-0.52921,0.66583-1.44806,1.29503-1.51471,2.00436
		C198.48059,187.41547,198.60933,189.59302,198.60933,191.75847z M201.74898,287.16531
		c0.17769-0.00586,0.35536-0.01169,0.53304-0.01752c-0.19131-2.76074-0.2728-5.53598-0.63422-8.27426
		c-0.12448-0.94308-0.94714-1.79395-1.45085-2.68692c-0.6873,0.97467-1.89011,1.90912-1.96976,2.93118
		c-0.29372,3.76868-0.33153,7.57068-0.19147,11.34998c0.03273,0.88336,1.14256,1.72681,1.75684,2.58859
		c0.65213-0.77432,1.61049-1.45645,1.87823-2.34647C201.99889,289.61929,201.74898,288.35471,201.74898,287.16531z
		 M202.38065,213.64613c0-1.99518,0.19977-4.0202-0.09178-5.9718c-0.12863-0.86096-1.25476-1.57277-1.92804-2.35229
		c-0.57281,0.69426-1.61322,1.36981-1.64189,2.08585c-0.17502,4.37454-0.19431,8.76044-0.06601,13.13669
		c0.02022,0.68886,1.0555,1.34793,1.62143,2.02078c0.70467-0.77867,1.9008-1.4906,2.01736-2.34918
		C202.58423,218.0616,202.38838,215.8407,202.38065,213.64613z M154.42979,237.58691
		c-0.0002,0.00465-0.00041,0.00932-0.00058,0.01399c-2.16158,0-4.34314-0.15977-6.47122,0.10713
		c-0.56474,0.07085-1.17891,1.41162-1.34155,2.25229c-0.07054,0.36473,0.93968,1.34814,1.46637,1.35371
		c3.92952,0.0415,7.86588-0.01143,11.78633-0.25534c0.59831-0.03723,1.46793-1.16594,1.56213-1.87611
		c0.0596-0.4491-1.03879-1.43883-1.70103-1.52185C157.98772,237.44228,156.19969,237.58691,154.42979,237.58691z
		 M175.43082,237.50414c-1.78407,0-3.59676-0.18674-5.34001,0.08014c-0.8501,0.13014-1.5708,1.10632-2.35005,1.69957
		c0.76468,0.66576,1.49867,1.85971,2.29933,1.90625c3.5439,0.20607,7.11023,0.15993,10.6602,0.00998
		c0.67708-0.02863,1.31699-0.93823,1.97406-1.44136c-0.63147-0.74927-1.16812-2.00621-1.91347-2.14551
		C179.03793,237.29129,177.2139,237.51093,175.43082,237.50414z M263.10526,241.43056
		c-0.00021-0.06277-0.00043-0.12555-0.00064-0.18831c1.78186,0,3.60046,0.21101,5.3298-0.09048
		c0.84366-0.14708,1.52078-1.24976,2.27328-1.91991c-0.65674-0.56694-1.29163-1.59224-1.97379-1.62474
		c-3.75839-0.17908-7.53391-0.2272-11.28964-0.0406c-0.74521,0.037-1.42987,1.29349-2.14244,1.98763
		c0.6216,0.62549,1.18611,1.70322,1.87569,1.79033C259.12598,241.59064,261.12573,241.43056,263.10526,241.43056z
		 M110.36967,241.18651c-0.00018,0.03416-0.00037,0.06834-0.00055,0.10249c2.37775,0,4.762,0.09042,7.12748-0.08008
		c0.44675-0.0322,1.13862-1.10376,1.13558-1.69276c-0.00306-0.59271-0.73148-1.694-1.14205-1.694
		c-4.74709,0.00009-9.49647,0.12273-14.23719,0.36839c-0.40846,0.02116-1.10594,1.19673-1.03204,1.7511
		c0.06369,0.47789,1.01558,1.14934,1.61069,1.18843C106.00282,241.27277,108.18907,241.18651,110.36967,241.18651z
		 M202.28256,171.26593c0.02092-0.00009,0.04185-0.00018,0.06277-0.00027c0-2.18323,0.14589-4.38258-0.0925-6.53943
		c-0.06792-0.61436-1.18907-1.28288-1.95886-1.55814c-0.2766-0.09888-1.33899,0.86664-1.36377,1.37923
		c-0.18202,3.76472-0.2738,7.54001-0.1722,11.30598c0.01624,0.60205,1.14204,1.17418,1.75493,1.76015
		c0.58987-0.73839,1.51312-1.40417,1.69322-2.2318C202.49236,174.06651,202.28256,172.64337,202.28256,171.26593z
		 M201.78651,342.48724c0-1.57108,0.27478-3.01816-0.09677-4.27386c-0.24687-0.83435-1.41757-1.3952-2.17476-2.07846
		c-0.55434,0.67938-1.42526,1.28943-1.59258,2.05365c-0.28789,1.31516-0.47804,2.83252-0.09146,4.07233
		c0.58553,1.87775-1.79349,5.64044,2.25223,5.33554C203.12425,347.36725,201.16017,344.11322,201.78651,342.48724z
		 M244.05212,241.24983c-0.00015-0.00795-0.00027-0.0159-0.00043-0.02385c1.58859,0,3.20479,0.17134,4.75325-0.078
		c0.692-0.11143,1.78354-1.11685,1.73653-1.62859c-0.06548-0.71269-1.00456-1.88927-1.61266-1.91672
		c-3.17361-0.14325-6.3688-0.08838-9.53613,0.15877c-0.59589,0.04651-1.31577,1.21402-1.54335,1.99168
		c-0.09639,0.32933,0.88354,1.35172,1.45695,1.42673C240.86462,241.38373,242.46713,241.24983,244.05212,241.24983z
		 M198.21786,150.54556c0.23805,0.06238,0.47612,0.12476,0.71419,0.18713c0,1.97861-0.11308,3.968,0.07436,5.92867
		c0.05101,0.53365,0.99486,1.34354,1.552,1.36287c0.53146,0.01848,1.49612-0.77303,1.56915-1.30484
		c0.26819-1.95268,0.58699-4.00787,0.2413-5.90688c-0.40108-2.20328,1.72258-5.2984-1.96751-6.51106
		C199.67352,146.38283,198.94569,148.46419,198.21786,150.54556z M202.54175,303.93921
		c-1.49527-2.48703,0.97368-6.02097-2.34061-6.10574c-3.88098-0.09924-1.97592,3.54926-2.05814,5.548
		c-0.06754,1.64081-1.18033,4.60907,2.03685,4.41653C201.10687,307.74249,201.87852,305.08963,202.54175,303.93921z
		 M198.50943,132.27696c0.16185,0.04373,0.32368,0.08745,0.48553,0.13118c0,1.77127-0.11143,3.55386,0.06667,5.30704
		c0.05473,0.5387,0.92735,1.41328,1.37885,1.38518c0.54811-0.03413,1.42363-0.80998,1.49736-1.35439
		c0.23358-1.72481,0.13982-3.49207,0.20938-5.24146c0.09589-2.41185,0.94498-5.01992-1.82559-6.63907
		C199.71756,128.00262,199.11349,130.13979,198.50943,132.27696z M91.86831,237.76277
		c-0.00037,0.03775-0.00073,0.07553-0.00109,0.1133c-1.55908,0-3.13835-0.14056-4.66594,0.07883
		c-0.51138,0.07346-1.22115,1.05994-1.23098,1.63942c-0.00858,0.50493,0.82446,1.44978,1.31335,1.46834
		c3.11775,0.11819,6.24675,0.10272,9.36217-0.05925c0.4593-0.02385,1.21802-1.07021,1.1986-1.62093
		c-0.01954-0.55455-0.7828-1.47234-1.31445-1.54549C95.0016,237.62665,93.4256,237.76277,91.86831,237.76277z M299.86362,241.10329
		c1.37329,0,2.77744,0.16988,4.10687-0.07175c0.66388-0.12065,1.75681-1.1432,1.66367-1.49509
		c-0.19977-0.75484-1.00952-1.86261-1.62949-1.90292c-2.72983-0.17757-5.49109-0.14548-8.21759,0.08598
		c-0.70197,0.05957-1.31897,1.12061-1.97501,1.72159c0.64429,0.55229,1.22272,1.44197,1.94717,1.58345
		C297.08173,241.28282,298.49069,241.09799,299.86362,241.10329z M282.08237,241.13889c1.78854,0,3.2337,0.22188,4.56079-0.07846
		c0.87637-0.19832,1.58307-1.14705,2.36572-1.75981c-0.8428-0.61034-1.61334-1.54596-2.54565-1.75319
		c-1.32837-0.29526-2.79245-0.18854-4.1676-0.01201c-1.76474,0.22655-4.79285-1.23785-4.87598,1.67703
		C277.31201,242.98618,280.83871,240.25604,282.08237,241.13889z M315.26849,237.51488
		c-0.14981-0.245-0.29962-0.48997-0.44946-0.73499c-1.4014,0.90395-4.06458,1.94817-3.98251,2.68716
		c0.32849,2.95628,3.01816,1.28772,4.71674,1.62361c0.74191,0.14671,1.68631,0.1496,2.29993-0.20076
		c0.53424-0.30504,1.01581-1.20937,0.9928-1.82925c-0.01968-0.52972-0.69693-1.27567-1.24973-1.48384
		C316.90982,237.31833,316.05219,237.51488,315.26849,237.51488z"/>
	<path style="&st20;" d="M526.39667,368.72479c-5.44434-5.17322-10.9245-10.30942-16.32028-15.53284
		c-3.53308-3.42026-6.94403-6.96677-10.47363-10.52118c0.67154-0.50089,0.91718-0.79608,1.22568-0.89523
		c1.52908-0.49133,3.07471-0.93094,4.61456-1.38876c-1.54761-0.48386-3.12408-1.44623-4.63699-1.35492
		c-3.46478,0.20917-5.89725-0.96811-8.36432-3.45358c-20.91037-21.06631-41.96027-41.99411-62.9826-62.94907
		c-8.17752-8.15131-16.42581-16.23199-24.55545-24.4306c-1.3399-1.35127-2.2327-3.14619-3.33215-4.7361
		c29.99649,0.23407,59.99316,0.44359,89.98935,0.71463c11.51685,0.10405,23.03244,0.34839,34.5488,0.52922
		c0.12598,3.15672,0.25183,6.313,0.37762,9.46928c-0.03876,0.4106-0.07751,0.8212-0.11633,1.23178
		c0.02563,0.77916,0.05133,1.5583,0.0769,2.33745c-0.0835,11.73309-0.21869,23.46613-0.237,35.19934
		c-0.02112,13.5372,0.03284,27.07474,0.11963,40.61169c0.0191,2.98325,0.14539,5.79727-4.22656,5.13708
		c-0.17065-0.02576-0.54529,1.3009-0.82489,1.99738c1.57666,0.40927,3.15332,0.81857,4.72998,1.22784
		C526.13818,350.85373,526.26746,359.78928,526.39667,368.72479z M514.3775,342.10049
		c0.68951-0.41556,1.86005-1.12097,3.03052-1.82639c-1.28241-0.55597-2.52307-1.28851-3.862-1.60553
		c-0.88397-0.20929-1.94101,0.07297-2.85629,0.34863c-0.39102,0.11777-0.88092,0.79855-0.85245,1.1889
		c0.03418,0.46838,0.48709,1.14713,0.91223,1.29593C511.64023,341.81396,512.63147,341.8385,514.3775,342.10049z"/>
	<path style="&st21;" d="M402.47571,240.99535c19.72699-19.74199,39.46097-39.47701,59.17322-59.23373
		c2.84564-2.85205,5.56851-5.7798,10.24899-4.5899c0.5275,0.13409,1.27213-0.58675,1.91611-0.91112
		c-0.39804-0.55122-0.70517-1.47072-1.20856-1.59509c-3.8573-0.95284-1.2662-2.47168-0.24243-3.50291
		c6.74243-6.79109,13.60513-13.46257,20.35437-20.24699c10.83191-10.8884,21.60626-21.83414,32.40356-32.75445
		c0.37219,2.25028,1.04236,4.4957,1.07025,6.74909c0.15753,12.72205,0.16089,25.44598,0.2168,38.16928
		c-0.10455,2.37442-0.2124,4.74872-0.31262,7.12335c-0.08728,2.06923,0.72021,4.67682-2.9549,4.47319
		c-0.39508-0.02188-1.29663,1.18721-1.18164,1.61505c0.20306,0.7554,0.99512,1.90199,1.56366,1.91551
		c2.63116,0.06259,2.65131,1.66339,2.64435,3.60075c-0.07196,20.03734-0.10126,40.07483-0.1424,60.11227
		c-7.35358,0.02551-14.70712,0.06299-22.06076,0.07455c-32.20236,0.05066-64.40472,0.11044-96.60706,0.09094
		C405.72949,242.08415,404.10269,241.37485,402.47571,240.99535z M512.34949,174.31073
		c0.00012,0.0587,0.00018,0.11743,0.00024,0.17615c-1.58917,0-3.19324-0.12344-4.75989,0.06461
		c-0.57562,0.06908-1.41092,0.82053-1.49478,1.35928c-0.08771,0.56377,0.54227,1.76265,0.9328,1.79533
		c3.3537,0.28076,6.72446,0.42377,10.08951,0.4131c0.38922-0.00125,1.20013-1.30858,1.06342-1.80186
		c-0.21143-0.76329-0.97662-1.75671-1.67651-1.91843C515.18304,174.09363,513.74121,174.31073,512.34949,174.31073z
		 M496.05762,177.70868c0.00052-0.02002,0.00098-0.04005,0.0015-0.06007c1.37051,0,2.75558,0.11629,4.10492-0.05267
		c0.60745-0.07605,1.14362-0.72142,1.71213-1.10847c-0.51904-0.67287-1.01288-1.89999-1.56152-1.925
		c-2.73062-0.12463-5.48218-0.01155-8.21048,0.21141c-0.57031,0.0466-1.07397,0.90955-1.60831,1.39627
		c0.67847,0.51285,1.29446,1.3027,2.05011,1.47328C493.66452,177.89584,494.88214,177.70868,496.05762,177.70868z
		 M482.11682,174.64822c-1.42783,0.56482-4.06723-1.84862-4.38931,1.47713c-0.034,0.35086,3.14276,1.34413,4.85843,1.42358
		c1.26831,0.05876,2.58298-0.88391,3.87701-1.38043c-1.21597-0.54988-2.42743-1.11014-3.65363-1.63614
		C482.66068,174.46858,482.43274,174.58968,482.11682,174.64822z"/>
	<path style="&st14;" d="M537.19482,320.18216c-1.27661,6.18686-2.55322,12.37372-3.82935,18.55997
		c-3.14343,0.00488-4.94836-0.66486-4.82898-4.71341c0.37463-12.7088,0.29028-25.4335,0.24792-38.15161
		c-0.04236-12.70731-0.24841-25.41406-0.38275-38.12109c0.11737-4.30347,0.23474-8.60696,0.35211-12.91045
		c4.56-0.22987,9.12079-0.67076,13.67993-0.65515c28.25946,0.09682,56.51886,0.26305,84.77771,0.48134
		c8.71667,0.06732,17.43158,0.36943,26.14734,0.56404c-18.58691,18.60851-37.16699,37.22389-55.76337,55.82292
		c-11.13361,11.13519-22.25427,22.28391-33.47693,33.3288c-1.94556,1.91476-4.37103,3.34161-6.57458,4.99387
		c-2.36053-0.00003-4.72131-0.00003-7.08203-0.00003c-0.02545,0.60248-0.0509,1.20493-0.07635,1.8074
		c1.5415,0.13193,3.08295,0.26382,4.62439,0.39575c0.15985,0.22351,0.35669,0.26312,0.58496,0.11722
		c-0.24725,0.7807-0.48901,1.56287-0.73071,2.345c-4.73352,4.47525-9.4671,8.95044-14.19977,13.42575
		c-0.80048-3.69052-1.83392-7.34967-2.34094-11.08038c-0.55377-4.07513-0.34106-4.0993,3.97638-4.39465
		c0.78723-0.05383,1.57068-0.16321,2.36255-0.24725c0.26355-0.54666,0.52045-1.09305,0.7774-1.63937l0.28467-0.21448
		l-0.31561-0.08603c-0.07703-0.2901-0.25598-0.48801-0.53674-0.59384c-7.30103-1.44873-7.35205-1.45129-6.97144-9.09366
		c0.16534-3.3204,0.58929-6.62787,0.89349-9.94052c0.64215-2.86105,1.28674-5.72284,1.93121-8.58463
		c-0.58557-0.1283-1.1712-0.25659-1.75684-0.38483C538.37726,314.20258,537.78601,317.19235,537.19482,320.18216z"/>
	<path style="&st13;" d="M620.98529,209.76193c10.69672,10.79582,21.39349,21.59161,32.09021,32.38744
		c-23.88879-0.01213-47.77759,0.00421-71.66626-0.04585c-17.53021-0.03674-35.0603-0.16054-52.59039-0.24554
		c-0.00586-19.74736-0.00623-39.49472-0.02509-59.2421c-0.00214-2.21202-0.43103-4.56844,3.13605-4.2654
		c0.5329,0.04526,1.61102-1.20764,1.64001-1.89371c0.02545-0.60146-1.06903-1.78737-1.66779-1.78667
		c-2.82465,0.00331-3.26184-1.54509-3.08179-3.86299c0.13824-1.77985,0.05756-3.57674,0.07428-5.36604
		c0.00995-1.17819,0.01996-2.35638,0.02997-3.53458c-0.01337-9.20888-0.02667-18.41777-0.03992-27.62666
		c0.12939-0.11296,0.38385-0.25412,0.36591-0.33382c-0.06561-0.29094-0.22211-0.56137-0.34436-0.83951
		c0.02899-2.01668,0.05798-4.03334,0.08704-6.05001c-0.04395-0.77981-0.08783-1.5596-0.13177-2.3394
		c0.00592-0.81017,0.01196-1.62035,0.01788-2.4305c1.48212,0.00436,2.96411,0.00872,4.44617,0.0131
		c0,0,0.07153,0.0694,0.07123,0.06909c0.38428,0.36986,0.76892,0.74002,1.1535,1.1102c0,0,0.05786,0.05196,0.05756,0.0517
		c0.38281,0.38224,0.76587,0.76473,1.14893,1.14725c5.42236,5.23558,10.90302,10.41237,16.25488,15.7191
		c10.86334,10.77168,21.64581,21.62491,32.49329,32.41275c1.39301,1.38533,1.73718,2.20784-0.70392,2.30389
		c-1.03577,0.09081-2.07202,0.18182-3.10822,0.27283c-0.31647-0.00087-0.51471-0.15443-0.59467-0.46072
		c-1.19537-1.41888-2.37799-1.44685-3.54669,0.03259c0.0152,1.17853,0.03033,2.35706,0.04547,3.53558
		c1.56903,1.9334,3.11884,2.00414,4.64673-0.048l-0.05475,0.04918c1.06683-0.03133,2.13367-0.06267,3.2005-0.09401
		c0.29919-0.09146,0.47845,0.01645,0.5379,0.32375c2.03442,0.35558,4.06866,0.71107,6.10297,1.06659
		c9.15649,9.22485,18.31299,18.44971,27.46918,27.6743c0.38501,0.3793,0.77026,0.75885,1.15552,1.1384
		c0,0,0.06232,0.05457,0.06195,0.05426C620.1394,209.02608,620.56238,209.39401,620.98529,209.76193z M557.32007,175.10516
		c-3.17554-2.49194-6.36462-1.4169-9.55481-0.03622c-0.88794-1.966-1.77588-3.93202-2.66382-5.89803
		c-1.23334-3.21866-2.67322-6.26611-6.57526-7.36163c1.80499,2.93204,3.60999,5.86404,5.41498,8.79607
		c0.05524,1.05643,0.11047,2.11285,0.16595,3.16878c-2.15735,0.42555-4.3147,0.85109-6.47205,1.27663
		c-0.05255,0.83995-0.10504,1.6799-0.15753,2.51987c0.52399,0.24954,1.04797,0.49907,1.57196,0.74861
		c1.71027,0.05603,3.42047,0.11209,5.13074,0.16814c1.01459,6.78951,0.47156,13.52733-1.76373,19.94052
		c-0.97754,2.80443-1.16248,6.91577-5.79706,7.19205c-0.47101,0.02808-1.10602,1.54861-1.22552,2.43579
		c-0.35602,2.6429-0.49304,5.31529-0.73889,8.25352c6.80347-2.4386,6.87848-2.59966,8.04065-8.97896
		c0.20404-1.12029,1.16327-2.08109,1.56891-3.19049c1.2832-3.50945,3.04425-6.97369,3.55396-10.60522
		c0.70844-5.04739,0.4505-10.23051,0.61633-15.35713c0.53741-0.63396,1.07489-1.26793,1.6123-1.9019
		c0.08905,0.6483,0.17804,1.29659,0.26703,1.94489c2.23737,2.49626,4.56982,2.23267,6.96191,0.24011l-0.0802,0.06473
		c1.65173,0.03831,3.30347,0.07663,4.9552,0.11494l0.0271,0.01611c3.61188,1.68768,7.18567,2.43642,10.61273-0.43085
		c-0.35443-1.09372-0.70886-2.18742-1.06335-3.28114c-0.76807-0.08757-1.53607-0.17511-2.30414-0.26266
		c-0.85681-0.0054-1.71356-0.01079-2.57037-0.0162c-1.40839-0.18718-2.81677-0.37437-4.2251-0.56155
		c-0.40326,0.34776-0.80646,0.69551-1.21112,1.04257c-1.36627-0.01648-2.7326-0.03294-4.09888-0.04939L557.32007,175.10516z"/>
	<path style="&st18;" d="M528.81885,241.85797c17.53009,0.08501,35.06018,0.2088,52.59039,0.24554
		c23.88867,0.05006,47.77747,0.03372,71.66626,0.04585c1.55829,0.89432,2.31024,1.86269,0.28333,3.08641
		c-8.71582-0.1946-17.43073-0.4967-26.1474-0.56403c-28.25885-0.21829-56.51825-0.38452-84.77771-0.48134
		c-4.55914-0.01561-9.11993,0.42528-13.68005,0.65536C528.77533,243.84999,528.79712,242.85399,528.81885,241.85797z"/>
	<path style="&st18;" d="M402.47571,240.99532c1.62698,0.37953,3.25378,1.08884,4.88095,1.08983
		c32.20233,0.0195,64.40469-0.04028,96.60706-0.09094c7.35364-0.01157,14.70718-0.04904,22.06076-0.07455
		c0.02826,0.92876,0.05658,1.85753,0.0849,2.7863c-11.51611-0.18042-23.03171-0.42476-34.54855-0.52881
		c-29.99619-0.27104-59.99286-0.48056-89.98935-0.71463C401.87289,242.64011,402.17432,241.81772,402.47571,240.99532z"/>
	<path style="&st22;" d="M533.40106,341.56735c1.17017,6.77316,2.34033,13.54633,3.51147,20.31882
		c-2.70129,2.42984-5.40363,4.86044-8.10596,7.29102c-0.01422-9.09265-0.02838-18.18524-0.04199-27.27829
		C530.31049,341.78815,531.85577,341.67776,533.40106,341.56735z"/>
	<path style="&st23;" d="M528.9931,127.0565c-0.02899,2.01667-0.05798,4.03333-0.08698,6.05003
		c-0.0072,0.39111-0.0144,0.78221-0.02155,1.17331c0.01324,9.20889,0.02655,18.41779,0.03992,27.62659
		c-0.12823,0.38913-0.25647,0.77832-0.38464,1.1675c-0.71063,0.00186-1.4212,0.00371-2.13184,0.0056
		c-0.05591-12.7233-0.05927-25.44724-0.2168-38.16928c-0.02789-2.25339-0.69806-4.49881-1.07025-6.74909
		c1.18396-0.19908,2.36658-0.39699,3.54938-0.59509c0.06982,1.57338,0.1394,3.14696,0.20892,4.72054
		c-0.00592,0.81016-0.01196,1.62034-0.01794,2.43052C528.90527,125.49691,528.94922,126.27671,528.9931,127.0565z"/>
	<path style="&st18;" d="M528.76398,341.89929c0.01422,9.09265,0.02838,18.18524,0.0426,27.27789
		c-0.80328-0.15079-1.60657-0.30161-2.40991-0.45239c-0.12921-8.93552-0.25848-17.87106-0.38837-26.80704
		C526.92639,341.91129,527.84515,341.90527,528.76398,341.89929z"/>
	<path style="&st23;" d="M555.00989,341.5845c-1.54144-0.13193-3.08289-0.26382-4.62439-0.39575
		c0.02545-0.60248,0.0509-1.20493,0.07635-1.8074c2.36072,0,4.7215,0,7.08209,0.00003
		C556.69904,340.11578,555.85449,340.85013,555.00989,341.5845z"/>
	<path style="&st4;" d="M528.87933,122.28659c-0.06958-1.57358-0.13916-3.14716-0.20898-4.72054
		c1.5517,1.57816,3.10364,3.15614,4.65533,4.73388C531.84338,122.29531,530.36139,122.29095,528.87933,122.28659z"/>
	<path style="&st4;" d="M584.38928,178.40112c-1.06683,0.03134-2.13367,0.06268-3.20056,0.09406
		c-0.16534-1.03621-0.33069-2.07243-0.49609-3.10867c1.03625-0.091,2.07251-0.18202,3.10828-0.27283
		C583.99677,176.20964,584.19299,177.30539,584.38928,178.40112z"/>
	<path style="&st4;" d="M591.03015,179.79146c-2.0343-0.35551-4.06854-0.71101-6.10297-1.06659
		C586.96143,179.08037,588.99579,179.43591,591.03015,179.79146z"/>
	<path style="&st23;" d="M554.86414,344.04678c0.2417-0.7822,0.48346-1.56436,0.73071-2.34506
		C555.35498,342.48444,555.10962,343.26559,554.86414,344.04678z"/>
	<path style="&st4;" d="M619.65485,208.60416c-0.38525-0.37955-0.77051-0.75909-1.15552-1.1384
		C618.8847,207.84538,619.26978,208.22476,619.65485,208.60416z"/>
	<path style="&st4;" d="M535.75665,124.67792c-0.38306-0.3825-0.76611-0.76499-1.14893-1.14723
		C534.99091,123.91327,535.37378,124.2956,535.75665,124.67792z"/>
	<path style="&st4;" d="M534.55017,123.47898c-0.38458-0.37018-0.76923-0.74034-1.1535-1.1102
		C533.78137,122.73906,534.16577,123.10902,534.55017,123.47898z"/>
	<path style="&st4;" d="M620.98529,209.76193c-0.42291-0.36792-0.84589-0.73586-1.26849-1.10352
		C620.13989,209.02646,620.56262,209.39421,620.98529,209.76193z"/>
	<path style="&st4;" d="M998.29865,319.06937c5.89966,4.47665,12.3172,7.4606,16.05109,13.59213
		c0.8349,1.37103,1.78088,3.70636,1.18243,4.64917c-0.69604,1.09662-3.03723,1.59174-4.66003,1.58261
		C1001.91852,338.84311,995.75659,329.60712,998.29865,319.06937z"/>
	<path style="&st22;" d="M435.03854,82.40595c8.30051,2.65567,14.42532,7.90028,19.10632,15.23545
		c5.14923,8.06884,2.14511,17.97157-4.93259,22.60721c-5.23553,3.42906-11.14954,6.0174-17.05569,8.17317
		c-6.43732,2.34964-12.82928,1.0321-17.55765-4.03799c-5.13528-5.50645-7.30429-12.19748-5.02673-19.80774
		c2.13522-7.13485,6.89606-12.37878,12.2991-17.16595C426.15573,85.4669,429.73352,81.66254,435.03854,82.40595z
		 M433.89923,91.10398c3.56552,3.52068,3.79077,3.7785,0.64255,7.14902c-3.93503,4.21287-8.33167,7.99059-12.4191,12.06642
		c-1.68051,1.67573-3.26428,3.52264-4.49634,5.53422c-0.43338,0.70763-0.03418,2.509,0.62558,3.13181
		c0.60522,0.57135,2.19843,0.55619,3.12787,0.20107c1.05179-0.40186,1.76962-1.59786,2.77289-2.2234
		c2.35764-1.46995,4.3978-1.968,6.823,0.54739c3.93665,4.08318,7.88068,3.78219,11.73715-0.42047
		c1.52426-1.66105,3.8125-3.44036,2.12601-5.94536c-0.25989-0.38602-3.93698,0.87654-5.42035,2.11303
		c-2.59009,2.15897-4.40775,1.91161-6.57501-0.4481c-0.85956-0.93588-2.35104-1.29094-3.78003-2.02633
		c2.86438-2.72634,4.59091-4.1137,5.9986-5.77192c1.92319-2.26543,3.96017-4.55342,5.30331-7.16386
		c1.93808-3.7666,0.54495-6.30463-3.77896-8.08417c-0.4649-0.59325-0.8273-1.55799-1.41144-1.71935
		c-3.74591-1.03474-11.90179,3.87868-12.8389,7.67628c-0.10892,0.44145,0.20142,1.37491,0.47708,1.44417
		c0.62628,0.15735,1.82397,0.12821,1.96564-0.19099C426.55173,92.97928,430.45056,92.40755,433.89923,91.10398z"/>
	<path style="&st11;" d="M435.03854,82.40595c-5.30502-0.74342-8.88281,3.06094-13.16724,5.00415
		c-0.40271-0.55132-0.80554-1.10244-1.20822-1.65331c1.91492-0.80222,3.82965-1.6047,6.89542-2.8896
		c-2.28079-0.26719-3.37903-0.39584-4.47729-0.5245C427.07458,80.92879,431.06125,80.77427,435.03854,82.40595z"/>
	<path style="&st22;" d="M423.08121,82.34269c1.09827,0.12867,2.1965,0.25732,4.47729,0.52451
		c-3.06577,1.2849-4.9805,2.08738-6.89542,2.8896c-0.65005,0.1559-1.29993,0.31206-1.9342,0.47575
		c-0.61087-0.46769-1.23737-0.94289-1.86401-1.41825C418.93686,83.99033,421.00906,83.1665,423.08121,82.34269z"/>
	<path style="&st22;" d="M765.02264,106.15021c0.44653-2.76801,0.66644-6.81622,1.85559-10.55593
		c0.78693-2.47437,2.50977-5.18343,4.61304-6.59695c4.56635-3.06884,9.48389-5.76154,14.56171-7.8785
		c4.65027-1.93871,8.95538-0.22377,12.47833,3.32243c9.44617,9.50874,8.3645,23.96861-2.82953,32.29076
		c-3.59955,2.67603-7.89807,4.77371-12.19794,6.07072C773.92297,125.6927,765.22736,118.15663,765.02264,106.15021z
		 M779.1369,90.53306c0.16473,0.42454,0.32959,0.84908,0.49432,1.27363c1.85834-0.4871,3.70123-1.25419,5.58093-1.35863
		c1.16974-0.06501,3.03772,0.58475,3.4198,1.43873c0.40308,0.9011-0.32422,2.61645-1.04932,3.62087
		c-0.62567,0.86656-1.87976,1.41841-2.96545,1.78426c-2.24957,0.75799-5.66626,1.19109-4.84467,4.09896
		c0.99683,3.52852,4.18176,1.39119,6.61304,1.02278c1.41254-0.21402,3.56116-0.21896,4.24103,0.61265
		c0.77179,0.94412,0.66266,3.04452,0.24493,4.43427c-0.83728,2.78581-2.93231,4.18624-5.95911,3.75409
		c-1.84143-0.26292-3.67047-0.61333-6.00781-1.00969c3.10828,5.55753,5.15076,6.78257,9.02997,5.89399
		c6.71594-1.53838,10.3739-10.69006,6.30597-16.23872c-1.20984-1.6503-2.05743-2.67406-1.52222-5.08547
		c1.02496-4.61765-2.18701-7.83041-6.88507-7.11253C783.50922,88.01735,781.3634,89.53914,779.1369,90.53306z"/>
	<path style="&st18;" d="M528.40167,257.75601c0.13434,12.70703,0.34039,25.41379,0.38275,38.12109
		c0.04236,12.71811,0.12671,25.44281-0.24792,38.15161c-0.11938,4.04855,1.68555,4.71829,4.82898,4.71341
		c-0.1347,0.30316-0.23334,0.61685-0.2973,0.94043c-3.93018,0.33508-7.85968,0.67148-11.78918,1.00781
		c0.2796-0.69647,0.65424-2.02313,0.82489-1.99738c4.37195,0.66019,4.24567-2.15384,4.22656-5.13708
		c-0.08679-13.53696-0.14075-27.07449-0.11963-40.61169c0.01831-11.73322,0.1535-23.46625,0.237-35.19937
		C527.09912,257.74857,527.75037,257.75229,528.40167,257.75601z"/>
	<path style="&st6;" d="M521.27899,340.69037c3.9295-0.33633,7.85901-0.67273,11.78918-1.00781
		c0.1109,0.6293,0.22107,1.25729,0.33209,1.88507c-1.54449,0.11014-3.08978,0.22052-4.63568,0.33127
		c-0.91943,0.00638-1.8382,0.01239-2.75629,0.01886C524.43231,341.50894,522.85565,341.09964,521.27899,340.69037z"/>
	<path style="&st11;" d="M537.19482,320.18216c0.59119-2.98981,1.18243-5.97958,1.77368-8.96933
		c0.58563,0.12823,1.17126,0.25653,1.75684,0.38483c-0.64447,2.86179-1.28906,5.72357-1.93121,8.58463
		C538.26257,320.18173,537.7287,320.18198,537.19482,320.18216z"/>
	<path style="&st6;" d="M545.43976,340.11081c-0.25696,0.54633-0.51385,1.09271-0.7774,1.63937
		c-2.00659-0.24579-4.00653-0.49191-6.00653-0.73798c-0.02301-0.37604-0.04602-0.75204-0.06903-1.12802
		c2.09729-0.22134,4.19464-0.44269,6.28857-0.66586c0.27747,0.10397,0.45642,0.30188,0.53235,0.58972
		C545.40674,339.80579,545.43976,340.11081,545.43976,340.11081z"/>
	<path style="&st24;" d="M100.61229,110.32568c-0.02467-4.009-0.04935-8.01797-0.07413-12.02692
		c1.31566-4.39706,2.87163-8.3736,6.90868-11.41648c8.8485-6.66945,21.94958-5.70541,29.22516,5.32693
		c1.80128,2.7314,2.37395,6.87241,2.09314,10.24737c-0.49786,5.9841-2.20213,11.81158-8.11996,15.10936
		c-0.07152-1.92327-0.54083-3.47759-2.88323-3.68388c-1.73019-0.15239-4.19714,0.11266-4.98286-0.87998
		c-1.07308-1.35567-0.98947-3.71736-1.17121-5.66927c-0.31357-3.36791-0.45876-6.75183-0.65714-10.13007
		c-0.15171-2.58331-0.05738-5.20785-0.51418-7.73412c-0.20053-1.10909-1.50011-2.01932-2.30064-3.01984
		c-0.73366,1.01321-2.04553,1.99717-2.09849,3.04481c-0.20367,4.0291-1.84254,6.96218-6.67806,8.76701
		c2.96506,1.0607,5.77972,1.22109,6.46109,2.51001c1.01869,1.927,0.53436,4.6482,0.69357,7.0313
		c0.0531,0.79493,0.01408,1.61417,0.1973,2.37911c0.79957,3.33825-0.44173,5.21669-3.78973,6.05973
		c-1.70519,0.4294-3.26308,1.44423-4.88757,2.19442c0.14597,0.36796,0.29193,0.73592,0.4379,1.10387
		c7.41423-0.68074,14.82847-1.36147,22.24271-2.04221c-1.31512,4.6386-7.24711,8.65591-12.81155,8.86545
		c-8.02437,0.30215-12.11029-4.861-15.44416-11.02279C101.62008,113.7891,101.21611,112.00329,100.61229,110.32568z"/>
	<path style="&st18;" d="M863.14752,254.20055c0.66412,0.38478,1.32819,0.76955,1.99231,1.15416
		c0.08423,12.40424,0.1684,24.80865,0.25256,37.21307c-0.67938,0.02542-1.3587,0.05087-2.03802,0.07626
		C863.28534,279.82956,863.21643,267.01505,863.14752,254.20055z"/>
	<path style="&st6;" d="M863.35437,292.64404c0.67932-0.02539,1.35864-0.05084,2.03802-0.07626
		c0.00812,2.79785,0.01617,5.59567,0.02429,8.39349c-0.664-0.03314-1.32788-0.06628-1.99194-0.09946
		C863.40125,298.12256,863.37775,295.3833,863.35437,292.64404z"/>
	<path style="&st18;" d="M863.4248,300.86182c0.664,0.03317,1.32788,0.06631,1.99188,0.09946
		c0.01154,0.39301,0.02301,0.78604,0.03455,1.17905c-0.69476,0.03513-1.38928,0.07022-2.08386,0.10538
		C863.38654,301.78439,863.40564,301.32309,863.4248,300.86182z"/>
	<path style="&st9;" d="M232.63269,241.00639c-2.06058,0.14836-4.13065,0.49449-6.17937,0.39603
		c-2.68135-0.12888-3.44046,1.01454-3.32336,3.52965c0.12305,2.64339,1.44829,3.53642,3.80692,3.14066
		c4.26724-0.71603,8.51387-1.55479,12.76913-2.34232l-0.05251,0.04694c-2.07632,4.8862-6.85727,6.61595-11.08163,8.18425
		c-4.53076,1.68207-5.95085,4.21046-6.31816,8.66673c-0.35645,4.32504-1.76715,8.55563-2.56194,12.85596
		c-0.2784,1.50632-0.77174,3.71964-0.01257,4.53638c2.68776,2.89157,0.51558,4.09485-1.40388,5.47757
		c-2.06558,1.48804-4.21338,2.86182-7.03386,4.76306c-0.26001-3.0752-0.49304-5.55243-0.67207-8.03357
		c-0.15538-2.15344-0.8051-4.60751,2.99284-4.04486c0.57002,0.08444,1.82387-1.37485,2.00946-2.27512
		c1.08173-5.24704,1.98434-10.53293,2.85075-15.82156c0.36621-2.23535-0.94449-2.67252-2.88837-2.43967
		c-4.34857,0.521-8.70947,0.93903-13.06473,1.39844c-1.54951-0.01654-3.09962-0.0325-4.64975-0.04843
		c-8.33464-1.59125-16.67416-3.1579-24.99699-4.8087c-0.91177-0.18088-1.72771-0.8454-2.58791-1.28555
		c1.16254-0.36012,2.32492-0.72029,3.48726-1.08049c10.45526,2.37282,20.99361,3.81415,31.74588,2.79266
		c4.64601-0.44139,9.39082-0.4005,14.71338-2.61519c-2.047-1.19159-3.27831-1.90834-4.49232-2.61504
		c0.14761-0.44691,0.2153-1.0087,0.35703-1.02805c2.53539-0.34621,4.27074-1.61137,3.44398-4.28653
		c-1.0135-3.2795-0.89449-6.4086-0.43875-9.74254c0.27278-1.99557-0.59883-4.14771-1.28839-6.18335
		c-2.06229,7.44559-2.29811,15.40535-9.0625,21.06221c0.40845-2.56529,0.81691-5.13057,1.2253-7.69591
		c0.38188-1.3466,0.76387-2.69316,1.14583-4.0397c0.63715-2.43027,1.64003-4.82973,1.84764-7.29619
		c0.86328-10.2558-0.38234-20.20625-5.04332-29.54878c-0.31274-0.62692-0.47063-1.33115-0.21675-2.23666
		c4.6786,5.43604,8.27596,11.57895,10.44022,18.29335c2.17645,6.7522,3.33662,13.8322,4.94125,20.76819
		c-0.27606,1.62192-0.63809,3.29469,1.87274,3.3606C227.48628,240.87836,230.05949,240.94139,232.63269,241.00639z
		 M228.09254,250.43286c-0.24026-0.45172-0.48051-0.90344-0.72075-1.35515c-1.25916,0.50723-2.51831,1.01447-3.77747,1.5217
		c0.1779,0.44344,0.35577,0.88684,0.53366,1.33028C225.44951,251.43074,226.77103,250.93181,228.09254,250.43286z"/>
	<path style="&st23;" d="M211.07138,237.47035c-0.38196,1.34654-0.76395,2.6931-1.14583,4.0397
		c-0.99278-0.08319-1.98607-0.24248-2.97842-0.23671c-4.69751,0.02725-4.6953,0.0433-4.71419,4.97987
		c-0.00383,0.99489,0.27164,2.1395-0.12717,2.94467c-0.4456,0.89964-1.5126,1.49129-2.30916,2.217
		c-0.43085-0.78912-1.09213-1.53531-1.2484-2.3755c-0.43161-2.32065,0.14047-5.46994-1.18265-6.79951
		c-1.28345-1.28969-4.46518-0.55724-6.73581-1.06168c-0.88513-0.19664-1.55879-1.34595-2.32877-2.06134
		c0.82199-0.56548,1.58498-1.47672,2.47745-1.6291c2.31186-0.39473,5.53133,0.38582,6.78752-0.88565
		c1.25436-1.26964,0.42783-4.48209,0.79459-6.79826c0.15382-0.97136,1.03104-1.82806,1.57938-2.73691
		c0.78859,0.96667,1.99806,1.8253,2.27942,2.9222c0.61264,2.38828-0.0602,5.69853,1.33324,7.11372
		c1.19093,1.20949,4.53122,0.30045,6.92075,0.33096C210.67279,237.43636,210.87204,237.45772,211.07138,237.47035z"/>
	<path style="&st25;" d="M131.47614,241.27412c-2.18387,0-4.38545,0.15184-6.53988-0.10007
		c-0.5844-0.06831-1.22195-1.30467-1.4341-2.11058c-0.08103-0.30785,0.95148-1.30539,1.49402-1.31955
		c5.16726-0.13501,10.33979-0.18701,15.50576-0.05917c0.48605,0.01205,1.16466,1.37746,1.30679,2.1925
		c0.06818,0.39101-0.89006,1.36462-1.41508,1.38887c-2.96698,0.1371-5.94356,0.06625-8.91685,0.06625
		C131.47656,241.31297,131.47635,241.29355,131.47614,241.27412z"/>
	<path style="&st26;" d="M201.76682,322.32361c0,2.19302,0.18196,4.40933-0.09402,6.56708
		c-0.1032,0.80679-1.27362,1.47699-1.95744,2.20947c-0.6283-0.60602-1.78773-1.20102-1.80057-1.81979
		c-0.09903-4.7822-0.04028-9.57153,0.15097-14.35141c0.02682-0.67038,1.03996-1.30121,1.59654-1.95035
		c0.65419,0.72824,1.7887,1.40549,1.87248,2.19437c0.25064,2.36005,0.09009,4.76379,0.09009,7.15048
		C201.67218,322.32352,201.7195,322.32355,201.76682,322.32361z"/>
	<path style="&st23;" d="M198.60933,191.75847c0-2.16545-0.12874-4.343,0.07292-6.48947
		c0.06665-0.70934,0.9855-1.33853,1.51471-2.00436c0.70303,0.56549,1.69643,0.99794,2.03226,1.73163
		c0.3812,0.83273,0.22148,1.93536,0.21379,2.92003c-0.02782,3.56485-0.00441,7.13455-0.21616,10.68956
		c-0.03999,0.67136-1.02841,1.7379-1.65108,1.79184c-0.58676,0.05083-1.76283-0.94748-1.82037-1.56445
		c-0.21825-2.34003-0.08784-4.71262-0.08784-7.07301C198.64816,191.75964,198.62874,191.75906,198.60933,191.75847z"/>
	<path style="&st23;" d="M201.74898,287.16531c0,1.18939,0.24991,2.45398-0.07819,3.54459
		c-0.26775,0.89001-1.2261,1.57214-1.87823,2.34647c-0.61427-0.86179-1.72411-1.70523-1.75684-2.58859
		c-0.14006-3.7793-0.10225-7.5813,0.19147-11.34998c0.07965-1.02206,1.28246-1.95651,1.96976-2.93118
		c0.50371,0.89297,1.32637,1.74384,1.45085,2.68692c0.36142,2.73828,0.4429,5.51352,0.63422,8.27426
		C202.10434,287.15363,201.92667,287.15945,201.74898,287.16531z"/>
	<path style="&st23;" d="M202.38451,213.64626c0.00388,2.19444,0.19972,4.41534-0.09279,6.56992
		c-0.11656,0.85858-1.3127,1.57051-2.01735,2.34918c-0.56595-0.67285-1.60123-1.33192-1.62144-2.02078
		c-0.1283-4.37625-0.10901-8.76215,0.06601-13.13669c0.02867-0.71603,1.06908-1.39159,1.64189-2.08585
		c0.67328,0.77953,1.79941,1.49133,1.92804,2.35229C202.58041,209.62593,202.38065,211.65096,202.38451,213.64626z"/>
	<path style="&st25;" d="M154.42979,237.58691c1.7699,0,3.55792-0.14464,5.30045,0.07382
		c0.66225,0.08302,1.76064,1.07275,1.70103,1.52185c-0.09421,0.71017-0.96382,1.83888-1.56213,1.87611
		c-3.92046,0.24391-7.85681,0.29684-11.78633,0.25534c-0.52669-0.00557-1.53691-0.98898-1.46637-1.35371
		c0.16264-0.84067,0.77681-2.18144,1.34155-2.25229c2.12808-0.26691,4.30965-0.10713,6.47122-0.10713
		C154.42938,237.59624,154.4296,237.59157,154.42979,237.58691z"/>
	<path style="&st25;" d="M175.43085,237.50752c1.78305,0.0034,3.60709-0.21623,5.33003,0.10568
		c0.74535,0.1393,1.282,1.39624,1.91347,2.14551c-0.65707,0.50313-1.29698,1.41273-1.97406,1.44136
		c-3.54997,0.14995-7.1163,0.19609-10.6602-0.00998c-0.80066-0.04654-1.53465-1.24049-2.29933-1.90627
		c0.77925-0.59323,1.49995-1.56941,2.35005-1.69955C171.83406,237.3174,173.64674,237.50414,175.43085,237.50752z"/>
	<path style="&st18;" d="M197.8196,258.99649c1.55013,0.01596,3.10023,0.03192,4.64975,0.04846
		c-0.06297,3.1745,0.05365,6.36816-0.29254,9.51083c-0.10938,0.99277-1.31766,2.41687-2.26665,2.64963
		c-1.97691,0.48486-2.03833-1.16708-2.02794-2.66544C197.90425,265.3591,197.84534,262.1777,197.8196,258.99649z"/>
	<path style="&st25;" d="M263.10526,241.43056c-1.97952,0-3.97928,0.16008-5.92773-0.08609
		c-0.68958-0.08711-1.25409-1.16484-1.87569-1.79033c0.71257-0.69414,1.39723-1.95062,2.14244-1.98763
		c3.75574-0.1866,7.53125-0.13847,11.28964,0.0406c0.68216,0.0325,1.31705,1.0578,1.97379,1.62474
		c-0.7525,0.67015-1.42963,1.77283-2.27328,1.91991c-1.72934,0.3015-3.54794,0.09048-5.3298,0.09048
		C263.10483,241.30501,263.10504,241.36778,263.10526,241.43056z"/>
	<path style="&st23;" d="M110.36967,241.18651c-2.1806,0-4.36685,0.08626-6.53809-0.05643
		c-0.59511-0.03909-1.547-0.71054-1.61069-1.18843c-0.0739-0.55437,0.62358-1.72993,1.03204-1.7511
		c4.74072-0.24567,9.4901-0.3683,14.23719-0.36839c0.41057,0,1.13899,1.10129,1.14205,1.694
		c0.00304,0.589-0.68883,1.66057-1.13558,1.69276c-2.36548,0.1705-4.74973,0.08008-7.12748,0.08008
		C110.36931,241.25485,110.36949,241.22067,110.36967,241.18651z"/>
	<path style="&st26;" d="M202.28256,171.26593c0,1.37744,0.20979,2.80058-0.0764,4.11572
		c-0.1801,0.82762-1.10335,1.49341-1.69322,2.2318c-0.61288-0.58597-1.73869-1.1581-1.75493-1.76015
		c-0.10161-3.76598-0.00983-7.54126,0.1722-11.30598c0.02478-0.51259,1.08717-1.4781,1.36377-1.37923
		c0.76979,0.27525,1.89095,0.94377,1.95886,1.55814c0.23839,2.15685,0.0925,4.3562,0.0925,6.53943
		C202.32442,171.26575,202.30348,171.26584,202.28256,171.26593z"/>
	<path style="&st26;" d="M201.78651,342.48724c-0.62634,1.62598,1.33774,4.88-1.70334,5.10919
		c-4.04572,0.3049-1.6667-3.45779-2.25223-5.33554c-0.38658-1.23981-0.19643-2.75717,0.09146-4.07233
		c0.16731-0.76422,1.03824-1.37427,1.59258-2.05365c0.75719,0.68326,1.92789,1.24411,2.17476,2.07846
		C202.06129,339.46909,201.78651,340.91617,201.78651,342.48724z"/>
	<path style="&st25;" d="M244.05212,241.24983c-1.58499,0-3.1875,0.1339-4.74583-0.06998
		c-0.57341-0.07501-1.55334-1.0974-1.45695-1.42673c0.22758-0.77766,0.94746-1.94518,1.54335-1.99168
		c3.16733-0.24715,6.36252-0.30202,9.53613-0.15877c0.60809,0.02745,1.54718,1.20403,1.61266,1.91672
		c0.04701,0.51173-1.04453,1.51715-1.73653,1.62859c-1.54846,0.24934-3.16466,0.078-4.75325,0.078
		C244.05185,241.23393,244.05197,241.24188,244.05212,241.24983z"/>
	<path style="&st23;" d="M198.21786,150.54556c0.72783-2.08138,1.45566-4.16273,2.18349-6.24411
		c3.69009,1.21266,1.56644,4.30779,1.96751,6.51106c0.34569,1.899,0.02689,3.95419-0.2413,5.90688
		c-0.07303,0.53181-1.03769,1.32332-1.56915,1.30484c-0.55714-0.01933-1.50099-0.82922-1.552-1.36287
		c-0.18744-1.96066-0.07436-3.95006-0.07436-5.92867C198.69398,150.67032,198.45592,150.60794,198.21786,150.54556z"/>
	<path style="&st23;" d="M202.54175,303.93921c-0.66322,1.15042-1.43488,3.80328-2.36189,3.8588
		c-3.21718,0.19254-2.10439-2.77573-2.03685-4.41653c0.08221-1.99875-1.82285-5.64725,2.05814-5.548
		C203.51543,297.91824,201.04648,301.45218,202.54175,303.93921z"/>
	<path style="&st18;" d="M198.50943,132.27696c0.60406-2.13718,1.20813-4.27434,1.81219-6.41151
		c2.77057,1.61915,1.92148,4.22722,1.82559,6.63907c-0.06956,1.74939,0.0242,3.51665-0.20938,5.24146
		c-0.07373,0.5444-0.94925,1.32025-1.49736,1.35439c-0.45149,0.02811-1.32411-0.84648-1.37885-1.38518
		c-0.1781-1.75317-0.06667-3.53577-0.06667-5.30704C198.83311,132.36441,198.67128,132.32069,198.50943,132.27696z"/>
	<path style="&st8;" d="M161.64754,249.91711c-0.57214,1.27437-1.08163,2.77553-2.91711,1.59595
		c-0.80707-0.51866-1.58723-1.20183-2.12784-1.98438c-0.83504-1.20877-1.45389-2.56703-2.16441-3.86188
		c1.59863-0.34196,3.18277-0.80679,4.79924-0.99744c2.49045-0.2937,2.94673,1.2655,2.69704,3.30902
		C161.83879,248.62465,161.74316,249.27087,161.64754,249.91711z"/>
	<path style="&st23;" d="M91.86831,237.76277c1.55729,0,3.13329-0.13612,4.66166,0.07422
		c0.53165,0.07315,1.29491,0.99094,1.31445,1.54549c0.01942,0.55072-0.7393,1.59708-1.1986,1.62093
		c-3.11542,0.16197-6.24442,0.17744-9.36217,0.05925c-0.4889-0.01855-1.32193-0.96341-1.31335-1.46834
		c0.00983-0.57948,0.7196-1.56596,1.23098-1.63942c1.52759-0.21939,3.10686-0.07883,4.66594-0.07883
		C91.86758,237.8383,91.86794,237.80052,91.86831,237.76277z"/>
	<path style="&st25;" d="M299.86359,241.10063c-1.37289-0.00264-2.78186,0.18219-4.10434-0.07608
		c-0.72446-0.14148-1.30289-1.03116-1.94717-1.58345c0.65604-0.60098,1.27304-1.66202,1.97501-1.72159
		c2.7265-0.23146,5.48776-0.26355,8.21759-0.08598c0.61996,0.04031,1.42972,1.14809,1.62949,1.90292
		c0.09314,0.35188-0.99979,1.37444-1.66367,1.49509C302.64105,241.27316,301.23691,241.10329,299.86359,241.10063z"/>
	<path style="&st25;" d="M282.08237,241.13889c-1.24365-0.88284-4.77036,1.84729-4.66272-1.92644
		c0.08313-2.91489,3.11124-1.45049,4.87598-1.67703c1.37515-0.17653,2.83923-0.28325,4.1676,0.01201
		c0.93231,0.20723,1.70285,1.14285,2.54565,1.75319c-0.78265,0.61276-1.48935,1.56149-2.36572,1.75981
		C285.31607,241.36076,283.87091,241.13889,282.08237,241.13889z"/>
	<path style="&st25;" d="M232.63269,241.00639c-2.5732-0.065-5.14641-0.12804-7.71953-0.19554
		c-2.51083-0.0659-2.1488-1.73868-1.87274-3.3606c2.54863,0.0078,5.09662-0.0038,7.64403,0.02783
		C233.36649,237.51137,233.47711,239.00439,232.63269,241.00639z"/>
	<path style="&st23;" d="M315.26849,237.51488c0.78369,0,1.64133-0.19655,2.32776,0.06194
		c0.5528,0.20818,1.23004,0.95412,1.24973,1.48384c0.02301,0.61989-0.45856,1.52422-0.9928,1.82925
		c-0.61362,0.35036-1.55801,0.34747-2.29993,0.20076c-1.69858-0.33589-4.38824,1.33267-4.71674-1.62361
		c-0.08206-0.739,2.58112-1.78322,3.98251-2.68716C314.96887,237.0249,315.11868,237.26988,315.26849,237.51488z"/>
	<path style="&st11;" d="M161.64754,249.91711c0.09563-0.64624,0.19125-1.29247,0.28691-1.93872
		c3.92937,1.2811,7.85875,2.56224,11.78781,3.84338c-1.16264,0.3602-2.32503,0.72037-3.48756,1.08049
		C167.37219,251.90718,164.50987,250.91216,161.64754,249.91711z"/>
	<polygon style="&st9;" points="239.70601,245.73041 239.86125,245.63164 239.65253,245.77748 	"/>
	<path style="&st26;" d="M528.40167,257.75601c-0.65131-0.00372-1.30255-0.00745-1.95386-0.01117
		c-0.02557-0.77911-0.05127-1.55826-0.0769-2.33742c0.14606-0.1115,0.42657-0.24231,0.41382-0.33101
		c-0.04419-0.30815-0.19019-0.60167-0.29749-0.90077c-0.12579-3.15628-0.25165-6.31256-0.37762-9.46928
		c-0.02856-0.92918-0.05688-1.85796-0.08514-2.78671c0.04114-20.03745,0.07043-40.07494,0.1424-60.11227
		c0.00696-1.93736-0.01318-3.53816-2.64435-3.60075c-0.56854-0.01352-1.3606-1.16011-1.56366-1.91551
		c-0.11499-0.42784,0.78656-1.63693,1.18164-1.61505c3.67511,0.20363,2.86761-2.40396,2.9549-4.47319
		c0.10022-2.37463,0.20807-4.74893,0.31262-7.12338c0.71063-0.00186,1.4212-0.00371,2.13184-0.0056
		c0.11816,0.78905,0.23645,1.57812,0.35468,2.36719c-0.01672,1.78931,0.06396,3.5862-0.07428,5.36604
		c-0.18005,2.3179,0.25714,3.8663,3.08179,3.86299c0.59875-0.0007,1.69324,1.18521,1.66779,1.78667
		c-0.02899,0.68607-1.10712,1.93896-1.64001,1.89371c-3.56708-0.30304-3.13818,2.05338-3.13605,4.2654
		c0.01886,19.74738,0.01923,39.49474,0.02509,59.2421c-0.02173,0.99602-0.04352,1.99202-0.06519,2.98781
		C528.63641,249.14905,528.51904,253.45255,528.40167,257.75601z"/>
	<path style="&st23;" d="M514.3775,342.10049c-1.74603-0.26199-2.73727-0.28653-3.62799-0.59845
		c-0.42514-0.1488-0.87805-0.82755-0.91223-1.29593c-0.02847-0.39035,0.46143-1.07114,0.85245-1.1889
		c0.91528-0.27567,1.97232-0.55792,2.85629-0.34863c1.33893,0.31702,2.57959,1.04956,3.862,1.60553
		C516.23755,340.97952,515.06702,341.68494,514.3775,342.10049z"/>
	<path style="&st18;" d="M526.48724,254.17564c0.1073,0.2991,0.2533,0.59262,0.29749,0.90077
		c0.01276,0.0887-0.26776,0.21951-0.41382,0.33101C526.40973,254.99684,526.44849,254.58624,526.48724,254.17564z"/>
	<path style="&st23;" d="M512.34949,174.31073c1.39172,0,2.83356-0.2171,4.15479,0.08818
		c0.69989,0.16171,1.46509,1.15514,1.67651,1.91843c0.13672,0.49329-0.67419,1.80061-1.06342,1.80186
		c-3.36505,0.01067-6.73581-0.13234-10.08951-0.4131c-0.39053-0.03268-1.02051-1.23157-0.9328-1.79533
		c0.08386-0.53876,0.91916-1.29021,1.49478-1.35928c1.56665-0.18805,3.17072-0.06461,4.75989-0.06461
		C512.34967,174.42816,512.34961,174.36943,512.34949,174.31073z"/>
	<path style="&st2;" d="M496.05762,177.70868c-1.17548,0-2.3931,0.18716-3.51166-0.06526
		c-0.75565-0.17058-1.37164-0.96043-2.05011-1.47327c0.53433-0.48674,1.03799-1.34969,1.60831-1.39629
		c2.7283-0.22296,5.47986-0.33604,8.21048-0.21141c0.54865,0.02501,1.04248,1.25214,1.56152,1.92502
		c-0.56851,0.38704-1.10468,1.03241-1.71213,1.10846c-1.34933,0.16896-2.73441,0.05267-4.10492,0.05267
		C496.05859,177.66862,496.05814,177.68866,496.05762,177.70868z"/>
	<path style="&st23;" d="M482.11682,174.64822c0.31592-0.05855,0.54385-0.17964,0.6925-0.11586
		c1.2262,0.526,2.43765,1.08626,3.65363,1.63614c-1.29404,0.49652-2.6087,1.43919-3.87701,1.38043
		c-1.71567-0.07945-4.89243-1.07272-4.85843-1.42358C478.04959,172.79961,480.689,175.21304,482.11682,174.64822z"/>
	<polygon style="&st9;" points="545.43976,340.11081 545.40771,339.80804 545.72443,339.89633 	"/>
	<path style="&st9;" d="M544.10687,173.77463c-0.05524-1.05643-0.11047-2.11285-0.16534-3.16959
		c0.3869-0.47826,0.77338-0.95619,1.15991-1.43413c0.88794,1.966,1.77588,3.93202,2.66382,5.89793
		c0.21979,1.03668,0.43964,2.07343,0.65955,3.1102c-0.15576,5.12502,0.10217,10.30814-0.60626,15.35553
		c-0.5097,3.63153-2.27075,7.09578-3.55396,10.60522c-0.40564,1.10941-1.36487,2.07021-1.56891,3.19049
		c-1.16217,6.3793-1.23718,6.54036-8.04065,8.97896c0.24585-2.93823,0.38287-5.61063,0.73889-8.25352
		c0.11951-0.88718,0.75452-2.40771,1.22552-2.43579c4.63458-0.27628,4.81952-4.38762,5.79706-7.19205
		c2.23529-6.41319,2.77832-13.15102,1.76392-19.94051c0.02222-1.17526,0.04419-2.35056,0.06616-3.52585
		C544.2453,174.56056,544.19873,174.16493,544.10687,173.77463z"/>
	<path style="&st5;" d="M566.85309,174.66547c0.85681,0.00542,1.71356,0.0108,2.5697,0.01628
		c0.76782,0.08759,1.53632,0.17508,2.30481,0.26259c0.35449,1.09372,0.70892,2.18742,1.06335,3.28117
		c-3.5376,0.14365-7.07513,0.28723-10.61273,0.43082c0,0-0.0271-0.01611-0.02686-0.01599
		c-0.2442-1.16429-0.48871-2.32872-0.73309-3.49316c0.40326-0.34775,0.80646-0.6955,1.21069-1.04424
		C564.03772,174.28981,565.44543,174.47765,566.85309,174.66547z"/>
	<path style="&st11;" d="M545.10144,169.17091c-0.38654,0.47794-0.77301,0.95587-1.15991,1.43413
		c-1.80536-2.93172-3.61035-5.86372-5.41534-8.79576C542.42822,162.9048,543.8681,165.95226,545.10144,169.17091z"/>
	<path style="&st23;" d="M550.31421,178.22041c-0.08899-0.64828-0.17798-1.29657-0.26703-1.94487
		c2.02655-2.86337,4.75891-1.33794,7.27289-1.17038c0,0-0.00208-0.00807-0.0022-0.00826
		c-0.04071,1.14265-0.08136,2.28552-0.12195,3.42836c0,0,0.0802-0.06473,0.08002-0.06448
		C554.95526,178.38081,552.6347,178.30061,550.31421,178.22041z"/>
	<path style="&st3;" d="M544.24658,174.96153c-0.02197,1.17529-0.04395,2.35059-0.06616,3.52585
		c-1.71045-0.05606-3.42065-0.11212-5.12555-0.16708c-0.52222-0.24921-1.04974-0.49945-1.57733-0.74969
		c0.05249-0.83995,0.10498-1.6799,0.15356-2.51704C539.83362,175.02473,542.0401,174.99312,544.24658,174.96153z"/>
	<path style="&st26;" d="M580.69263,175.38651c0.16541,1.03624,0.33075,2.07246,0.49609,3.10867
		c0.00006-0.00005,0.05481-0.04922,0.05469-0.0489c-1.54895,0.0161-3.09778,0.03189-4.64661,0.04768
		c-0.01514-1.17853-0.03027-2.35706-0.04602-3.53522c1.18213-0.01073,2.36469-0.02185,3.54724-0.03296
		C580.17798,175.23207,580.37622,175.38564,580.69263,175.38651z"/>
	<path style="&st4;" d="M557.19592,178.52527c0.04059-1.14284,0.08124-2.28571,0.12195-3.42838
		c1.36639,0.01665,2.73273,0.03311,4.09967,0.04993c0.24512,1.16479,0.48962,2.32922,0.73383,3.49352
		C560.49939,178.6019,558.84766,178.56358,557.19592,178.52527z"/>
	<path style="&st4;" d="M557.32007,175.10516c-2.51398-0.16756-5.24634-1.69299-7.27289,1.17036
		c-0.53741,0.63399-1.07489,1.26796-1.61737,1.90273c-0.22491-1.03598-0.44476-2.07272-0.66455-3.10941
		C550.95544,173.68826,554.14453,172.61322,557.32007,175.10516z"/>
	<path style="&st4;" d="M562.17822,178.65633c3.5376-0.14359,7.07513-0.28717,10.61273-0.43082
		C569.36389,181.09274,565.7901,180.34401,562.17822,178.65633z"/>
	<path style="&st4;" d="M550.31421,178.22041c2.3205,0.0802,4.64105,0.1604,6.96173,0.24037
		C554.88403,180.45309,552.55157,180.71669,550.31421,178.22041z"/>
	<path style="&st11;" d="M544.24658,174.96153c-2.20648,0.03159-4.41296,0.0632-6.61548,0.09203
		c2.16132-0.42834,4.31866-0.85388,6.47589-1.27917C544.19873,174.16493,544.2453,174.56056,544.24658,174.96153z"/>
	<path style="&st4;" d="M576.5968,178.49396c1.54883-0.01579,3.09766-0.03159,4.64661-0.04768
		C579.71564,180.49809,578.16583,180.42735,576.5968,178.49396z"/>
	<path style="&st4;" d="M580.09802,174.92578c-1.18256,0.01111-2.36511,0.02223-3.54724,0.03296
		C577.72003,173.47893,578.90265,173.5069,580.09802,174.92578z"/>
	<path style="&st4;" d="M566.85309,174.66547c-1.40765-0.18782-2.81537-0.37566-4.22412-0.56253
		C564.03632,174.29109,565.4447,174.47829,566.85309,174.66547z"/>
	<path style="&st4;" d="M528.89453,165.44107c-0.11823-0.78906-0.23651-1.57814-0.35468-2.36716
		c0.12817-0.38918,0.25641-0.77837,0.38464-1.1675C528.91449,163.08469,528.90448,164.26288,528.89453,165.44107z"/>
	<path style="&st4;" d="M528.9931,127.0565c-0.04388-0.77979-0.08783-1.55959-0.13171-2.33939
		C528.90533,125.49689,528.94922,126.27669,528.9931,127.0565z"/>
	<path style="&st11;" d="M537.47754,177.57062c0.52759,0.25023,1.05511,0.50047,1.57733,0.74968
		C538.52551,178.06969,538.00153,177.82016,537.47754,177.57062z"/>
	<path style="&st4;" d="M571.7276,174.94434c-0.76849-0.08751-1.53699-0.175-2.30481-0.26259
		C570.19153,174.76923,570.95953,174.85677,571.7276,174.94434z"/>
	<path style="&st4;" d="M528.88458,134.27983c0.00714-0.3911,0.01434-0.7822,0.02155-1.17331
		c0.12225,0.27812,0.27875,0.54855,0.34436,0.83949C529.26843,134.02571,529.01398,134.16687,528.88458,134.27983z"/>
	<path style="&st8;" d="M436.5864,89.76331c4.32391,1.77955,5.71704,4.31757,3.77896,8.08418
		c-1.34314,2.61044-3.38013,4.89843-5.30331,7.16386c-1.40768,1.65822-3.13422,3.04558-5.9986,5.77192
		c1.42899,0.73539,2.92047,1.09045,3.78003,2.02633c2.16727,2.35971,3.98492,2.60708,6.57501,0.4481
		c1.48337-1.23649,5.16046-2.49905,5.42035-2.11303c1.68649,2.505-0.60175,4.28431-2.12601,5.94536
		c-3.85648,4.20266-7.80051,4.50365-11.73715,0.42047c-2.4252-2.5154-4.46536-2.01734-6.823-0.54739
		c-1.00327,0.62554-1.7211,1.82155-2.77289,2.2234c-0.92944,0.35513-2.52264,0.37029-3.12787-0.20107
		c-0.65976-0.62281-1.05896-2.42418-0.62558-3.13181c1.23206-2.01158,2.81583-3.85849,4.49634-5.53422
		c4.08743-4.07584,8.48407-7.85355,12.4191-12.06642c3.14822-3.37051,2.92297-3.62834-0.64243-7.14899
		C434.7951,90.65714,435.69073,90.21022,436.5864,89.76331z"/>
	<path style="&st11;" d="M436.5864,89.76332c-0.89566,0.4469-1.79129,0.89381-2.68704,1.34068
		c-3.44879,1.30355-7.34763,1.87527-9.12057,5.86942c-0.14166,0.31921-1.33936,0.34834-1.96564,0.19099
		c-0.27567-0.06926-0.586-1.00272-0.47708-1.44417c0.9371-3.79759,9.09299-8.71102,12.8389-7.67628
		C435.75909,88.20533,436.12149,89.17007,436.5864,89.76332z"/>
	<path style="&st9;" d="M779.1369,90.53306c2.2265-0.99392,4.37231-2.51571,6.69635-2.87083
		c4.69806-0.71787,7.91003,2.49488,6.88507,7.11253c-0.53522,2.41141,0.31238,3.43517,1.52222,5.08547
		c4.06793,5.54865,0.40997,14.70034-6.30597,16.23872c-3.87921,0.88858-5.92169-0.33646-9.02997-5.89399
		c2.33734,0.39636,4.16638,0.74677,6.00781,1.00969c3.02679,0.43215,5.12183-0.96828,5.95911-3.75409
		c0.41772-1.38975,0.52686-3.49014-0.24493-4.43427c-0.67987-0.8316-2.82849-0.82667-4.24103-0.61265
		c-2.43127,0.36841-5.61621,2.50574-6.61304-1.02278c-0.82159-2.90787,2.59509-3.34097,4.84467-4.09896
		c1.08569-0.36584,2.33978-0.91769,2.96545-1.78426c0.7251-1.00443,1.45239-2.71977,1.04932-3.62087
		c-0.38208-0.85397-2.25006-1.50374-3.4198-1.43873c-1.8797,0.10445-3.7226,0.87154-5.58093,1.35863
		C779.46649,91.38214,779.30164,90.9576,779.1369,90.53306z"/>
	<path style="&st7;" d="M130.71463,117.49681c-7.41424,0.68074-14.82848,1.36147-22.24271,2.04221
		c-0.14597-0.36796-0.29194-0.73592-0.4379-1.10387c1.62448-0.75019,3.18237-1.76502,4.88757-2.19442
		c3.34799-0.84304,4.58929-2.72148,3.78973-6.05973c-0.18322-0.76495-0.1442-1.58418-0.1973-2.37911
		c-0.1592-2.38309,0.32513-5.10429-0.69357-7.0313c-0.68137-1.28892-3.49603-1.44931-6.46109-2.51001
		c4.83552-1.80482,6.4744-4.73791,6.67806-8.76701c0.05296-1.04764,1.36483-2.03159,2.09849-3.04481
		c0.80054,1.00053,2.10011,1.91075,2.30064,3.01984c0.4568,2.52627,0.36247,5.1508,0.51418,7.73412
		c0.19838,3.37823,0.34357,6.76215,0.65714,10.13007c0.18174,1.9519,0.09813,4.3136,1.17121,5.66927
		c0.78572,0.99264,3.25266,0.72759,4.98286,0.87998c2.3424,0.20629,2.81171,1.76061,2.88323,3.68388
		C130.64574,117.56636,130.71463,117.49681,130.71463,117.49681z"/>
	<path style="&st11;" d="M228.09254,250.43286c-1.32152,0.49895-2.64304,0.99788-3.96455,1.49683
		c-0.17789-0.44344-0.35576-0.88684-0.53366-1.33028c1.25916-0.50723,2.51831-1.01447,3.77747-1.5217
		C227.61203,249.52942,227.85228,249.98114,228.09254,250.43286z"/>
</g>
</svg>
