<?xml version="1.0" encoding="utf-8"?>
<!-- Generator: Adobe Illustrator 28.2.0, SVG Export Plug-In . SVG Version: 6.00 Build 0)  -->
<!DOCTYPE svg PUBLIC "-//W3C//DTD SVG 1.1//EN" "http://www.w3.org/Graphics/SVG/1.1/DTD/svg11.dtd" [
	<!ENTITY st0 "fill:#F2D7F1;">
	<!ENTITY st1 "fill:#FBF2FA;">
	<!ENTITY st2 "fill:#181518;">
	<!ENTITY st3 "fill:#191619;">
	<!ENTITY st4 "fill:#100E10;">
	<!ENTITY st5 "fill:#EACDEC;">
	<!ENTITY st6 "fill:#DBC2DA;">
	<!ENTITY st7 "fill:#0D0C0D;">
	<!ENTITY st8 "fill:#0E0C0E;">
	<!ENTITY st9 "fill:#0F0D0F;">
	<!ENTITY st10 "fill:#5E1793;">
	<!ENTITY st11 "fill:#611A94;">
	<!ENTITY st12 "fill:#641E96;">
	<!ENTITY st13 "fill:#312C31;">
	<!ENTITY st14 "fill:#EFD5EE;">
	<!ENTITY st15 "fill:#F0D5EF;">
	<!ENTITY st16 "fill:#EFD4EE;">
	<!ENTITY st17 "fill:#EED4ED;">
	<!ENTITY st18 "fill:#EED3ED;">
	<!ENTITY st19 "fill:#C3ADC2;">
	<!ENTITY st20 "fill:#564C56;">
	<!ENTITY st21 "fill:#3E383E;">
	<!ENTITY st22 "fill:#EBCEED;">
	<!ENTITY st23 "fill:#262226;">
	<!ENTITY st24 "fill:#682599;">
]>
<svg version="1.1" id="Camada_2" xmlns="http://www.w3.org/2000/svg" xmlns:xlink="http://www.w3.org/1999/xlink" x="0px" y="0px"
	 width="1052.40002px" height="485.64001px" viewBox="0 0 1052.40002 485.64001"
	 style="enable-background:new 0 0 1052.40002 485.64001;" xml:space="preserve">
<g>
	<path style="&st0;" d="M1019.92621,30.71534c3.69647-4.97008,9.15973-7.39033,14.48492-9.97176
		c5.28699-2.5629,10.52576-5.51978,16.7876-3.61093c-0.00391,134.41014-0.00793,268.82034-0.01208,403.2305
		c-3.03809,0.20789-5.50378-0.5383-8.17725-2.46469c-6.96387-5.0177-12.49487-11.3999-18.35522-17.50555
		c-4.63281-4.82681-4.59662-4.5289-10.4696-1.85571c-2.37585,1.0813-5.32281,0.90469-8.00995,1.30038
		c-1.125-2.62723-2.25012-5.25427-3.69446-8.62646c-3.2865,5.02191-1.61194,9.38916-1.60571,13.59457
		c-0.07056,0.37366-0.00714,0.92413-0.23157,1.09442c-3.41986,2.59525-6.87732,5.14069-10.32617,7.69754
		c-0.38806-0.09155-0.77972-0.16919-1.16321-0.27606c-8.12689-2.26416-11.27124,0.19073-10.90979,8.53821
		c0.03436,0.79462,0.17084,1.58478,0.25977,2.37704c-1.22253,4.59357-3.45422,8.9614-2.89417,13.95755
		c0.09741,0.86829-0.33594,2.29996-0.98175,2.66953c-5.93451,3.39572-10.67035,9.12985-18.16748,9.51382
		c-4.66809,0.23911-8.23877,2.08264-10.93597,6.16333c-3.00256,4.54282-7.21185,7.7045-12.39319,9.88791
		c-8.2049,3.45764-16.09283,7.66129-24.2179,11.31998c-4.00061,1.80142-8.19623,3.10889-11.17957,6.63577
		c-0.59833,0.70731-1.71039,1.36737-2.59576,1.38092c-6.88959,0.10504-13.65106,2.47058-20.63373,1.05325
		c-3.48907-0.70819-7.06024-1.00497-10.56079-1.66541c-1.50269-0.28348-3.11578-0.74225-4.33527-1.60687
		c-2.42316-1.71802-5.04877-3.43625-6.8111-5.7496c-5.82227-7.64276-14.30133-11.07224-22.54034-14.89941
		c-1.9469-0.90433-4.21124-1.65479-6.30627-1.59897c-4.54633,0.121-8.50452-1.17081-12.60883-3.00552
		c-3.05859-1.36728-5.31744-3.29221-7.59778-5.53827c-1.48914-1.46674-3.28259-2.88318-5.20795-3.60199
		c-8.55261-3.19312-17.18433-6.17789-25.82263-9.13513c-5.67932-1.94427-11.50665-3.08054-17.56732-2.85779
		c-8.60651,0.31653-16.94165-1.56754-25.39209-2.85184c-7.19446-1.09348-14.6839-0.49295-22.0304-0.25394
		c-6.24634,0.20325-11.79858,2.82758-17.49744,5.31976c-3.55719,1.55554-8.133,1.0658-12.23828,0.96243
		c-2.30988-0.05807-4.61115-1.13794-6.88269-1.86267c-2.67255-0.85248-5.15656-1.47598-8.11884-0.50873
		c-2.35693,0.76971-5.23309,0.74988-7.6991,0.22833c-7.16571-1.51569-14.16785-3.91644-21.37756-5.0752
		c-4.78986-0.76965-9.8963-0.49188-14.73199,0.20935c-5.01331,0.72693-9.7478,3.57883-15.06458,1.53824
		c-0.5163-0.19815-1.29706-0.20596-1.76636,0.04761c-7.66498,4.14236-16.32092,2.92868-24.46503,4.44086
		c-2.99329,0.5556-4.71045,1.67816-5.79706,4.28146c-2.78729,6.67746-7.61957,9.83087-15.00555,9.20471
		c-4.73108-0.40112-9.46423-0.45584-13.8371,2.30972c-1.55731,0.98492-3.85211,0.733-5.7522,1.25705
		c-3.57849,0.98682-7.20752,1.89218-10.64856,3.25433c-6.31268,2.49878-12.59198,4.94986-19.50546,5.12039
		c-1.58139,0.03903-3.42517-0.16885-4.68884,0.54834c-5.21268,2.95813-10.51584,2.07123-15.66293,0.436
		c-5.83829-1.85492-12.10855-2.41748-17.43573-5.89627c-5.47971-3.57825-11.2258-6.75833-16.60074-10.48123
		c-2.21606-1.53488-3.46249-4.46643-5.67111-6.0199c-14.05481-9.88589-29.3468-14.49677-46.75351-11.47974
		c-4.24374,0.73566-9.0159-0.78342-13.39374-1.87439c-3.58197-0.89276-6.89688-1.92355-10.34024,0.24921
		c-0.80362,0.50702-1.9075,0.89145-2.82422,0.80582c-5.30811-0.4957-9.5831,1.67764-13.88184,4.50479
		c-5.28458,3.47565-11.38663,2.75601-17.40808,2.62585c-8.92142-0.19278-17.85449,0.15039-26.78238,0.28128
		c-0.38834,0.00571-0.84909,0.0647-1.15027,0.2774c-5.67175,4.00595-12.17496,3.11789-18.51733,3.21237
		c-0.98798,0.01471-2.13287-0.07156-2.93314,0.37628c-4.47083,2.50171-9.16214,3.5899-14.3186,3.44788
		c-1.44617-0.03986-3.09869,1.56412-4.38159,2.72c-2.3551,2.12183-4.94403,3.15771-8.14044,3.09912
		c-9.86539-0.18094-18.72406,3.28049-27.00328,8.2179c-2.89233,1.72482-5.67664,2.54926-8.98355,2.57401
		c-9.53932,0.07141-18.55246-2.22995-26.94971-6.46414c-3.07274-1.54941-5.52919-4.55725-7.8951-7.22955
		c-4.79607-5.41721-11.38899-7.07083-17.84178-9.05713c-3.76822-1.16006-7.65498-1.94751-11.39111-3.19479
		c-3.83562-1.28049-7.55162-2.26746-11.67578-1.2312c-1.55324,0.39035-3.54051,0.04697-5.06085-0.59784
		c-7.65558-3.24725-15.68611-5.60239-22.63876-10.52625c-3.15968-2.23755-7.26617-2.57355-10.56459,0.35468
		c-2.45695,2.18109-4.96297,2.34006-7.73251,1.13281c-3.46473-1.51025-7.10667-2.7807-10.25494-4.80505
		c-3.2985-2.12088-6.28278-2.03421-9.56905-0.50577c-5.40174,2.5123-10.79342,5.0477-16.22443,7.49521
		c-9.34026,4.20917-18.01297,9.18613-24.87758,17.1763c-6.18772,7.2023-14.09238,11.55121-23.51317,14.30444
		c-8.30219,2.42642-15.38117,8.22296-21.16737,15.07343C2.27337,475.31876,1.04548,475.97192,0,476.77966
		C0,338.76514,0,200.75063,0.00001,62.73612c2.03734-0.67536,4.30971-0.9788,6.0694-2.09359
		c6.10824-3.86939,12.3083-6.05879,19.73146-4.12148c4.56699,1.19196,9.03739-0.42232,13.25844-2.4968
		c3.57206-1.75554,7.15118-3.62862,10.92983-4.78688c2.77293-0.84992,5.88799-0.90734,8.82217-0.75814
		c1.35668,0.06897,3.02784,1.18006,3.90253,2.32118c5.2534,6.85362,11.99274,10.14994,20.67223,9.55094
		c4.18701-0.28893,8.23479,0.04721,12.19444,2.05796c7.53905,3.82844,14.49528,0.60805,20.88531-3.10096
		c7.26593-4.21751,14.63197-6.88871,23.18292-6.28513c3.49612,0.24678,7.26714-0.16488,10.58154-1.27198
		c6.49809-2.17065,12.64554-0.32702,18.79071,0.92167c5.81833,1.18218,10.92641,3.62188,15.65794,7.8918
		c5.04201,4.55003,11.76973,6.38131,18.84444,2.95432c5.54736-2.68721,11.5247-4.53249,16.92654-7.46241
		c9.78775-5.30897,19.28178-11.15988,28.91487-16.75617c2.39827-1.39325,4.72662-3.34657,7.32127-3.86294
		c4.37384-0.87043,7.78046-3.16846,10.79871-6.00657c4.021-3.78101,8.36935-5.71554,13.98404-5.19305
		c2.69904,0.25125,5.51834-0.36625,8.23621-0.85307c3.37582-0.6046,6.22629-0.2407,8.62811,2.58982
		c3.41513,4.02472,7.55728,5.28996,12.88705,3.67696c1.91467-0.57948,4.67267,0.49169,6.66443,1.53755
		c4.80206,2.52163,9.53055,3.68484,14.92169,1.98753c1.38324-0.43551,3.51651,0.296,4.86615,1.17064
		c9.48825,6.14896,19.42792,10.62072,31.07864,10.50869c3.71292-0.03571,7.44305,1.04443,11.15442,1.6779
		c5.75546,0.98228,11.38803,1.63457,16.57031-2.20076c3.33652-2.46925,6.8876-2.53049,10.66873-0.46078
		c4.41708,2.41776,9.1232,3.5472,14.26688,2.20944c2.33005-0.60596,4.45624,0.17573,6.66605,1.66299
		c4.77411,3.21315,10.02432,5.7073,14.923,8.74875c2.62735,1.63128,5.44604,3.39198,7.27475,5.78619
		c4.24698,5.56007,8.85684,10.04688,16.12939,11.40633c2.7901,0.52154,5.55664,2.25815,7.86618,4.04662
		c5.17664,4.00879,10.72488,3.51845,16.49182,2.18468c2.31528-0.53549,4.66449-1.56641,6.95099-1.44907
		c4.59619,0.23583,8.63181-0.61816,12.22723-3.59528c0.85669-0.70935,2.20532-1.37563,3.22241-1.24433
		c4.91656,0.63423,9.62909-2.51068,14.75281-0.40723c1.46094,0.59977,3.95575-1.19683,5.92792-2.01232
		c1.77356-0.73353,3.41486-2.10388,5.23029-2.35538c4.04865-0.56087,8.35999,0.79037,12.09827-2.11714
		c0.53558-0.41653,2.14178,0.44506,3.20837,0.83582c2.21204,0.81047,4.45856,1.56883,6.57404,2.59118
		c3.2533,1.57224,5.69513,0.22799,8.15393-1.76452c6.11871-4.95839,12.92999-8.73907,20.69061-10.16316
		c4.77319-0.87589,8.03894-3.42125,10.50128-7.18464c2.63013-4.01966,5.07623-7.8763,9.95471-9.81431
		c2.19513-0.87201,4.02124-3.33661,5.37988-5.48173c1.51141-2.38633,3.32886-3.10934,5.94897-3.04155
		c4.59033,0.11877,9.19733-0.16243,13.77545,0.10306c3.68488,0.21371,6.70319-0.60841,8.91699-3.66502
		c2.83661-3.91638,6.59473-5.23605,11.41174-4.88485c5.32556,0.3883,9.98572-1.48503,12.3114-6.67006
		c2.98419-6.6534,9.72327-8.41553,14.97784-12.10337c0.69806-0.48997,1.93823-0.34537,2.91241-0.27773
		c4.94318,0.34307,9.87616,0.93903,14.82312,1.07963c2.99493,0.08512,4.62598,0.95998,5.69238,4.00886
		c1.36646,3.90634,3.17188,7.79661,5.52783,11.17705c2.10553,3.02127,5.14313,5.42093,7.91248,7.93707
		c1.45453,1.32161,3.58569,2.008,4.77417,3.49259c5.13647,6.41632,11.76392,9.78029,19.56317,12.30829
		c6.00488,1.9464,12.39526,4.02981,17.3576,8.74633c3.31116,3.14725,12.91058,3.10781,16.7243,0.75389
		c1.28369-0.79238,2.86469-1.14043,4.34674-1.56099c1.32288-0.37541,2.91028-0.22473,4.01099-0.90574
		c4.60992-2.85239,8.98413-2.55448,14.21094-1.14607c5.74799,1.54887,12.13184,2.50405,17.84076-1.43266
		c0.97449-0.67196,2.69672-0.83505,3.8833-0.51857c4.63684,1.23671,8.81445,0.14518,12.44244-2.56576
		c2.12921-1.59102,3.88586-1.35571,6.06232-0.62768c3.39178,1.13464,6.81305,2.23027,10.29321,3.0313
		c1.88849,0.43459,4.15509,0.82849,5.84564,0.18045c3.37903-1.29543,5.24811-0.09057,6.94281,2.60744
		c4.55664,7.25445,9.08551,14.53069,13.8476,21.6493c1.86121,2.78236,4.06342,5.45341,6.56409,7.6597
		c3.08392,2.72102,5.22516,2.15311,7.12439-1.4353c0.82019-1.5496,1.20508-3.33019,2.05365-5.77048
		c1.75934,1.28759,3.3302,2.60902,5.06165,3.66704c3.17883,1.94247,6.43726,3.75691,9.69421,5.56754
		c1.19202,0.66273,2.53436,1.06286,3.69952,1.76364c1.35883,0.81714,2.59821,1.83311,3.89032,2.76141
		c7.37024,5.29479,9.77429,4.80186,14.84772-2.39927c1.7981-2.55199,4.05585-4.89807,6.48938-6.85809
		c5.37244-4.32709,10.01343-9.13386,12.5-15.71437c0.42181-1.11636,0.50934-2.63685,1.30713-3.28782
		c4.85223-3.95945,9.84253-7.75174,14.85901-11.50305c0.51672-0.38639,1.55627-0.32318,2.27435-0.14668
		c4.19659,1.03114,8.0285,0.89116,12.02991-1.3938c2.47766-1.41478,5.4472-0.27146,7.40033,2.23097
		c3.52496,5.5348,8.78455,9.08057,14.27466,12.30492c10.21143,5.99718,16.1618,1.10626,20.20654-7.71878
		c0.87549-1.91025,1.00226-4.23861,1.14673-6.39633C1023.79449,41.10096,1022.47156,35.76317,1019.92621,30.71534z
		 M870.48737,316.09885c5.62683-5.31281,11.47955-10.40802,16.83685-15.98071c14.10645-14.6738,27.9917-29.56079,41.97772-44.35083
		c5.89264-6.23151,11.75012-12.49899,17.76245-18.61324c2.18213-2.21921,2.11743-3.7204-0.13293-5.90701
		c-5.58209-5.4243-10.76776-11.25865-16.37024-16.66058c-20.25903-19.53366-40.61346-38.96809-60.96698-58.40323
		c-1.84918-1.76576-3.79901-4.20509-5.98621-4.55603c-1.40356-0.22525-3.31891,2.81671-5.02112,4.37639
		c-7.34644,6.73148-14.91742,13.23431-22.00629,20.22737c-17.75128,17.51144-35.29187,35.23711-52.90125,52.89249
		c-4.57349,4.5854-4.63019,5.93405-0.07001,10.73822c4.53259,4.77516,9.25873,9.36536,13.85498,14.08067
		c19.78381,20.29608,39.54541,40.61392,59.34064,60.89886c1.00085,1.02563,2.23975,1.81863,4.12427,3.32437
		c0.39838-11.78979,0.69556-22.53168,1.1853-33.26474c0.08746-1.91821-1.12915-5.3515,1.74078-5.35568
		c2.54431-0.00372,1.62317,3.4415,1.78253,5.37692c0.85083,10.33417,1.52924,20.68253,2.26733,31.026
		c0.19287,0.6167,0.38568,1.2334,0.57849,1.85007C869.15155,317.23172,869.8194,316.66528,870.48737,316.09885z M198.2804,334.91513
		c0.00082,0.32983,0.00163,0.65976,0.00246,0.98959c9.94023,0,19.88408-0.16003,29.81915,0.06696
		c5.03172,0.11487,9.04138-0.99078,12.75481-4.80951c16.53278-17.00168,33.32184-33.75385,50.05402-50.56058
		c12.9408-12.99841,25.96756-25.91121,38.88712-38.93068c4.59668-4.63222,4.49667-5.31084-0.11566-10.17921
		c-0.27466-0.28984-0.56345-0.56625-0.84506-0.84947c-20.24945-20.36124-40.513-40.70848-60.72397-61.10791
		c-1.81873-1.83572-3.73529-2.49867-6.32779-2.47369c-12.15158,0.11713-24.3053,0.0284-36.45818-0.00999
		c-19.92494-0.06293-39.85023-0.08878-59.77454-0.24294c-8.51422-0.06584-17.02629-0.41463-25.53931-0.63533
		c-3.49324-0.09053-6.43596,0.67195-9.12065,3.39656c-20.85775,21.16783-41.87212,42.18091-62.82063,63.25919
		c-2.95616,2.97443-3.07041,4.62123-0.26591,7.6526c2.30006,2.48618,4.92715,4.66536,7.32493,7.06509
		c27.77102,27.79453,55.55886,55.57242,83.23113,83.46524c2.58577,2.60638,5.20645,3.9837,8.86641,3.9437
		C177.57819,334.84158,187.9297,334.91513,198.2804,334.91513z M529.74475,202.34012
		c-0.00018,0.20232-0.00043,0.40466-0.00067,0.60698c-16.73834,0-33.4772-0.08127-50.21503,0.01938
		c-23.91959,0.14383-47.83887,0.37955-71.75714,0.66991c-5.96341,0.07237-11.93109,0.39284-17.87695,0.85516
		c-1.37192,0.10669-2.66226,1.26538-3.99017,1.94002c0.6893,1.11662,1.20819,2.39746,2.09686,3.32191
		c4.27917,4.45151,8.60583,8.8602,13.01013,13.18765c29.30569,28.79428,58.67804,57.52069,87.89148,86.40833
		c2.9025,2.87015,5.66794,4.21274,9.82523,4.2085c18.733-0.01904,37.46799,0.26141,56.19839,0.63162
		c4.18335,0.08264,7.28613,0.05188,10.83276-3.65942c12.3902-12.9653,25.68512-25.05988,38.52557-37.59885
		c12.41736-12.12579,24.69647-24.39348,37.03931-36.59584c9.21735-9.1125,18.45898-18.20052,27.63538-27.35414
		c1.19135-1.18834,2.0564-2.7045,3.07251-4.06882c-1.68372-0.90926-3.30072-1.99759-5.07617-2.66043
		c-1.06073-0.39607-2.37-0.15335-3.56738-0.15005c-27.25623,0.07541-54.51245,0.17569-81.76874,0.23151
		C564.32843,202.36894,547.03656,202.34012,529.74475,202.34012z M1018.70068,252.36009
		c-0.86218,1.77534-1.26514,2.41116-1.49304,3.10461c-1.99561,6.07292-1.67291,12.20381-0.07556,18.25819
		c2.28632,8.66626,4.94196,17.23694,7.11743,25.92935c0.75879,3.0322,0.74792,6.30515,0.73389,9.46661
		c-0.00903,2.07794-1.3988,3.57489-3.58606,2.69553c-4.01971-1.61597-7.93384-3.51541-11.79279-5.49066
		c-0.58527-0.29959-0.96185-1.67224-0.88635-2.49826c0.71436-7.81357-2.3067-14.47543-6.64697-20.53912
		c-1.6687-2.33127-4.19733-4.35114-6.76648-5.66589c-5.11041-2.61533-9.74884-0.30634-10.85834,5.29962
		c-0.44061,2.22607-0.42493,5.01675,0.55627,6.95486c2.22455,4.39398,4.76154,8.77118,7.92847,12.513
		c5.2016,6.14624,12.06348,10.36719,19.14331,14.06674c2.60242,1.35995,5.53253,2.33478,8.42584,2.8443
		c6.67499,1.1756,11.45734-2.10101,12.37958-8.82602c0.50232-3.66241,0.3374-7.63043-0.51343-11.22665
		c-3.11682-13.17297-6.57898-26.26608-10.08606-39.34229C1021.65295,257.56433,1020.19531,255.44794,1018.70068,252.36009z
		 M1008.62524,108.78144c-0.51862,0.38292-1.03723,0.76587-1.55591,1.14878c2.19275,5.28091,4.38062,10.5638,6.57941,15.84219
		c2.21277,5.31197,4.58936,10.56303,6.57489,15.95851c0.72797,1.97833,0.68457,4.2912,0.73169,6.45717
		c0.0506,2.32059-1.03271,3.71478-3.63184,3.61162c-3.31207-0.13153-6.16608-1.93585-5.86169-4.32538
		c0.97455-7.65002-2.94537-13.45636-7.02795-19.11269c-2.60504-3.60909-6.19275-6.2707-10.76019-6.97471
		c-5.26312-0.81131-7.78668,1.22577-7.3028,6.4898c0.29932,3.25606,1.26428,6.75352,2.94617,9.52449
		c5.78973,9.53777,14.18726,16.35728,24.33337,20.79825c7.10944,3.11185,13.4502-0.69049,14.41003-8.37773
		c0.33936-2.71823,0.24792-5.62366-0.32361-8.29874c-2.11462-9.89984-6.69696-18.72967-12.70819-26.77617
		C1013.31024,112.44672,1010.7821,110.75311,1008.62524,108.78144z M1009.54523,362.21344
		c6.30884,2.46069,10.65857,1.12814,14.32599-3.74973c7.18689-9.55865,4.31787-27.99823-5.45062-35.03204
		c-6.67169-4.80402-13.13983-3.5354-17.03839,3.70425c-1.58087,2.93555-2.39178,6.30081-3.43152,9.51001
		c-0.77057,2.37888-2.10095,2.85706-3.91486,1.23581c-5.25995-4.70139-8.4007-10.52374-8.81543-17.65768
		c-0.04248-0.7309,0.16974-1.66995,0.625-2.20343c2.08057-2.43784,0.35571-3.79758-1.52197-4.51044
		c-2.51807-0.95599-3.52875,0.90128-4.0777,3.0513c-2.06287,8.07922,4.31128,23.05811,11.6283,27.29187
		c5.75671,3.33096,9.75366,1.80804,11.99127-4.63113c0.84863-2.44202,1.34296-5.02707,2.37555-7.38126
		c2.20374-5.02487,5.26678-5.55716,9.15692-1.76328c6.30011,6.14429,5.44952,13.60376,3.89984,21.2218
		C1018.24072,356.49557,1013.94891,358.93353,1009.54523,362.21344z M423.10745,138.89355
		c2.53415-0.42265,5.0842-0.76736,7.59973-1.28128c11.2149-2.29137,21.8367-17.12986,22.74271-28.16048
		c1.23285-15.01011-14.18564-32.77515-33.4184-23.29603c-5.96008,2.93754-11.13449,6.91281-15.26749,12.21999
		c-4.01654,5.15771-5.75,10.9554-4.77023,17.35711C401.68661,126.79388,408.14807,139.01534,423.10745,138.89355z M93.72865,107.639
		c0.09456,7.46841,2.27183,13.89389,6.90845,19.51868c5.11608,6.20643,11.89053,8.11353,19.31823,5.07105
		c7.15443-2.93051,13.14706-7.63264,17.65016-13.8951c1.53789-2.13879,2.34834-5.10559,2.63783-7.78647
		c1.06999-9.90906-4.42088-16.21415-12.43874-20.62636c-12.38055-6.81301-31.89323-0.60772-37.97222,16.4372
		c-0.77503,2.1731-0.53417,4.70942-0.76395,7.07748c0.37144,0.04897,0.74289,0.09793,1.11433,0.1469
		C91.36472,111.60127,92.54668,109.62016,93.72865,107.639z M764.3584,114.54398c1.22711-2.07078,1.86505-3.45956,2.78271-4.62836
		c1.71289-2.18182,3.47491-4.35354,5.46283-6.27404c0.62689-0.60559,2.03949-0.39591,3.09247-0.55941
		c-0.09448,0.91445-0.09937,1.84894-0.29797,2.74014c-1.29321,5.80215-3.38556,11.54367-3.7818,17.40227
		c-0.68079,10.0668,5.57629,16.61824,15.69342,17.33282c11.83496,0.83597,21.40991-3.81833,28.75415-12.95834
		c8.43311-10.49532,5.34979-23.90964-6.48199-30.42881c-7.53143-4.14971-15.55133-5.24477-23.72394-4.01083
		c-7.80774,1.17885-14.88995,4.43015-19.77753,11.19489C764.05084,107.16364,762.96313,110.09712,764.3584,114.54398z
		 M991.53156,193.24303c5.98047-3.94688,11.32605-4.4252,17.15466,0.02791c3.396,2.59459,7.62457,4.35988,11.74377,5.64845
		c2.67328,0.83626,6.01483,0.78564,8.71954-0.01305c4.60559-1.36006,5.31567-6.42024,1.4303-9.28333
		c-2.02576-1.49275-4.55127-2.55246-7.01038-3.15205c-3.85114-0.9389-7.83215-1.76799-11.76813-1.81512
		c-3.92957-0.04706-6.91553-1.35417-9.48541-4.10298c-1.63171-1.74541-3.39917-3.37964-4.89105-5.23674
		c-2.87939-3.5843-4.24884-7.56174-2.92529-12.24815c0.45673-1.61693,0.34833-3.39386,0.53937-5.56718
		c-3.66272,0.52686-5.59229,2.2805-6.53735,5.09698c-1.40033,4.17368-1.00024,8.32889,1.07574,12.14813
		c1.31964,2.42783,2.99139,4.72466,4.82758,6.79341c1.95056,2.19754,2.80255,3.67831-0.58746,5.3593
		C991.63287,187.98183,990.03674,189.92993,991.53156,193.24303z M1016.40546,88.21548
		c-0.02661,0.52355-0.05334,1.04714-0.07996,1.57069c-3.58612,0.95273-7.15778,1.9646-10.76196,2.84301
		c-4.43146,1.08003-8.90973,1.97438-13.31433,3.14986c-0.62469,0.16672-0.94775,1.46643-1.41046,2.24174
		c0.69189,0.29633,1.39563,0.87318,2.07404,0.84472c5.56305-0.23322,11.16956-0.23788,16.66364-1.01498
		c3.46075-0.48953,6.81732-2.02551,10.10156-3.38132c4.53271-1.87121,6.25696-8.07156,0.7182-11.30158
		c-1.7182-1.00205-3.25024-2.3359-4.99866-3.27236c-8.97644-4.80783-16.05353-11.70921-22.09027-19.79359
		c-0.83337-1.11589-1.63934-2.29466-2.6684-3.20626c-0.66223-0.58666-2.17352-1.26316-2.492-0.98085
		c-0.7912,0.70158-1.75818,2.13241-1.51288,2.90868c0.82202,2.6011,1.73676,5.35112,3.34827,7.49127
		c5.44324,7.22867,12.05273,13.26379,19.86957,17.90765C1012.05096,85.52863,1014.22168,86.88306,1016.40546,88.21548z"/>
	<path style="&st1;" d="M1051.18665,420.36316c0.00415-134.41016,0.00818-268.82037,0.01208-403.2305
		c0.40039-0.0004,0.8009-0.00084,1.20129-0.00132c0,134.41412,0,268.82828,0,403.2424
		C1051.99561,420.37021,1051.59106,420.3667,1051.18665,420.36316z"/>
	<path style="&st2;" d="M978.50348,424.23685c-0.08893-0.79227-0.2254-1.58243-0.25977-2.37704
		c-0.36145-8.34747,2.7829-10.80237,10.90979-8.53821c0.38348,0.10687,0.77515,0.18451,1.16321,0.27606
		c2.00629,2.59174-0.04272,4.69531-1.7038,5.29892c-2.38214,0.86557-3.82648,1.9241-5.15271,4.09869
		C982.75989,424.14352,980.74664,426.27158,978.50348,424.23685z"/>
	<path style="&st3;" d="M1000.87445,404.80569c-0.00623-4.20541-1.68079-8.57266,1.60571-13.59457
		c1.44434,3.37219,2.56946,5.99924,3.69446,8.62646C1004.18408,401.25433,1004.26672,404.88834,1000.87445,404.80569z"/>
	<path style="&st4;" d="M1019.92621,30.71534c2.54535,5.04783,3.86829,10.38563,3.48938,16.04634
		c-0.14447,2.15772-0.27124,4.48608-1.14673,6.39633c-4.04474,8.82504-9.99512,13.71597-20.20654,7.71878
		c-5.49011-3.22435-10.74969-6.77012-14.27466-12.30492c2.3537-0.04717,4.70734-0.09423,7.06097-0.14137
		c1.75507,1.37091,3.51013,2.74186,5.75537,4.49561c0.22333-2.54437,0.35962-4.09742,0.49591-5.6505
		c1.51501-0.05743,3.03009-0.11486,4.54535-0.17207c-0.22614,1.55814-0.13251,3.25871-0.74799,4.64313
		c-1.1391,2.56162-0.1272,3.58086,2.17114,4.30658c4.24213,1.33945,8.31238-1.33644,9.20349-6.57213
		c0.84113-4.94159,0.60681-9.87079-1.94989-14.41628C1016.19006,33.61501,1018.05811,32.16517,1019.92621,30.71534z"/>
	<path style="&st5;" d="M1014.32202,35.06484c2.5567,4.54549,2.79102,9.47469,1.94989,14.41628
		c-0.89111,5.23568-4.96136,7.91158-9.20349,6.57213c-2.29834-0.72572-3.31024-1.74496-2.17114-4.30658
		c0.61548-1.38442,0.52185-3.08499,0.74799-4.64313C1008.29535,42.91558,1009.74817,37.86262,1014.32202,35.06484z"/>
	<path style="&st6;" d="M1001.09991,47.2756c-0.13629,1.55308-0.27258,3.10612-0.49591,5.6505
		c-2.24524-1.75375-4.00031-3.12469-5.75537-4.49561C996.93243,48.04557,999.01611,47.66056,1001.09991,47.2756z"/>
	<path style="&st2;" d="M198.2804,334.91513c-10.35069,0-20.70221-0.07355-31.05167,0.03961
		c-3.65996,0.04001-6.28064-1.33731-8.86641-3.9437c-27.67227-27.89282-55.46011-55.67072-83.23113-83.46524
		c-2.39777-2.39973-5.02486-4.57892-7.32493-7.06509c-2.8045-3.03137-2.69025-4.67818,0.26591-7.6526
		c20.9485-21.07828,41.96288-42.09135,62.82063-63.25919c2.68469-2.72461,5.62741-3.48709,9.12065-3.39656
		c8.51302,0.2207,17.02509,0.56949,25.53931,0.63533c19.9243,0.15416,39.84959,0.18001,59.77454,0.24294
		c12.15288,0.03839,24.30659,0.12712,36.45818,0.00999c2.5925-0.02498,4.50906,0.63797,6.32779,2.47369
		c20.21097,20.39943,40.47452,40.74667,60.72397,61.10791c0.28162,0.28322,0.5704,0.55963,0.84506,0.84947
		c4.61234,4.86838,4.71234,5.547,0.11566,10.17921c-12.91956,13.01947-25.94632,25.93227-38.88712,38.93068
		c-16.73218,16.80673-33.52124,33.5589-50.05402,50.56058c-3.71342,3.81873-7.72308,4.92438-12.75481,4.80951
		c-9.93507-0.22699-19.87892-0.06696-29.81915-0.06696C198.28203,335.57489,198.28122,335.24496,198.2804,334.91513z
		 M216.97539,221.7124c-3.58546,4.24571-7.17096,8.49139-10.75644,12.73709c1.03442,1.35252,2.98363,2.86781-0.5495,3.46417
		c-0.5722,0.09659-1.19589-0.1517-1.7831-0.09895c-4.26138,0.38284-4.70963,1.06989-3.99399,5.319
		c0.55919,3.32031,1.24899,6.66245,1.33937,10.00957c0.24779,9.17755,0.18832,18.36301,0.29039,27.54495
		c0.17296,15.56744,0.51651,31.1351,0.45842,46.70135c-0.01282,3.43344,1.21449,3.98596,4.09015,3.9426
		c7.17813-0.10834,14.36545-0.1944,21.53645,0.06308c3.51608,0.12628,5.96584-1.15845,8.3414-3.56552
		c11.6212-11.77573,23.33713-23.45798,35.04675-35.14587c13.68735-13.66193,27.4183-27.28003,41.09695-40.95058
		c4.32428-4.32179,8.54111-8.75131,12.99225-13.32164c-2.25888-0.53537-4.0878-0.96887-5.91669-1.40236
		c0.06299-0.33733,0.12601-0.67467,0.18906-1.01199c1.70093-0.20685,3.40192-0.41371,4.96356-0.60365
		c-20.94138-21.08801-41.81393-42.10681-62.7926-63.23245c-12.7818,14.25298-25.79276,28.76151-38.79823,43.26286
		c-2.40132-0.29974-2.44881-2.028-2.33365-3.85493c6.10046-6.58315,12.20845-13.15938,18.29927-19.75146
		c5.94093-6.42987,12.31056-12.4857,18.41541-19.79915c-39.85771-0.51938-78.56299-1.02374-118.36583-1.54242
		c21.11353,21.46468,41.37851,42.06668,61.86075,62.88953c5.63805-6.49814,10.72076-12.35626,15.80351-18.21436
		C219.76028,217.06467,218.02948,219.41782,216.97539,221.7124z M135.73315,173.23672
		c-10.49142,10.35944-20.86572,20.2982-30.88538,30.58333c-9.86081,10.12204-20.27737,19.73576-29.9951,30.75682
		c3.88443,1.37769,7.41262-0.28929,10.20296,2.79771c-3.48402,0.2195-6.96804,0.43898-11.10609,0.69968
		c2.24972,2.44717,3.79374,4.25366,5.46861,5.92911c19.31607,19.32289,38.65405,38.62386,57.98163,57.93517
		c8.60776,8.60056,17.21587,17.2009,25.79845,25.8266c1.72371,1.73236,3.41718,3.08044,6.15192,3.08102
		c8.55595,0.00198,17.1113,0.33975,25.66801,0.41431c4.55403,0.03964,4.61797-0.08505,4.57297-4.63071
		c-0.16005-16.17432-0.65245-32.35156-0.46301-48.52109c0.14436-12.32181-1.71484-24.74617,1.44881-36.97545
		c0.45041-1.74112-0.57613-3.0434-2.65121-3.07185c-1.19261-0.01636-2.42728,0.01865-3.55438-0.29196
		c-0.45703-0.12596-1.07137-1.52631-0.94908-1.64194c2.70772-2.56122,0.00607-3.69839-1.32945-5.08577
		c-4.83321-5.02095-9.72112-9.98909-14.58743-14.97807C163.71223,201.92274,149.91957,187.78137,135.73315,173.23672z"/>
	<path style="&st3;" d="M867.90515,315.94809c-0.73804-10.34348-1.41644-20.69183-2.26727-31.026
		c-0.15936-1.93542,0.76178-5.38065-1.78253-5.37692c-2.86993,0.00418-1.65332,3.43747-1.74078,5.35568
		c-0.48975,10.73306-0.78693,21.47495-1.1853,33.26474c-1.88452-1.50574-3.12341-2.29874-4.12427-3.32437
		c-19.79523-20.28494-39.55682-40.60278-59.34064-60.89886c-4.59625-4.71532-9.32239-9.30551-13.85498-14.08067
		c-4.56018-4.80417-4.50348-6.15282,0.07001-10.73822c17.60938-17.65538,35.14996-35.38104,52.90125-52.89249
		c7.08887-6.99306,14.65985-13.4959,22.00629-20.22737c1.70221-1.55968,3.61755-4.60164,5.02112-4.37639
		c2.18719,0.35094,4.13702,2.79027,5.98621,4.55603c20.35352,19.43513,40.70795,38.86957,60.96698,58.40323
		c5.60248,5.40193,10.78815,11.23628,16.37024,16.66058c2.25037,2.18661,2.31506,3.68781,0.13293,5.90701
		c-6.01233,6.11424-11.86981,12.38173-17.76245,18.61324c-13.98602,14.79004-27.87128,29.67703-41.97772,44.35083
		c-5.3573,5.57269-11.21002,10.66791-16.83685,15.98071C869.62665,316.04858,868.76587,315.99835,867.90515,315.94809z
		 M863.04932,235.59531c-0.21167,11.15907-0.41565,22.3183-0.6438,33.47702c-0.03229,1.5773-0.31921,3.16272-0.19971,4.72223
		c0.03925,0.51208,0.96582,1.28311,1.53351,1.32697c0.47955,0.03702,1.26587-0.71448,1.48346-1.28302
		c0.2677-0.69977,0.1189-1.57285,0.09406-2.3692c-0.37244-11.95877-0.75409-23.91727-1.13354-35.87582
		c0-6.13101,0-12.26199,0-18.39301c-0.37805,0.00601-0.75598,0.01198-1.13397,0.01797
		C863.04932,223.34409,863.04932,229.46968,863.04932,235.59531z M853.33704,168.19885
		c-0.71246,0.09329-1.70618-0.08423-2.09509,0.32066c-5.45203,5.6758-10.82135,11.43105-16.41925,17.38875
		c0.99255,0.36302,1.56396,0.47144,2.02197,0.76012c1.00415,0.63306,1.95081,1.35747,2.9209,2.04459
		c-1.00073,0.36749-2.13293,1.24097-2.9809,1.02011c-5.43555-1.41595-8.52667,2.07063-11.78479,5.31194
		c-5.0932,5.06696-10.16394,10.1568-15.29089,15.18936c-8.23193,8.08044-16.50195,16.12196-24.70624,24.13152
		c13.30377,16.13441,69.22626,74.58992,73.44434,76.73811c0.06439-1.05685,0.16327-2.0217,0.17615-2.98764
		c0.33972-25.52252,0.63953-51.04565,1.02063-76.56757c0.12805-8.57942,0.47327-17.15541,0.69104-25.73373
		c0.09637-3.79381-1.18756-8.37566,0.49902-11.19302c2.3139-3.86514-7.09924-5.06432-1.09766-8.39507
		c0.32068-3.68417,0.75671-7.3629,0.93024-11.054c0.1781-3.7888,0.13641-7.58986,0.11218-11.38507
		c-0.00793-1.23906-0.26294-2.47652-0.54578-4.9425c-2.46857,4.09265-6.80084,5.06262-6.96222,9.4196
		C853.27069,168.265,853.33704,168.1989,853.33704,168.19885z M871.39026,311.60934
		c5.7757-6.59717,11.35046-13.38458,17.36511-19.75562c17.50507-18.54227,35.18842-36.91576,52.79639-55.3607
		c3.22278-3.3759,3.20886-3.38547-0.04077-6.41161c-11.96503-11.1424-24.04523-22.1649-35.82721-33.49812
		c-3.91272-3.76358-7.73132-6.77678-13.49469-5.90555c-0.76337,0.1154-1.79352,0.17909-2.31348-0.22818
		c-0.70172-0.5497-1.39069-1.58022-1.38788-2.40204c0.00171-0.53836,1.16376-1.30382,1.93866-1.55074
		c0.99249-0.31633,2.11835-0.21367,4.15479-0.36212c-9.61902-9.28918-18.51965-17.88464-27.82214-26.86824
		c0,8.75351,0.04053,16.46295-0.02423,24.17148c-0.0199,2.36905,0.99426,3.05983,3.26392,3.05565
		c0.76202-0.00139,1.52655,1.38681,2.28986,2.13989c-0.67389,0.55853-1.35297,1.60011-2.02094,1.59303
		c-3.11566-0.03304-3.31708,1.53932-3.21997,4.19034c0.70062,19.12544,1.41559,38.25443,1.73145,57.38884
		c0.32574,19.74728,0.20557,39.50204,0.28046,59.25351c0.11102,0.65384,0.22192,1.30774,0.33282,1.96155
		C870.05835,312.55026,870.7243,312.07977,871.39026,311.60934z"/>
	<path style="&st2;" d="M529.74475,202.34012c17.29181,0,34.58368,0.02882,51.87537-0.00659
		c27.25629-0.05582,54.51251-0.1561,81.76874-0.23151c1.19739-0.0033,2.50665-0.24602,3.56738,0.15005
		c1.77545,0.66284,3.39246,1.75117,5.07617,2.66043c-1.01611,1.36432-1.88116,2.88048-3.07251,4.06882
		c-9.17639,9.15363-18.41803,18.24164-27.63538,27.35414c-12.34283,12.20236-24.62195,24.47005-37.03931,36.59584
		c-12.84045,12.53897-26.13538,24.63354-38.52557,37.59885c-3.54663,3.7113-6.64941,3.74207-10.83276,3.65942
		c-18.73041-0.37021-37.46539-0.65067-56.19839-0.63162c-4.15729,0.00424-6.92273-1.33835-9.82523-4.2085
		c-29.21344-28.88763-58.58578-57.61404-87.89148-86.40833c-4.4043-4.32745-8.73096-8.73615-13.01013-13.18765
		c-0.88867-0.92445-1.40756-2.20529-2.09686-3.32191c1.32791-0.67464,2.61826-1.83333,3.99017-1.94002
		c5.94586-0.46233,11.91354-0.78279,17.87695-0.85516c23.91827-0.29036,47.83755-0.52608,71.75714-0.66991
		c16.73782-0.10065,33.47668-0.01938,50.21503-0.01938C529.74432,202.74478,529.74457,202.54243,529.74475,202.34012z
		 M527.66199,210.95171c-0.46063-0.59395-0.9212-1.18793-1.38184-1.78188c-2.1792-0.42372-4.35742-1.21083-6.53778-1.2169
		c-35.05609-0.0979-70.11249-0.09706-105.16879-0.11668c-7.47809-0.00418-14.95621-0.00055-22.44159-0.00055
		c0,0.64035-0.16095,1.17331,0.0228,1.353c21.51117,21.03964,43.04788,42.05301,64.58319,63.06754
		c0.83847,0.58789,1.67691,1.17572,2.51538,1.76364c11.52402,11.53839,23.0332,23.0918,34.60532,34.58163
		c0.77145,0.7659,2.01599,1.48001,3.04813,1.491c10.33322,0.10959,20.66803,0.06659,30.66455,0.06659
		c0.27032-5.00919,0.49396-9.15228,0.71753-13.29538c0.48413-0.03134,0.96832-0.06268,1.45245-0.09412
		c0.07452,2.99255,0.28925,5.99014,0.18353,8.97632c-0.10272,2.89975,0.62579,4.30673,3.96271,4.22455
		c7.9715-0.19632,15.96014-0.20084,23.92633,0.11368c3.81403,0.1506,6.2771-1.40793,8.71838-4.03094
		c6.12061-6.5762,12.44067-12.96667,18.69818-19.41458c2.89197-2.97995,5.82489-5.91989,8.73926-8.87802
		c-0.08649-0.41205-0.17291-0.82413-0.2594-1.23618c-2.9201,0-5.84332,0.07999-8.75922-0.03082
		c-1.68481-0.06396-3.81683,0.21915-3.70435-2.57019c4.43823,0.05405,8.87646,0.10818,13.31464,0.16232
		c2.16351,2.15091,3.51538,0.64987,4.81793-1.07333c0.48041-0.63669,0.8894-1.34613,1.4516-1.89954
		c15.06067-14.82468,30.15424-29.61591,45.20245-44.45329c6.05811-5.97328,12.02295-12.04137,18.03021-18.06628
		c-0.09979-0.41193-0.19958-0.82388-0.29932-1.23584c-14.53479-0.45967-29.09369,0.49513-43.63196,0.26653
		c-14.53308-0.22855-29.07507,0.15565-43.61334,0.20271c-14.62823,0.04739-29.25665,0.01038-43.88501,0.01038
		c-0.12225,0.41528-0.24451,0.83054-0.36676,1.24583c1.70258,1.58171,3.53009,3.05452,5.047,4.79819
		c0.61633,0.70848,1.10126,2.37755,0.70142,2.96483c-1.11792,1.64204-2.26141,0.5329-3.39001-0.45924
		c-1.90979-1.6787-3.96039-3.19687-5.95172-4.78255c-0.31378-0.24751-0.66003-0.30777-1.03876-0.18076
		C527.63513,211.42336,527.66223,210.95119,527.66199,210.95171z"/>
	<path style="&st7;" d="M1018.70068,252.36009c1.49463,3.08784,2.95227,5.20424,3.57971,7.54393
		c3.50708,13.0762,6.96924,26.16931,10.08606,39.34229c0.85083,3.59622,1.01575,7.56424,0.51343,11.22665
		c-0.92224,6.72501-5.70459,10.00162-12.37958,8.82602c-2.89331-0.50952-5.82343-1.48434-8.42584-2.8443
		c-7.07983-3.69955-13.94171-7.9205-19.14331-14.06674c-3.16693-3.74182-5.70392-8.11902-7.92847-12.513
		c-0.9812-1.93811-0.99689-4.72879-0.55627-6.95486c1.1095-5.60596,5.74792-7.91495,10.85834-5.29962
		c2.56915,1.31476,5.09778,3.33463,6.76648,5.66589c4.34027,6.06369,7.36133,12.72556,6.64697,20.53912
		c-0.0755,0.82602,0.30109,2.19867,0.88635,2.49826c3.85895,1.97525,7.77307,3.87469,11.79279,5.49066
		c2.18726,0.87936,3.57703-0.61758,3.58606-2.69553c0.01404-3.16147,0.0249-6.43442-0.73389-9.46661
		c-2.17548-8.69241-4.83112-17.26309-7.11743-25.92935c-1.59735-6.05438-1.92004-12.18527,0.07556-18.25819
		C1017.43555,254.77126,1017.8385,254.13544,1018.70068,252.36009z M1001.81146,300.68356
		c0.16333-0.00272,0.32812,0.00562,0.48932-0.01437c0.05341-0.00674,0.09778-0.08627,0.14618-0.13257
		c-0.24402,0.09955-0.4881,0.1991-0.73218,0.29861c0.61462-5.72198-2.14551-10.16818-5.57483-14.27118
		c-1.01215-1.21097-2.55017-1.98135-4.28619-3.28284C991.6955,290.02701,994.19226,294.1561,1001.81146,300.68356z"/>
	<path style="&st8;" d="M1008.62524,108.78144c2.15686,1.97167,4.685,3.66528,6.40338,5.9654
		c6.01123,8.0465,10.59357,16.87633,12.70819,26.77617c0.57153,2.67508,0.66296,5.58051,0.32361,8.29874
		c-0.95984,7.68724-7.3006,11.48958-14.41003,8.37773c-10.14612-4.44096-18.54364-11.26048-24.33337-20.79825
		c-1.68188-2.77097-2.64685-6.26843-2.94617-9.52449c-0.48389-5.26403,2.03967-7.30111,7.3028-6.4898
		c4.56744,0.70401,8.15515,3.36562,10.76019,6.97471c4.08258,5.65633,8.0025,11.46266,7.02795,19.11269
		c-0.30438,2.38953,2.54962,4.19385,5.86169,4.32538c2.59912,0.10316,3.68243-1.29103,3.63184-3.61162
		c-0.04712-2.16597-0.00372-4.47884-0.73169-6.45717c-1.98553-5.39548-4.36212-10.64655-6.57489-15.95851
		c-2.19879-5.27839-4.38666-10.56128-6.57941-15.84219C1007.58801,109.54731,1008.10663,109.16436,1008.62524,108.78144z
		 M1006.7348,146.65544c-1.45264-10.02087-7.63556-17.82843-14.65442-18.90257
		C993.8114,136.35826,999.2475,141.61794,1006.7348,146.65544z"/>
	<path style="&st9;" d="M1009.54523,362.21344c4.40369-3.27991,8.6955-5.71786,9.75238-10.91394
		c1.54968-7.61804,2.40027-15.07751-3.89984-21.2218c-3.89014-3.79388-6.95319-3.2616-9.15692,1.76328
		c-1.03259,2.35419-1.52692,4.93924-2.37555,7.38126c-2.23761,6.43918-6.23456,7.9621-11.99127,4.63113
		c-7.31702-4.23376-13.69116-19.21265-11.6283-27.29187c0.54895-2.15002,1.55963-4.00729,4.0777-3.0513
		c1.87769,0.71286,3.60254,2.0726,1.52197,4.51044c-0.45526,0.53348-0.66748,1.47253-0.625,2.20343
		c0.41473,7.13394,3.55548,12.9563,8.81543,17.65768c1.8139,1.62125,3.14429,1.14307,3.91486-1.23581
		c1.03973-3.2092,1.85065-6.57446,3.43152-9.51001c3.89856-7.23965,10.3667-8.50827,17.03839-3.70425
		c9.76849,7.03381,12.63751,25.47339,5.45062,35.03204C1020.2038,363.34158,1015.85406,364.67413,1009.54523,362.21344z"/>
	<path style="&st10;" d="M423.10745,138.89355c-14.95938,0.12178-21.42084-12.09967-23.11368-23.1607
		c-0.97977-6.40171,0.75369-12.1994,4.77023-17.35711c4.133-5.30717,9.3074-9.28245,15.26749-12.21999
		c19.23276-9.47912,34.65125,8.28592,33.4184,23.29603c-0.90601,11.03062-11.5278,25.86912-22.74271,28.16048
		C428.19165,138.12619,425.6416,138.4709,423.10745,138.89355z M422.87485,133.74277
		c15.34714,1.17229,28.93002-17.44003,25.08264-31.48511c-3.05099-11.13812-14.46854-17.19739-24.25632-12.09202
		c-3.17587,1.65655-6.52881,3.14605-9.32431,5.32475c-5.99457,4.67203-12.3739,9.46491-10.18729,18.59555
		c0.87033,3.63425,2.17548,7.22987,3.77542,10.60922C411.00409,131.11435,416.25229,134.18326,422.87485,133.74277z"/>
	<path style="&st11;" d="M93.72865,107.639c-1.18196,1.98116-2.36392,3.96227-3.5459,5.94339
		c-0.37144-0.04897-0.74289-0.09794-1.11433-0.1469c0.22977-2.36806-0.01109-4.90437,0.76395-7.07748
		c6.07899-17.04492,25.59167-23.25021,37.97222-16.4372c8.01785,4.41221,13.50873,10.7173,12.43874,20.62636
		c-0.28949,2.68088-1.09995,5.64768-2.63783,7.78647c-4.5031,6.26246-10.49573,10.96458-17.65016,13.8951
		c-7.4277,3.04248-14.20215,1.13538-19.31823-5.07105C96.00047,121.53289,93.8232,115.10741,93.72865,107.639z M118.57084,126.43514
		c0.3297,0.17895,0.75729,0.59328,0.97487,0.50264c6.4342-2.68233,11.44735-7.10282,15.17138-12.93531
		c0.6929-1.0852,0.7822-2.66138,0.84909-4.02577c0.4684-9.55409-9.6944-18.68649-19.69896-18.06863
		c-7.02617,0.43401-12.31017,3.49039-15.00407,9.92269c-3.41959,8.16512-2.50587,15.98206,3.45801,22.88715
		c3.53256,4.09009,8.08318,4.75293,13.02876,3.7532c0.55746-0.11269,0.88197-1.38071,1.31449-2.113L118.57084,126.43514z"/>
	<path style="&st12;" d="M764.3584,114.54398c-1.39526-4.44685-0.30756-7.38033,1.72235-10.18968
		c4.88757-6.76474,11.96979-10.01604,19.77753-11.19489c8.17261-1.23393,16.1925-0.13888,23.72394,4.01083
		c11.83179,6.51917,14.9151,19.93349,6.48199,30.42881c-7.34424,9.14001-16.91919,13.79431-28.75415,12.95834
		c-10.11713-0.71458-16.37421-7.26602-15.69342-17.33282c0.39624-5.8586,2.48859-11.60011,3.7818-17.40227
		c0.19861-0.8912,0.20349-1.82568,0.29797-2.74014c-1.05298,0.1635-2.46558-0.04618-3.09247,0.55941
		c-1.98792,1.9205-3.74994,4.09222-5.46283,6.27404C766.22345,111.08442,765.58551,112.4732,764.3584,114.54398z
		 M793.32117,97.24419c-0.99384,0-1.98987,0.04234-2.9812-0.00729c-4.38214-0.21916-7.38678,1.41603-9.55914,5.52238
		c-3.43195,6.48727-5.57074,13.15063-5.32672,20.53121c0.26154,7.90479,3.93121,12.18793,11.59143,13.4186
		c10.9259,1.75529,24.52954-5.935,28.68372-16.21521c2.95819-7.32041,0.64984-14.30344-6.00885-18.65375
		C804.70996,98.56675,799.23102,97.22422,793.32117,97.24419z M777.51996,101.60361
		c-0.12616-0.12013-0.25739-0.24495-0.38843-0.36984c-0.12225,0.13354-0.24451,0.26704-0.36676,0.40057
		c0.18896,0.12833,0.37793,0.25664,0.56689,0.38497C777.39178,101.88661,777.45184,101.75396,777.51996,101.60361z"/>
	<path style="&st8;" d="M991.53156,193.24303c-1.49481-3.3131,0.10132-5.2612,2.28589-6.34442
		c3.39001-1.68098,2.53802-3.16176,0.58746-5.3593c-1.83618-2.06876-3.50793-4.36559-4.82758-6.79341
		c-2.07599-3.81924-2.47607-7.97446-1.07574-12.14813c0.94507-2.81648,2.87463-4.57013,6.53735-5.09698
		c-0.19104,2.17332-0.08264,3.95026-0.53937,5.56718c-1.32355,4.68642,0.0459,8.66385,2.92529,12.24815
		c1.49188,1.8571,3.25934,3.49133,4.89105,5.23674c2.56989,2.74881,5.55585,4.05592,9.48541,4.10298
		c3.93597,0.04713,7.91699,0.87622,11.76813,1.81512c2.45911,0.59959,4.98462,1.6593,7.01038,3.15205
		c3.88538,2.86308,3.17529,7.92326-1.4303,9.28333c-2.70471,0.79869-6.04626,0.8493-8.71954,0.01305
		c-4.1192-1.28857-8.34778-3.05386-11.74377-5.64845C1002.8576,188.81783,997.51202,189.29614,991.53156,193.24303z
		 M1024.20093,192.74416c-0.3634-0.14517-0.70477-0.39049-1.03033-0.3709c-0.19727,0.01183-0.36987,0.43382-0.55353,0.67155
		c0.32758,0.12822,0.66467,0.37097,0.97955,0.34494C1023.81146,193.37192,1023.99524,192.97867,1024.20093,192.74416z
		 M1019.95258,191.27657c-0.19189,0.21458-0.38391,0.42914-0.57581,0.64372c0.32849,0.12636,0.66248,0.35779,0.98328,0.34068
		c0.20038-0.01067,0.38086-0.39603,0.57037-0.61317C1020.60486,191.52361,1020.2793,191.3994,1019.95258,191.27657z"/>
	<path style="&st4;" d="M1016.40546,88.21548c-2.18378-1.33242-4.35449-2.68684-6.55365-3.99333
		c-7.81683-4.64386-14.42633-10.67899-19.86957-17.90765c-1.61151-2.14014-2.52625-4.89016-3.34827-7.49127
		c-0.2453-0.77626,0.72168-2.20709,1.51288-2.90868c0.31848-0.28231,1.82977,0.39419,2.492,0.98085
		c1.02905,0.91159,1.83502,2.09037,2.6684,3.20626c6.03674,8.08437,13.11383,14.98576,22.09027,19.79359
		c1.74841,0.93646,3.28046,2.27031,4.99866,3.27236c5.53876,3.23003,3.81451,9.43037-0.7182,11.30158
		c-3.28424,1.35582-6.64081,2.89179-10.10156,3.38132c-5.49408,0.77711-11.10059,0.78176-16.66364,1.01498
		c-0.67841,0.02846-1.38214-0.54839-2.07404-0.84472c0.46271-0.77531,0.78577-2.07502,1.41046-2.24174
		c4.4046-1.17548,8.88287-2.06982,13.31433-3.14986c3.60419-0.87841,7.17584-1.89028,10.76196-2.84301
		C1016.35211,89.26262,1016.37885,88.73903,1016.40546,88.21548z"/>
	<path style="&st13;" d="M867.90515,315.94809c0.86072,0.05026,1.7215,0.10049,2.58221,0.15076
		c-0.66797,0.56644-1.33582,1.13287-2.00366,1.69931C868.29089,317.18149,868.09808,316.56479,867.90515,315.94809z"/>
	<path style="&st14;" d="M135.73315,173.23672c14.18642,14.54465,27.97908,28.68602,41.7722,42.8269
		c4.86632,4.98898,9.75423,9.95712,14.58743,14.97807c1.33553,1.38737,4.03717,2.52455,1.32945,5.08577
		c-0.12228,0.11563,0.49205,1.51598,0.94908,1.64194c1.12711,0.31061,2.36177,0.2756,3.55438,0.29196
		c2.07509,0.02846,3.10162,1.33073,2.65121,3.07185c-3.16365,12.22928-1.30444,24.65364-1.44881,36.97545
		c-0.18944,16.16953,0.30296,32.34677,0.46301,48.52109c0.045,4.54565-0.01894,4.67035-4.57297,4.63071
		c-8.55672-0.07455-17.11206-0.41232-25.66801-0.41431c-2.73474-0.00058-4.42821-1.34866-6.15192-3.08102
		c-8.58258-8.6257-17.19069-17.22604-25.79845-25.8266c-19.32758-19.31131-38.66556-38.61227-57.98163-57.93517
		c-1.67487-1.67545-3.21889-3.48193-5.46861-5.92911c4.13805-0.2607,7.62208-0.48018,11.10609-0.69968
		c-2.79034-3.08701-6.31853-1.42003-10.20296-2.79771c9.71774-11.02106,20.13429-20.63478,29.9951-30.75682
		C114.86743,193.53493,125.24173,183.59616,135.73315,173.23672z M169.26042,238.4626
		c2.43356-0.60962,4.55234-1.14035,6.6711-1.67111c-1.41728-3.46143-4.3936-1.46266-6.56538-1.59956
		c-1.78545-0.11258-4.3483-1.53671-5.61449,1.30293C165.59538,237.15344,167.43912,237.81204,169.26042,238.4626z
		 M101.30817,235.29784c-0.04104,0.58882-0.08209,1.17764-0.12313,1.76646c3.20846,1.45636,6.74347,0.53667,10.11443,0.70953
		c0.37943,0.01941,1.18817-1.09319,1.11932-1.58571c-0.07087-0.50679-0.97542-1.27942-1.51048-1.27562
		C107.70752,234.93518,104.50808,235.14848,101.30817,235.29784z M136.93291,238.01271
		c0.00186-0.04428,0.00372-0.08853,0.00558-0.13281c1.77553,0,3.55688,0.07574,5.32196-0.06021
		c0.37889-0.02914,0.94533-0.81105,0.96942-1.27019c0.01987-0.37856-0.6228-1.12585-0.99214-1.13904
		c-3.53529-0.12584-7.07541-0.16591-10.61247-0.11525c-0.35973,0.00516-0.98071,0.76274-0.98495,1.17628
		c-0.00414,0.40205,0.58974,1.11218,0.98907,1.16434C133.38376,237.86481,135.1628,237.90443,136.93291,238.01271z
		 M153.11581,237.95787c0.86423-0.10954,1.27115-0.11145,1.64877-0.21765c1.53479-0.43163,3.06056-0.89523,4.58968-1.34703
		c-1.55931-0.50316-3.1114-1.03111-4.68341-1.49071c-0.3588-0.1049-0.79599-0.02139-1.18074,0.0565
		c-2.00259,0.40533-3.99989,0.83685-5.99902,1.25928C148.76982,239.51572,151.5833,237.23618,153.11581,237.95787z
		 M121.67648,238.52315c1.85182-0.72217,3.51027-1.3689,5.1687-2.01566c-1.75774-0.46916-3.51906-1.31677-5.27224-1.30019
		c-1.72693,0.01627-3.44561,0.90822-5.1679,1.416C118.09536,237.23248,119.78568,237.84166,121.67648,238.52315z
		 M88.16778,236.48808c3.03,2.27327,6.05036,0.92195,8.80866,1.22115c0.31902,0.03468,0.99201-0.73019,1.01431-1.15028
		c0.02053-0.3869-0.59691-1.14262-0.96357-1.16199C94.20859,235.24803,91.26227,234.36812,88.16778,236.48808z M180.74823,235.69475
		c-0.04781,0.40346-0.09561,0.80688-0.14343,1.21031c1.35944,0.3672,2.72937,1.06029,4.07559,1.01685
		c1.58475-0.05116,4.52672-0.82271,4.50784-1.14087c-0.17862-3.01262-2.60358-1.21506-4.04808-1.43719
		C183.72746,235.12651,182.21622,235.55162,180.74823,235.69475z"/>
	<path style="&st15;" d="M222.72412,215.43123c13.01096-14.50853,26.02191-29.01706,38.80371-43.27003
		c20.97867,21.12564,41.85123,42.14444,62.7926,63.23245c-1.56165,0.18994-3.26263,0.3968-4.96356,0.60365
		c-0.06305,0.33733-0.12607,0.67467-0.18906,1.01199c1.82889,0.43349,3.65781,0.86699,5.91669,1.40236
		c-4.45114,4.57033-8.66797,8.99985-12.99225,13.32164c-13.67865,13.67055-27.40961,27.28865-41.09695,40.95058
		c-11.70963,11.6879-23.42555,23.37015-35.04675,35.14587c-2.37556,2.40707-4.82532,3.6918-8.3414,3.56552
		c-7.17101-0.25748-14.35832-0.17142-21.53645-0.06308c-2.87566,0.04337-4.10297-0.50916-4.09015-3.9426
		c0.05809-15.56625-0.28546-31.13391-0.45842-46.70135c-0.10207-9.18195-0.0426-18.3674-0.29039-27.54495
		c-0.09038-3.34712-0.78018-6.68925-1.33937-10.00957c-0.71564-4.24911-0.2674-4.93616,3.99399-5.319
		c0.5872-0.05275,1.21089,0.19554,1.7831,0.09895c3.53313-0.59636,1.58392-2.11165,0.55144-3.46355
		c1.48549,0.34615,2.96906,0.6917,4.45261,1.03722c0.55319,0.79033,1.02934,2.17949,1.67349,2.26254
		c2.23958,0.28873,4.53738,0.12463,6.81303,0.13274c0.39738,0.03409,0.79538,0.0582,1.19398,0.0723
		c0.39555,7.53448-1.9325,14.51279-4.32283,21.48997c-0.7515,2.19348-0.69043,4.88724-4.05661,5.02393
		c-0.40802,0.01663-1.06232,1.14093-1.10121,1.78232c-0.13617,2.24481-0.05276,4.50296-0.05276,7.65555
		c4.02597-2.98303,8.97198-3.71228,7.22319-9.52496c-0.13225-0.43964,0.40883-1.09158,0.65721-1.63553
		c3.58914-7.85942,5.55801-16.1597,6.70602-24.68375c1.98553-0.10768,3.97777-0.15477,5.95087-0.37431
		c0.39244-0.04369,0.96194-0.73177,0.98837-1.15178c0.02267-0.36067-0.5878-1.06374-0.9633-1.09636
		c-1.97801-0.17195-3.97032-0.17935-5.95767-0.24385c-0.86797-5.23705-1.77269-10.46848-2.57831-15.7151
		C222.64351,218.15613,222.75653,216.78247,222.72412,215.43123z M252.36884,237.97044
		c0.00002-0.01598,0.00003-0.03191,0.00006-0.04787c0.78525,0,1.60304,0.13646,2.34589-0.04121
		c0.64618-0.15456,1.20763-0.66408,1.80652-1.01671c-0.6432-0.50154-1.24034-1.33995-1.93904-1.43576
		c-1.53847-0.21086-3.13557-0.12494-4.69133,0.02313c-0.35455,0.03378-0.91451,0.83411-0.88109,1.24049
		c0.03705,0.45053,0.57744,1.09808,1.02112,1.22266C250.75821,238.11938,251.5844,237.97044,252.36884,237.97044z
		 M291.93024,237.33858c0.00885-0.41411,0.01773-0.82819,0.02661-1.24231c-2.44592,0-4.89182,0-7.33771,0
		c-0.00439,0.41412-0.00882,0.8282-0.01328,1.24231C287.04733,237.33858,289.48877,237.33858,291.93024,237.33858z
		 M281.07248,237.28197c-3.37338-2.49391-6.06158-2.05107-9.73123-1.06627
		C274.64139,238.83778,277.38791,237.8261,281.07248,237.28197z M236.31764,235.37109
		c-0.01794,0.73279-0.03587,1.46558-0.0538,2.19838c2.37646,0.09265,4.75305,0.23538,7.1292,0.22809
		c0.3907-0.00121,0.7794-0.66122,1.16907-1.01674c-0.47325-0.46989-0.92238-1.31316-1.42387-1.34567
		C240.87279,235.28844,238.59254,235.37109,236.31764,235.37109z M266.99295,237.43007c-3.63174-2.10915-3.63174-2.10915-7.18146,0
		C262.81888,237.43007,264.90591,237.43007,266.99295,237.43007z M296.18524,235.96222c4.78821,2.36842,4.78821,2.36842,8.53513,0
		C301.8024,235.96222,299.68134,235.96222,296.18524,235.96222z M307.91013,236.46703
		c2.52536,1.90105,4.45227,1.99544,6.47568,0.87288c0.22769-0.12628,0.21698-0.68343,0.3168-1.0408
		c-1.65598-0.2291-3.30856-0.49184-4.97076-0.65881C309.40106,235.60703,309.03354,235.94043,307.91013,236.46703z"/>
	<path style="&st16;" d="M216.40903,215.15126c-5.08272,5.85809-10.16544,11.71622-15.80348,18.21436
		c-20.48224-20.82285-40.74722-41.42485-61.86075-62.88953c39.80284,0.51868,78.50812,1.02304,118.36583,1.54242
		c-6.10484,7.31345-12.47447,13.36928-18.41541,19.79915c-6.09082,6.59209-12.19881,13.16832-18.29825,19.75049
		c-2.23077-0.96097-2.18478-4.90892-5.80727-4.37994C215.21458,209.9232,215.81181,212.53723,216.40903,215.15126z"/>
	<path style="&st12;" d="M216.40906,215.15126c-0.59724-2.61403-1.19447-5.22806-1.81935-7.96306
		c3.62248-0.52898,3.57649,3.41898,5.80727,4.37994c-0.11618,1.82791-0.0687,3.55617,2.32988,3.8595
		c0.02968,1.35483-0.08334,2.72849,0.12012,4.05339c0.80562,5.24663,1.71034,10.47806,2.57806,15.715
		c-0.00616,0.9554-0.0121,1.9109-0.01802,2.86641c-1.14801,8.52405-3.11688,16.82433-6.70602,24.68375
		c-0.24838,0.54395-0.78946,1.19589-0.65721,1.63553c1.74879,5.81268-3.19722,6.54193-7.22319,9.52496
		c0-3.15259-0.0834-5.41074,0.05276-7.65555c0.03889-0.64139,0.69319-1.76569,1.10121-1.78232
		c3.36618-0.13669,3.30511-2.83044,4.05661-5.02393c2.39034-6.97719,4.71838-13.95549,4.32292-21.48997
		c-0.00519-1.19133-0.01047-2.38271-0.01575-3.57405c-0.24774-3.44919-0.33249-6.92336-0.85431-10.33051
		c-0.13583-0.88687-1.63541-1.56432-2.50865-2.33795C218.02948,219.41782,219.76028,217.06467,216.40906,215.15126z"/>
	<path style="&st0;" d="M216.97539,221.7124c0.87325,0.77364,2.37282,1.45108,2.50865,2.33795
		c0.52182,3.40715,0.60657,6.88132,0.85435,10.33047c-0.31464,0.34688-0.62933,0.69379-0.94402,1.04066
		c-2.90695,0.02193-5.81392,0.04391-8.72089,0.06584c-1.48355-0.34552-2.96712-0.69107-4.45261-1.03722
		C209.80443,230.2038,213.38992,225.95811,216.97539,221.7124z"/>
	<path style="&st17;" d="M869.05957,311.05917c-0.07489-19.75146,0.04529-39.50623-0.28046-59.25351
		c-0.31586-19.13441-1.03082-38.2634-1.73145-57.38884c-0.09711-2.65102,0.10431-4.22337,3.21997-4.19034
		c0.66797,0.00708,1.34705-1.0345,2.02094-1.59306c-0.76331-0.75305-1.52783-2.14125-2.28986-2.13986
		c-2.26965,0.00418-3.28381-0.6866-3.26392-3.05565c0.06476-7.70853,0.02423-15.41797,0.02423-24.17148
		c9.30249,8.9836,18.20312,17.57906,27.82214,26.86824c-2.03644,0.14845-3.16229,0.04579-4.15479,0.36212
		c-0.7749,0.24692-1.93695,1.01237-1.93866,1.55074c-0.00281,0.82182,0.68616,1.85234,1.38788,2.40204
		c0.51996,0.40727,1.55011,0.34358,2.31348,0.22818c5.76337-0.87123,9.58197,2.14197,13.49469,5.90555
		c11.78198,11.33322,23.86218,22.35573,35.82721,33.49812c3.24963,3.02614,3.26355,3.03571,0.04077,6.41161
		c-17.60797,18.44495-35.29132,36.81844-52.79639,55.3607c-6.01465,6.37103-11.58942,13.15845-17.36511,19.75549
		C870.6134,311.42587,869.83655,311.24252,869.05957,311.05917z M881.32599,185.57494
		c-1.61115,1.47588-4.29523-0.58255-4.19348,2.70032c0.06543,2.10916,1.50568,2.5739,3.24988,2.25046
		c1.52972-0.28369,4.05267,0.9724,4.14587-1.70906C884.56238,187.83539,882.58374,186.78397,881.32599,185.57494z"/>
	<path style="&st18;" d="M853.26996,168.26413c0.16211-4.35611,4.49438-5.32608,6.96295-9.41873
		c0.28284,2.46599,0.53784,3.70345,0.54578,4.9425c0.02423,3.79521,0.06592,7.59627-0.11218,11.38507
		c-0.17352,3.6911-0.60956,7.36983-0.93024,11.054c-6.00159,3.33075,3.41156,4.52992,1.09766,8.39507
		c-1.68658,2.81737-0.40265,7.39922-0.49902,11.19302c-0.21777,8.57832-0.56299,17.15431-0.69104,25.73373
		c-0.3811,25.52191-0.68091,51.04504-1.02063,76.56757c-0.01288,0.96594-0.11176,1.93079-0.17615,2.98764
		c-4.21808-2.14819-60.14056-60.6037-73.44434-76.73811c8.20428-8.00955,16.4743-16.05107,24.70624-24.13152
		c5.12695-5.03256,10.19769-10.12241,15.29089-15.18936c3.25812-3.2413,6.34924-6.72789,11.78479-5.31194
		c0.84796,0.22086,1.98016-0.65262,2.9809-1.02014c-0.97009-0.68709-1.91675-1.4115-2.9209-2.04456
		c-0.45801-0.28868-1.02942-0.39709-2.02197-0.76012c5.5979-5.9577,10.96722-11.71295,16.41925-17.38875
		c0.38892-0.40489,1.38263-0.22737,2.09552-0.32025c-1.94592,4.85724-3.87732,9.72018-5.85071,14.56599
		c-0.43427,1.06651-0.75659,2.61041-1.57916,3.01094c-3.28369,1.59904-0.8974,3.55881-0.60852,5.38522
		c-1.57501,6.30626-1.91302,12.52385,0.74017,18.70703c0.79626,1.85582,3.67346,3.77745,0.54565,6.12903
		c-0.16266,0.12233,0.086,1.29584,0.4342,1.51385c2.00928,1.258,4.08038,2.42685,6.19598,3.49593
		c0.40472,0.20459,1.27246,0.01755,1.63574-0.3111c1.87512-1.69598,0.56354-8.49672-1.85565-8.74951
		c-2.25409-0.23553-2.72443-1.56052-2.88147-3.05672c-0.61914-5.90157-1.03839-11.82411-1.53186-17.73885
		c0.33398-0.36446,0.66791-0.72896,1.00171-1.0934c1.17242-0.32407,2.34491-0.64812,3.51733-0.97218
		c-0.76282-0.90244-1.52557-1.80492-2.28839-2.70735c0.27844-1.50792,0.4129-3.06056,0.86346-4.51501
		c1.14886-3.70905,2.36304-7.40215,3.69995-11.04692C856.21069,168.54005,855.25665,168.05086,853.26996,168.26413z"/>
	<path style="&st19;" d="M864.18329,235.59348c0.37946,11.95856,0.76111,23.91705,1.13354,35.87582
		c0.02484,0.79636,0.17365,1.66943-0.09406,2.3692c-0.21759,0.56854-1.00391,1.32004-1.48346,1.28302
		c-0.56769-0.04385-1.49426-0.81488-1.53351-1.32697c-0.11951-1.55951,0.16742-3.14493,0.19971-4.72223
		c0.22815-11.15872,0.43213-22.31795,0.6438-33.47702C863.42731,235.59468,863.80524,235.5941,864.18329,235.59348z"/>
	<path style="&st20;" d="M864.18329,235.59348c-0.37805,0.00063-0.75598,0.00121-1.13397,0.00183c0-6.12563,0-12.25122,0-18.37686
		c0.37799-0.006,0.75592-0.01196,1.13397-0.01797C864.18329,223.33148,864.18329,229.46246,864.18329,235.59348z"/>
	<path style="&st13;" d="M869.05957,311.05917c0.77698,0.18335,1.55383,0.3667,2.33069,0.55005
		c-0.66595,0.47055-1.33191,0.94104-1.99786,1.4115C869.28149,312.36691,869.17059,311.71301,869.05957,311.05917z"/>
	<path style="&st16;" d="M456.73807,272.2565c-21.5354-21.0148-43.07211-42.02817-64.58328-63.06781
		c-0.18375-0.17969-0.0228-0.71265-0.0228-1.353c7.48538,0,14.9635-0.00363,22.44159,0.00055
		c35.0563,0.01962,70.1127,0.01878,105.16879,0.11668c2.18036,0.00607,4.35858,0.79318,6.53772,1.2169
		c-1.09448,0.97972-2.18909,1.95947-3.2829,2.93951c-0.34058,0.32938-0.68182,0.6584-1.02319,0.98741
		c-0.42615,0.66248-0.85223,1.32494-1.27832,1.98741c0.69623-0.31827,1.39252-0.63654,2.08875-0.95485
		c0.40881-0.38884,0.81763-0.77773,1.22638-1.16661c1.21716-0.67053,2.43427-1.34102,3.65143-2.01152
		c0,0-0.0271,0.47217-0.0271,0.47217c-0.00446,2.45461-0.00891,4.90926-0.01337,7.36385
		c-0.13251,2.56181-0.37823,5.12361-0.37878,7.68546c-0.00354,15.41862,0.04913,30.83722,0.08301,46.25595
		c-1.59619,0.15552-3.19238,0.3111-4.78851,0.46661c-2.35516-0.0332-4.71039-0.06638-7.06555-0.09949
		c-2.1582-0.13712-4.31531-0.37137-6.47479-0.39575c-14.62534-0.16541-29.25113-0.28641-43.87677-0.42172
		c0.03595-0.36713-0.03845-0.71024-0.22318-1.0293c0.91608-1.00104,1.92651-1.93475,2.7074-3.03217
		c0.37756-0.53064,0.32401-1.36877,0.4657-2.06772c-0.88904-0.10892-2.0863-0.638-2.61172-0.25146
		c-1.89154,1.39133-3.48587,3.18118-5.33572,4.63824C459.14758,271.30411,457.87589,271.69519,456.73807,272.2565z
		 M490.39688,241.91066c-5.44244-4.47388-7.86093-10.86479-10.71698-16.97412c-1.08215-2.31488-2.10196-4.65898-3.38348-7.50841
		c-0.64615,1.13969-0.85632,1.33524-0.82712,1.48357c3.41058,17.33473,11.57736,30.78923,29.53836,36.24258
		c0.93359,0.2834,2.44003,0.44432,2.65863,1.03874c1.7038,4.63226,4.44839,1.70511,6.71835,0.9061
		c0.44733-0.15747,0.745-2.5923,0.42194-2.77879c-1.55554-0.89767-3.3147-1.50925-5.06763-1.97116
		c-1.04471-0.27519-2.44366,0.31505-3.28461-0.17287c-4.61731-2.67842-9.11139-5.56973-13.6478-8.38795
		c0.39337-0.42177,0.95181-0.77963,1.14462-1.27901c0.36081-0.93468,0.5097-1.95139,0.74673-2.93399
		c-0.83569,0.29669-1.71765,0.50583-2.49289,0.91679C491.53894,240.8452,490.99487,241.42889,490.39688,241.91066z
		 M477.62726,254.86385c1.2049,0.3502,2.32083,1.01897,2.70355,0.72633c1.6969-1.29747,3.28738-2.77931,4.69879-4.38597
		c0.63327-0.72096,0.75586-1.89165,1.11017-2.85825c-0.98044,0.21477-2.1431,0.16876-2.90201,0.70049
		c-1.43137,1.00272-2.65808,2.30997-3.91257,3.54884C478.80588,253.10818,478.43408,253.7708,477.62726,254.86385z
		 M506.02325,230.08366c-1.16907-0.08299-2.25607-0.49803-2.69217-0.13313c-1.98334,1.65933-3.83981,3.48537-5.60794,5.37698
		c-0.41702,0.44609-0.31473,1.37874-0.45132,2.08754c0.8356-0.11482,1.90781,0.05916,2.46359-0.39726
		c1.84424-1.5144,3.52527-3.23311,5.21509-4.92723C505.32758,231.71252,505.48541,231.1152,506.02325,230.08366z
		 M517.31689,219.71634c-0.4585-0.45465-0.91699-0.90929-1.37549-1.36394c-2.64661,2.31575-5.33002,4.59196-7.89948,6.99055
		c-0.37875,0.35358-0.21759,1.287-0.30621,1.95215c0.68781,0.05872,1.68546,0.44075,2.01425,0.12489
		C512.3443,224.92723,514.81097,222.30133,517.31689,219.71634z M476.31732,258.3183
		c-0.44485-0.21072-1.39951-0.95715-1.69162-0.75299c-1.76443,1.23264-3.43719,2.62241-4.9628,4.13889
		c-0.1846,0.1835,0.53513,1.90891,1.11917,2.11533C472.30438,264.35733,476.59686,260.28098,476.31732,258.3183z"/>
	<path style="&st16;" d="M594.5614,274.08572c-4.43817-0.05414-8.8764-0.10828-13.31073-0.1622
		c-0.04132,0.02536-0.20111,0.01605-0.47546-0.02774c-16.98596-0.38208-33.97192-0.76407-50.95789-1.14609
		c-0.01581-1.58313-0.00836-3.16696-0.05109-4.74936c-0.44305-16.40608-0.89417-32.81186-1.34302-49.21774
		c0.0835-2.39282,0.16711-4.78568,0.25067-7.17848c1.99133,1.58568,4.04193,3.10385,5.95172,4.78255
		c1.1286,0.99214,2.27209,2.10129,3.39001,0.45924c0.39984-0.58728-0.08508-2.25635-0.70142-2.96483
		c-1.51691-1.74367-3.34442-3.21648-5.047-4.79819c0.12225-0.4153,0.24451-0.83055,0.36676-1.24583
		c14.62836,0,29.25677,0.03702,43.88501-0.01038c14.53827-0.04706,29.08026-0.43126,43.61334-0.20271
		c14.53827,0.22861,29.09717-0.7262,43.63196-0.26653c0.09973,0.41196,0.19952,0.82391,0.29932,1.23584
		c-6.00726,6.02492-11.97211,12.093-18.03021,18.06628c-15.04822,14.83739-30.14178,29.62862-45.20245,44.45329
		c-0.56219,0.55341-0.97119,1.26285-1.4516,1.89954c-1.10852-0.63583-2.32581-1.1394-3.29791-1.94107
		c-1.19244-0.98337-2.09692-2.32031-3.30249-3.28262c-0.40582-0.32382-1.35156,0.03049-2.05048,0.07486
		c0.12604,0.63815,0.06982,1.40509,0.41205,1.89044C592.19922,271.25555,593.40985,272.64978,594.5614,274.08572z
		 M583.93304,219.96207c-0.71783,2.14853-1.43567,4.29709-2.1535,6.44562c-1.64288,2.65627-3.18842,5.37939-4.95227,7.95253
		c-2.43158,3.54715-4.99121,7.02243-9.39972,8.37766c-1.42224-0.99063-2.28943-4.17473-4.53204-2.1348
		c-2.34204,2.13025,1.01044,3.1328,1.74805,4.67668c-1.71246,1.30678-3.26544,2.95863-5.17334,3.8425
		c-3.16418,1.46585-5.92938,5.31058-10.17963,2.28954c-0.26129-0.18576-1.19159,0.1824-1.52136,0.55179
		c-1.29376,1.44875-2.47144,3.00134-3.74646,4.58253c5.59924,2.61795,5.86786,2.54709,9.67896-0.85045
		c0.67761-0.6041,1.75006-0.77338,2.65039-1.11647c12.94202-4.9332,21.86511-13.94337,27.05994-26.73369
		c0.74878-2.62344,1.49762-5.24692,2.24646-7.87041c0.09125-1.39156,0.1825-2.78313,0.27374-4.17468
		c-0.40387-0.03575-0.80774-0.0715-1.21155-0.10724C584.45813,217.11612,584.19556,218.53911,583.93304,219.96207z
		 M552.85925,228.56757c-0.75208,1.50243-1.81018,2.9585-1.56445,3.22952c1.98431,2.18884,4.19659,4.17513,6.44958,6.09335
		c0.06891,0.05864,1.99725-1.86772,1.95703-1.9142C557.65869,233.6125,555.49591,231.35275,552.85925,228.56757z
		 M542.10077,218.0287c-0.81146,1.56001-1.95319,3.06621-1.69458,3.3676c1.91956,2.23668,4.07538,4.28284,6.31195,6.2084
		c0.16858,0.1451,1.53528-1.10483,2.34503-1.70625C546.89465,223.44733,544.7262,220.99625,542.10077,218.0287z M583.29517,257.5228
		c-0.83777,1.85388-1.69092,3.16742-1.4812,3.36826c1.78448,1.70901,3.74011,3.24533,5.72211,4.7294
		c0.16595,0.1243,0.89893-0.51056,1.36847-0.79272C587.20703,262.61713,585.50958,260.40659,583.29517,257.5228z
		 M580.54315,255.55774c-1.96222-1.99313-3.29205-3.61342-4.9079-4.86292c-0.72699-0.56219-2.02496-0.3842-3.06384-0.54201
		c0.15588,0.96725,0.00513,2.17357,0.53223,2.85158c1.06573,1.37086,2.37195,2.66783,3.84448,3.55209
		C577.53143,256.90677,578.82135,256.07745,580.54315,255.55774z"/>
	<path style="&st17;" d="M528.28888,296.86371c-0.22357,4.1431-0.4472,8.28619-0.71753,13.29538
		c-9.99652,0-20.33133,0.043-30.66455-0.06659c-1.03214-0.01099-2.27667-0.7251-3.04813-1.491
		c-11.57211-11.48984-23.0813-23.04324-34.60532-34.58163c4.78613,0.13205,9.57156,0.30728,14.35855,0.388
		c13.94095,0.23505,27.88257,0.4324,41.82388,0.64453c2.38892,0.03311,4.77783,0.06628,7.16675,0.0994
		c4.77881,0.81613,4.73145,0.81796,4.90271,5.19415C527.72076,285.85361,528.02368,291.35797,528.28888,296.86371z"/>
	<path style="&st18;" d="M580.77521,273.89578c0.27435,0.04379,0.43414,0.0531,0.47546,0.02774
		c-0.11639,2.78922,2.01562,2.5061,3.70044,2.57007c2.91589,0.11081,5.83911,0.03082,8.75922,0.03082
		c0.08649,0.41205,0.17291,0.82413,0.2594,1.23618c-2.91437,2.95813-5.84729,5.89807-8.73926,8.87802
		c-6.25751,6.44791-12.57758,12.83838-18.69818,19.41458c-2.44128,2.62302-4.90436,4.18155-8.71838,4.03094
		c-7.96619-0.31451-15.95483-0.31-23.92633-0.11368c-3.33691,0.08218-4.06543-1.3248-3.96271-4.22455
		c0.10571-2.98618-0.10901-5.98376-0.18353-8.97632c0.07086-5.55103,0.13721-11.10205,0.21399-16.65302
		c0.05774-4.16885,0.06512-4.30716,4.27069-4.26584c9.8999,0.0972,19.79797,0.36362,29.69751,0.51364
		c5.1524,0.07816,10.3064,0.08035,15.45947,0.0629C581.22632,276.42105,581.90887,275.6203,580.77521,273.89578z"/>
	<path style="&st13;" d="M580.77521,273.89578c1.13367,1.72452,0.45111,2.52527-1.39221,2.53149
		c-5.15308,0.01746-10.30707,0.01526-15.45947-0.0629c-9.89954-0.15002-19.79761-0.41644-29.69751-0.51364
		c-4.20557-0.04132-4.21295,0.09698-4.27069,4.26584c-0.07678,5.55096-0.14313,11.10199-0.21399,16.65302
		c-0.48413,0.03143-0.96832,0.06277-1.45245,0.09412c-0.2652-5.50574-0.56812-11.0101-0.78363-16.51776
		c-0.17126-4.37619-0.1239-4.37802-4.90271-5.19415c-0.02167-0.65222-0.04333-1.30435-0.06506-1.95657
		c1.59613-0.15552,3.19232-0.3111,4.78851-0.46661c0.83044,0.00696,1.66089,0.01407,2.49133,0.02109
		C546.80328,273.13171,563.78925,273.5137,580.77521,273.89578z"/>
	<path style="&st13;" d="M515.43579,275.0524c-13.94131-0.21213-27.88293-0.40948-41.82388-0.64453
		c-4.78699-0.08072-9.57242-0.25595-14.35855-0.388c-0.83847-0.58792-1.67691-1.17575-2.51535-1.76349
		c1.13788-0.56119,2.40958-0.95227,3.38483-1.72052c1.84985-1.45706,3.44418-3.24692,5.33572-4.63824
		c0.52542-0.38654,1.72269,0.14255,2.61172,0.25146c-0.14169,0.69894-0.08813,1.53708-0.4657,2.06772
		c-0.78088,1.09741-1.79132,2.03113-2.70712,3.03259c-0.22229,0.31873-0.44485,0.63699-0.66739,0.95532
		c0.29675,0.02457,0.59354,0.04901,0.89029,0.07355c14.62564,0.13531,29.25143,0.25632,43.87677,0.42172
		c2.15948,0.02438,4.31659,0.25864,6.47479,0.39584C515.4599,273.74802,515.44788,274.40018,515.43579,275.0524z"/>
	<path style="&st13;" d="M594.5614,274.08572c-1.15155-1.43594-2.36218-2.83017-3.4209-4.33173
		c-0.34222-0.48535-0.28601-1.25229-0.41205-1.89044c0.69891-0.04437,1.64465-0.39868,2.05048-0.07486
		c1.20557,0.96231,2.11005,2.29926,3.30249,3.28262c0.97211,0.80167,2.18939,1.30524,3.29791,1.94098
		C598.07678,274.7356,596.72491,276.23663,594.5614,274.08572z"/>
	<path style="&st20;" d="M528.67389,211.60411c-0.08356,2.39281-0.16718,4.78566-0.25073,7.17848
		c-0.26703,0.02249-0.53412,0.02403-0.80139,0.00461c0.00446-2.45459,0.00891-4.90924,0.01337-7.36385
		C528.01385,211.29634,528.36011,211.3566,528.67389,211.60411z"/>
	<path style="&st21;" d="M522.99646,212.10905c1.09454-0.97975,2.18915-1.9595,3.28363-2.93922
		c0.46069,0.59395,0.92126,1.18793,1.38202,1.78159c-1.21704,0.67027-2.43414,1.34076-3.65131,2.01129
		C523.67267,212.67821,523.33459,212.39363,522.99646,212.10905z"/>
	<path style="&st6;" d="M1001.79059,300.72177c-7.59833-6.56567-10.09509-10.69476-9.93683-17.44055
		c1.73602,1.30148,3.27405,2.07187,4.28619,3.28284c3.42932,4.103,6.18945,8.54919,5.57483,14.27118L1001.79059,300.72177z"/>
	<path style="&st6;" d="M1001.71478,300.83524c0.24408-0.09952,0.48816-0.19907,0.73218-0.29861
		c-0.0484,0.0463-0.09277,0.12582-0.14618,0.13257c-0.16119,0.01999-0.32599,0.01166-0.49976,0.03348
		C1001.79059,300.72177,1001.71478,300.83524,1001.71478,300.83524z"/>
	<path style="&st6;" d="M1006.7348,146.65544c-7.4873-5.03751-12.9234-10.29718-14.65442-18.90257
		C999.09924,128.82701,1005.28217,136.63457,1006.7348,146.65544z"/>
	<path style="&st22;" d="M422.87485,133.74277c-6.62256,0.44049-11.87076-2.62842-14.90985-9.0476
		c-1.59995-3.37935-2.90509-6.97497-3.77542-10.60922c-2.18661-9.13064,4.19272-13.92352,10.18729-18.59555
		c2.7955-2.1787,6.14844-3.66821,9.32431-5.32475c9.78778-5.10537,21.20532,0.9539,24.25632,12.09202
		C451.80487,116.30274,438.22198,134.91505,422.87485,133.74277z M421.49213,109.07584
		c-1.03781-5.07043-1.00134-4.90232,3.70523-5.92632c2.65912-0.5786,5.20889-1.73898,7.72507-2.82887
		c0.47787-0.207,0.56696-1.31381,0.83548-2.00547c-0.68045-0.22957-1.39676-0.72891-2.03546-0.64391
		c-3.52725,0.46924-7.02893,1.12769-10.55197,1.633c-5.34924,0.76726-5.34305,0.75433-4.81741,6.44353
		c0.14609,1.58147,0.01624,3.18751,0.14346,4.77183c0.28949,3.60603,1.47519,4.42335,5.07953,3.68304
		c2.12982-0.43741,4.25827-0.9725,6.41306-1.14925c0.78168-0.06413,2.07712,0.60918,2.34067,1.26653
		c0.27966,0.69763-0.13327,2.00148-0.69687,2.63902c-1.03494,1.17068-2.26584,2.57729-3.65915,2.93651
		c-3.0105,0.7762-6.17947,0.925-9.27466,1.39032c-0.92197,0.13856-1.81415,0.47598-2.71997,0.72224
		c0.43527,1.02502,0.59259,2.52687,1.36298,2.97695c1.66577,0.97324,3.71017,2.09828,5.48505,1.9323
		c5.30762-0.49631,10.01013-2.56664,13.03003-7.3392c3.57742-5.65376,0.78659-11.05003-5.90604-11.22682
		C425.80261,108.29444,423.63879,108.81866,421.49213,109.07584z"/>
	<path style="&st5;" d="M118.66441,126.35812c-0.43253,0.73228-0.75703,2.00031-1.31449,2.113
		c-4.94558,0.99973-9.4962,0.33688-13.02876-3.7532c-5.96388-6.90508-6.8776-14.72202-3.45801-22.88715
		c2.69391-6.4323,7.97791-9.48869,15.00407-9.92269c10.00456-0.61786,20.16736,8.51453,19.69896,18.06863
		c-0.06689,1.36439-0.15619,2.94057-0.84909,4.02577c-3.72403,5.83249-8.73717,10.25298-15.17138,12.93531
		c-0.21758,0.09064-0.64517-0.32369-0.97389-0.50366c0.48413-1.7075,1.18309-3.38667,1.40267-5.12651
		c0.38354-3.03888,0.76798-5.63031,4.47119-6.71162c2.02206-0.59043,1.56144-2.87561-0.60642-3.85727
		c-1.65489-0.74942-3.29673-1.52773-5.2689-2.44395c-0.39753,0.97902-0.66971,2.16604-1.33247,3.06408
		c-0.33247,0.45049-1.37605,0.37486-2.09802,0.53718c-0.10509-0.6635-0.48972-1.4472-0.26574-1.96914
		c0.86119-2.00701,2.06865-3.87082,2.86146-5.89991c0.93851-2.40198,1.58205-4.91946,2.63074-8.27383
		c-4.46162,1.49309-5.33909,4.58556-6.92066,6.96401c-2.19636,3.30306-4.28474,6.68651-6.23938,10.13775
		c-0.70987,1.25346-1.65198,3.61558-1.18055,4.05021c1.10328,1.0174,2.97269,1.29865,4.5831,1.62315
		c0.70143,0.14133,1.53623-0.31769,2.29726-0.54777c2.31837-0.70097,3.40632,0.03208,3.13512,2.55532
		C115.77995,122.96669,115.58176,125.41656,118.66441,126.35812z"/>
	<path style="&st22;" d="M793.32117,97.24419c5.90985-0.01997,11.38879,1.32256,16.39923,4.59595
		c6.65869,4.35031,8.96704,11.33334,6.00885,18.65375c-4.15417,10.28021-17.75781,17.9705-28.68372,16.21521
		c-7.66022-1.23067-11.3299-5.51381-11.59143-13.4186c-0.24402-7.38058,1.89478-14.04395,5.32672-20.53121
		c2.17236-4.10635,5.177-5.74155,9.55914-5.52238C791.3313,97.28652,792.32733,97.24419,793.32117,97.24419z M794.71521,101.2196
		c-0.49994,0.27546-0.99988,0.55092-1.49982,0.82633c-7.43134,5.02564-10.41272,12.61777-11.46326,21.01419
		c-0.46185,3.69128,2.2298,6.2944,5.46881,7.79456c3.41595,1.58212,8.2699,0.28813,10.97638-2.40169
		c2.38641-2.3716,3.05719-5.21898,1.94421-8.1879c-1.10645-2.95142-3.42505-4.83731-6.79657-4.93836
		c-1.53302-0.04596-3.0686-0.0078-5.7182-0.0078c2.4389-4.49802,4.54443-8.38096,6.64246-12.26654
		c0.28015-0.11438,0.42645-0.32288,0.43909-0.62544c0.59113-0.65137,1.18219-1.30271,1.77325-1.95416
		C795.89276,100.72169,795.30402,100.97059,794.71521,101.2196z"/>
	<path style="&st0;" d="M777.51996,101.60361c-0.06812,0.15034-0.12817,0.283-0.18829,0.4157
		c-0.18896-0.12833-0.37793-0.25664-0.56689-0.385c0.12225-0.1335,0.24451-0.267,0.36676-0.40054
		C777.26257,101.35867,777.3938,101.48348,777.51996,101.60361z"/>
	<path style="&st20;" d="M1024.20093,192.74416c-0.20569,0.23451-0.38947,0.62776-0.60431,0.6456
		c-0.31488,0.02603-0.65198-0.21672-0.97955-0.34494c0.18365-0.23773,0.35626-0.65973,0.55353-0.67155
		C1023.49615,192.35367,1023.83752,192.59898,1024.20093,192.74416z"/>
	<path style="&st20;" d="M1019.95306,191.27586c0.32623,0.12354,0.65179,0.24774,0.97723,0.37193
		c-0.18939,0.21715-0.36987,0.60251-0.57025,0.61317c-0.3208,0.01711-0.65479-0.21432-0.98328-0.34068
		C1019.56866,191.7057,1019.76068,191.49115,1019.95306,191.27586z"/>
	<path style="&st23;" d="M169.26042,238.4626c-1.8213-0.65056-3.66504-1.30916-5.50877-1.96774
		c1.26619-2.83965,3.82904-1.41551,5.61449-1.30293c2.17178,0.1369,5.1481-1.86186,6.56538,1.59956
		C173.81276,237.32225,171.69398,237.85298,169.26042,238.4626z"/>
	<path style="&st13;" d="M101.30817,235.29784c3.19991-0.14935,6.39935-0.36266,9.60014-0.38533
		c0.53506-0.0038,1.43961,0.76883,1.51048,1.27562c0.06886,0.49252-0.73989,1.60512-1.11932,1.58571
		c-3.37096-0.17287-6.90597,0.74683-10.11443-0.70953C101.22608,236.47548,101.26714,235.88666,101.30817,235.29784z"/>
	<path style="&st23;" d="M136.93291,238.01271c-1.77011-0.10828-3.54915-0.1479-5.30353-0.37688
		c-0.39934-0.05215-0.99321-0.76228-0.98907-1.16434c0.00424-0.41354,0.62523-1.17113,0.98495-1.17628
		c3.53706-0.05066,7.07718-0.01059,10.61247,0.11525c0.36934,0.01318,1.01201,0.76048,0.99214,1.13904
		c-0.02409,0.45914-0.59053,1.24104-0.96942,1.27019c-1.76508,0.13596-3.54643,0.06021-5.32196,0.06021
		C136.93663,237.92418,136.93477,237.96843,136.93291,238.01271z"/>
	<path style="&st23;" d="M153.11581,237.95787c-1.53252-0.72169-4.34599,1.55785-5.62473-1.73961
		c1.99913-0.42242,3.99643-0.85394,5.99902-1.25928c0.38475-0.0779,0.82195-0.16141,1.18074-0.0565
		c1.57201,0.45959,3.1241,0.98755,4.68341,1.49071c-1.52911,0.4518-3.05489,0.91541-4.58968,1.34703
		C154.38696,237.84642,153.98004,237.84833,153.11581,237.95787z"/>
	<path style="&st23;" d="M121.67648,238.52315c-1.89081-0.68149-3.58112-1.29066-5.27145-1.89984
		c1.7223-0.50778,3.44098-1.39973,5.16791-1.416c1.75318-0.01659,3.5145,0.83102,5.27225,1.30019
		C125.18675,237.15425,123.52831,237.80098,121.67648,238.52315z"/>
	<path style="&st21;" d="M88.16778,236.48808c3.09449-2.11996,6.04081-1.24005,8.8594-1.09113
		c0.36666,0.01936,0.9841,0.77509,0.96357,1.16199c-0.02229,0.42009-0.69529,1.18497-1.01431,1.15028
		C94.21814,237.41003,91.19778,238.76135,88.16778,236.48808z"/>
	<path style="&st23;" d="M180.74823,235.69475c1.46799-0.14313,2.97923-0.56824,4.39192-0.35091
		c1.4445,0.22214,3.86946-1.57542,4.04808,1.43719c0.01888,0.31816-2.9231,1.08971-4.50784,1.14087
		c-1.34622,0.04344-2.71616-0.64964-4.07559-1.01685C180.65262,236.50163,180.70042,236.09821,180.74823,235.69475z"/>
	<path style="&st23;" d="M252.36884,237.97044c-0.78444,0-1.61063,0.14894-2.33788-0.05527
		c-0.44368-0.12457-0.98407-0.77213-1.02112-1.22266c-0.03342-0.40639,0.52654-1.20671,0.88109-1.24049
		c1.55576-0.14807,3.15286-0.23399,4.69133-0.02313c0.6987,0.09581,1.29584,0.93422,1.93904,1.43576
		c-0.59889,0.35263-1.16034,0.86215-1.80652,1.01671c-0.74284,0.17767-1.56064,0.04121-2.34589,0.04121
		C252.36887,237.93854,252.36885,237.95447,252.36884,237.97044z"/>
	<path style="&st20;" d="M291.93024,237.33858c-2.44147,0-4.8829,0-7.32437,0c0.00446-0.41411,0.00888-0.82819,0.01328-1.24231
		c2.44589,0,4.89178,0,7.33771,0C291.94797,236.51039,291.93909,236.92447,291.93024,237.33858z"/>
	<path style="&st20;" d="M281.07248,237.28197c-3.68457,0.54413-6.43109,1.55582-9.73123-1.06627
		C275.01089,235.2309,277.6991,234.78806,281.07248,237.28197z"/>
	<path style="&st23;" d="M236.31764,235.37109c2.2749,0,4.55515-0.08266,6.82059,0.06406
		c0.5015,0.03252,0.95062,0.87578,1.42386,1.34564c-0.38965,0.35555-0.77835,1.01556-1.16905,1.01677
		c-2.37614,0.00729-4.75273-0.13544-7.1292-0.22809C236.28177,236.83667,236.2997,236.10388,236.31764,235.37109z"/>
	<path style="&st23;" d="M210.67349,235.48734c2.90697-0.02193,5.81393-0.04391,8.72092-0.06584
		c-0.07814,0.82036-0.15625,1.64076-0.23438,2.46112c-2.27567-0.0081-4.57347,0.15599-6.81305-0.13274
		C211.70284,237.66682,211.22668,236.27766,210.67349,235.48734z"/>
	<path style="&st20;" d="M266.99295,237.43007c-2.08704,0-4.17407,0-7.18146,0
		C263.36121,235.32092,263.36121,235.32092,266.99295,237.43007z"/>
	<path style="&st20;" d="M296.18524,235.96222c3.49609,0,5.61716,0,8.53513,0
		C300.97345,238.33064,300.97345,238.33064,296.18524,235.96222z"/>
	<path style="&st20;" d="M307.91013,236.46703c1.12341-0.5266,1.49094-0.86,1.82172-0.82674
		c1.6622,0.16698,3.31479,0.42972,4.97076,0.65881c-0.09982,0.35738-0.08911,0.91452-0.3168,1.0408
		C312.3624,238.46246,310.43549,238.36807,307.91013,236.46703z"/>
	<path style="&st3;" d="M225.40701,238.06244c0.00592-0.95551,0.01186-1.91101,0.01802-2.86641
		c1.98759,0.06461,3.9799,0.07201,5.95792,0.24396c0.3755,0.03262,0.98598,0.73569,0.9633,1.09636
		c-0.02643,0.42001-0.59593,1.10809-0.98837,1.15178C229.38478,237.90767,227.39255,237.95476,225.40701,238.06244z"/>
	<path style="&st14;" d="M219.16003,237.88261c0.07812-0.82036,0.15623-1.64076,0.23438-2.46112
		c0.31465-0.34688,0.62935-0.69379,0.94398-1.04066c0.00523,1.19138,0.01051,2.38275,0.0157,3.57408
		C219.9554,237.94081,219.5574,237.9167,219.16003,237.88261z"/>
	<path style="&st23;" d="M881.32599,185.57494c1.25775,1.20903,3.23639,2.26045,3.20227,3.24171
		c-0.0932,2.68146-2.61615,1.42537-4.14587,1.70906c-1.7442,0.32344-3.18445-0.1413-3.24988-2.25046
		C877.03076,184.99239,879.71484,187.05081,881.32599,185.57494z"/>
	<path style="&st12;" d="M848.58185,191.15105c0.49347,5.91478,0.91272,11.83733,1.53186,17.73889
		c0.15704,1.4962,0.62738,2.82118,2.88147,3.05672c2.41919,0.25279,3.73077,7.05353,1.85565,8.74951
		c-0.36328,0.32864-1.23102,0.51569-1.63574,0.3111c-2.1156-1.06908-4.18671-2.23793-6.19598-3.49593
		c-0.34821-0.21802-0.59686-1.39153-0.4342-1.51385c3.12781-2.35158,0.25061-4.27321-0.54565-6.12903
		c-2.6532-6.18318-2.31519-12.40077-0.74017-18.70703C846.39331,191.15794,847.48755,191.1545,848.58185,191.15105z"/>
	<path style="&st24;" d="M848.58185,191.15109c-1.0943,0.0034-2.18854,0.00685-3.28278,0.01033
		c-0.28888-1.82642-2.67517-3.78618,0.60852-5.38522c0.82257-0.40053,1.1449-1.94443,1.57916-3.01094
		c1.97339-4.84581,3.90479-9.70876,5.85071-14.56599c-0.00043-0.00037-0.06677,0.06573-0.06714,0.06529
		c1.98633-0.2137,2.94037,0.2755,2.10559,2.55167c-1.33691,3.64478-2.55109,7.33788-3.69995,11.04692
		c-0.45056,1.45445-0.58502,3.0071-0.8623,4.51538c-0.40924,1.22661-0.8197,2.45288-1.2301,3.67917
		C849.24976,190.42213,848.91583,190.78664,848.58185,191.15109z"/>
	<path style="&st13;" d="M849.58356,190.05765c0.4104-1.22624,0.82086-2.45251,1.2301-3.67912
		c0.76166,0.90207,1.52441,1.80455,2.28723,2.70699C851.92847,189.40958,850.75598,189.73363,849.58356,190.05765z"/>
	<path style="&st24;" d="M492.80655,243.78835c4.53641,2.81822,9.03049,5.70953,13.6478,8.38795
		c0.84094,0.48792,2.2399-0.10233,3.28461,0.17287c1.75293,0.46191,3.51208,1.07349,5.06763,1.97116
		c0.32306,0.18649,0.02539,2.62132-0.42194,2.77879c-2.26996,0.79901-5.01456,3.72617-6.71835-0.9061
		c-0.2186-0.59442-1.72504-0.75534-2.65863-1.03874c-17.961-5.45335-26.12778-18.90785-29.53836-36.24258
		c-0.02921-0.14833,0.18097-0.34387,0.82712-1.48357c1.28152,2.84943,2.30133,5.19353,3.38348,7.50841
		c2.85605,6.10933,5.27454,12.50024,10.71664,16.97415C490.42996,243.52715,491.25656,244.12321,492.80655,243.78835z"/>
	<path style="&st21;" d="M527.62177,218.7872c0.26727,0.01942,0.53436,0.01788,0.80145-0.00461
		c0.44885,16.40588,0.89996,32.81166,1.34302,49.21774c0.04272,1.5824,0.03528,3.16623,0.05109,4.74936
		c-0.83044-0.00702-1.66089-0.01413-2.49133-0.02115c-0.03387-15.41867-0.08655-30.83727-0.08301-46.25589
		C527.24353,223.91081,527.48926,221.34901,527.62177,218.7872z"/>
	<path style="&st3;" d="M477.62726,254.86385c0.80682-1.09305,1.17862-1.75566,1.69794-2.26855
		c1.25449-1.23888,2.4812-2.54613,3.91257-3.54884c0.75891-0.53172,1.92157-0.48572,2.90201-0.70045
		c-0.35431,0.96657-0.4769,2.13725-1.11017,2.85822c-1.41141,1.60666-3.00189,3.0885-4.69879,4.38597
		C479.94809,255.88281,478.83215,255.21405,477.62726,254.86385z"/>
	<path style="&st13;" d="M506.02325,230.08366c-0.53784,1.03154-0.69568,1.62886-1.07275,2.0069
		c-1.68982,1.69412-3.37085,3.41283-5.21509,4.92723c-0.55579,0.45642-1.62799,0.28244-2.46359,0.39726
		c0.1366-0.7088,0.0343-1.64145,0.45132-2.08754c1.76813-1.89162,3.6246-3.71765,5.60794-5.37698
		C503.76718,229.58563,504.85419,230.00067,506.02325,230.08366z"/>
	<path style="&st21;" d="M517.31689,219.71634c-2.50592,2.58499-4.9726,5.21089-7.56693,7.70366
		c-0.3288,0.31586-1.32645-0.06618-2.01425-0.12489c0.08862-0.66515-0.07254-1.59857,0.30621-1.95215
		c2.56946-2.39859,5.25287-4.6748,7.89948-6.99055C516.3999,218.80705,516.8584,219.26169,517.31689,219.71634z"/>
	<path style="&st21;" d="M476.31732,258.3183c0.27954,1.96268-4.01294,6.03903-5.53525,5.50122
		c-0.58405-0.20642-1.30377-1.93182-1.11917-2.11533c1.5256-1.51648,3.19836-2.90625,4.9628-4.13889
		C474.91782,257.36115,475.87247,258.10757,476.31732,258.3183z"/>
	<path style="&st13;" d="M492.80655,243.78835c-1.54999,0.33487-2.37659-0.2612-2.41-1.87766
		c0.59833-0.4818,1.1424-1.06549,1.80847-1.41855c0.77524-0.41096,1.6572-0.6201,2.49289-0.91679
		c-0.23703,0.9826-0.38593,1.99931-0.74673,2.93399C493.75836,243.00871,493.19992,243.36658,492.80655,243.78835z"/>
	<path style="&st7;" d="M515.43579,275.0524c0.01208-0.65222,0.02411-1.30438,0.03613-1.95667
		c2.35516,0.03311,4.71039,0.06628,7.06555,0.09949c0.02173,0.65222,0.0434,1.30435,0.06506,1.95657
		C520.21362,275.11868,517.82471,275.08551,515.43579,275.0524z"/>
	<path style="&st21;" d="M522.78442,214.12932c-0.69623,0.31831-1.39252,0.63658-2.08875,0.95485
		c0.42609-0.66248,0.85217-1.32494,1.27869-1.98647C522.24457,213.44217,522.51453,213.78574,522.78442,214.12932z"/>
	<path style="&st21;" d="M524.01086,212.96274c-0.40881,0.38885-0.81763,0.77774-1.22644,1.16658
		c-0.2699-0.34358-0.53986-0.68715-0.81006-1.03162c0.341-0.32996,0.68225-0.65898,1.02283-0.98836
		C523.33459,212.39363,523.67267,212.67821,524.01086,212.96274z"/>
	<path style="&st6;" d="M465.12036,272.27826c-0.29675-0.02454-0.59354-0.04898-0.89029-0.07355
		c0.22253-0.31833,0.4451-0.6366,0.66739-0.95532C465.08191,271.56802,465.15631,271.91113,465.12036,272.27826z"/>
	<path style="&st12;" d="M567.42755,242.7379c4.40851-1.35526,6.96814-4.83054,9.39972-8.37769
		c1.76385-2.57314,3.30939-5.29626,4.95325-7.9511c0.54675,0.48026,1.09253,0.95906,1.63824,1.4379
		c-5.20154,12.7888-14.12463,21.79898-27.06665,26.73218c-0.90033,0.34309-1.97278,0.51237-2.65039,1.11647
		c-3.8111,3.39754-4.07971,3.4684-9.67896,0.85045c1.27502-1.58119,2.4527-3.13379,3.74646-4.58253
		c0.32977-0.36938,1.26007-0.73755,1.52136-0.55179c4.25024,3.02104,7.01544-0.82368,10.17963-2.28954
		c1.9079-0.88387,3.46088-2.53572,5.17267-3.84383C565.57062,244.43076,566.49908,243.5843,567.42755,242.7379z"/>
	<path style="&st13;" d="M552.85925,228.56757c2.63666,2.78519,4.79944,5.04494,6.84216,7.40868
		c0.04022,0.04648-1.88812,1.97284-1.95703,1.9142c-2.25299-1.91823-4.46527-3.90451-6.44958-6.09335
		C551.04907,231.52606,552.10718,230.06999,552.85925,228.56757z"/>
	<path style="&st3;" d="M542.10077,218.0287c2.62543,2.96754,4.79388,5.41862,6.9624,7.86975
		c-0.80975,0.60143-2.17645,1.85135-2.34503,1.70625c-2.23657-1.92557-4.3924-3.97173-6.31195-6.2084
		C540.14758,221.09491,541.28931,219.58871,542.10077,218.0287z"/>
	<path style="&st23;" d="M583.29517,257.5228c2.21442,2.88379,3.91187,5.09433,5.60938,7.30493
		c-0.46954,0.28217-1.20251,0.91702-1.36847,0.79272c-1.98199-1.48407-3.93762-3.02039-5.72211-4.7294
		C581.60425,260.69022,582.4574,259.37668,583.29517,257.5228z"/>
	<path style="&st23;" d="M580.54315,255.55774c-1.7218,0.51971-3.01172,1.34903-3.59503,0.99875
		c-1.47253-0.88426-2.77875-2.18123-3.84448-3.55209c-0.5271-0.67801-0.37634-1.88432-0.53223-2.85158
		c1.03888,0.15781,2.33685-0.02019,3.06384,0.54201C577.2511,251.94432,578.58093,253.56461,580.54315,255.55774z"/>
	<path style="&st23;" d="M567.42755,242.7379c-0.92847,0.84641-1.85693,1.69286-2.78467,2.54057
		c-0.73694-1.5426-4.08942-2.54515-1.74738-4.6754C565.13812,238.56314,566.00531,241.74724,567.42755,242.7379z"/>
	<path style="&st12;" d="M585.65857,219.9751c-0.7489,2.62349-1.49774,5.24696-2.24316,7.87119
		c-0.54236-0.4781-1.08813-0.95691-1.63489-1.43716c0.71686-2.14996,1.43469-4.29852,2.15247-6.44705
		C584.50812,219.96638,585.08331,219.97075,585.65857,219.9751z"/>
	<path style="&st24;" d="M585.65851,219.9751c-0.5752-0.00435-1.15039-0.00871-1.72552-0.01303
		c0.26257-1.42296,0.52515-2.84595,0.78772-4.26889c0.40381,0.03574,0.80768,0.07149,1.21155,0.10724
		C585.841,217.19197,585.74976,218.58354,585.65851,219.9751z"/>
	<path style="&st11;" d="M421.49213,109.07584c2.14667-0.25718,4.31049-0.78139,6.45901-0.72459
		c6.69263,0.17679,9.48346,5.57307,5.90604,11.22682c-3.0199,4.77256-7.72241,6.8429-13.03003,7.3392
		c-1.77487,0.16599-3.81927-0.95906-5.48505-1.9323c-0.77039-0.45008-0.9277-1.95193-1.36298-2.97695
		c0.90582-0.24626,1.798-0.58369,2.71997-0.72224c3.09518-0.46532,6.26416-0.61412,9.27466-1.39032
		c1.39331-0.35921,2.62421-1.76583,3.65915-2.93651c0.5636-0.63754,0.97653-1.94138,0.69687-2.63902
		c-0.26355-0.65734-1.55899-1.33066-2.34067-1.26653c-2.15479,0.17675-4.28323,0.71185-6.41306,1.14925
		c-3.60434,0.7403-4.79004-0.07702-5.07953-3.68304c-0.12723-1.58432,0.00262-3.19036-0.14346-4.77183
		c-0.52563-5.68921-0.53183-5.67628,4.81741-6.44353c3.52304-0.50531,7.02472-1.16376,10.55197-1.633
		c0.6387-0.08501,1.35501,0.41434,2.03546,0.64394c-0.26852,0.69162-0.3576,1.79843-0.83548,2.00543
		c-2.51617,1.08989-5.06595,2.25027-7.72507,2.82887C420.49078,104.17352,420.45432,104.0054,421.49213,109.07584z"/>
	<path style="&st11;" d="M118.66441,126.35812c-3.08265-0.94155-2.88445-3.39143-2.62319-5.8223
		c0.2712-2.52324-0.81674-3.25629-3.13512-2.55532c-0.76102,0.23008-1.59583,0.6891-2.29726,0.54777
		c-1.61041-0.3245-3.47982-0.60574-4.5831-1.62315c-0.47143-0.43463,0.47068-2.79675,1.18055-4.05021
		c1.95464-3.45124,4.04302-6.83469,6.23938-10.13775c1.58157-2.37846,2.45904-5.47092,6.92066-6.96401
		c-1.0487,3.35437-1.69224,5.87186-2.63074,8.27383c-0.79281,2.02909-2.00027,3.8929-2.86146,5.89991
		c-0.22398,0.52194,0.16065,1.30564,0.26574,1.96914c0.72198-0.16232,1.76555-0.08669,2.09802-0.53718
		c0.66276-0.89804,0.93494-2.08506,1.33247-3.06408c1.97217,0.91621,3.61401,1.69453,5.2689,2.44395
		c2.16786,0.98166,2.62848,3.26684,0.60642,3.85727c-3.70321,1.08131-4.08765,3.67274-4.47119,6.71162
		c-0.21958,1.73984-0.91854,3.41901-1.40267,5.12651C118.57084,126.43514,118.66441,126.35812,118.66441,126.35812z"/>
	<path style="&st10;" d="M794.27661,103.05499c-2.10541,3.88298-4.21094,7.76591-6.64984,12.26394
		c2.6496,0,4.18518-0.03816,5.7182,0.0078c3.37152,0.10105,5.69012,1.98694,6.79657,4.93836
		c1.11298,2.96893,0.4422,5.8163-1.94421,8.1879c-2.70648,2.68982-7.56042,3.98381-10.97638,2.40169
		c-3.23901-1.50015-5.93066-4.10328-5.46881-7.79456c1.05054-8.39642,4.03192-15.98855,11.46356-21.01393
		C793.56952,102.38266,793.9231,102.7188,794.27661,103.05499z M789.5434,127.30788
		c3.85114,0.18576,6.58093-1.94277,6.47791-4.27695c-0.08521-1.9301-0.94464-3.42403-3.14252-3.54691
		c-2.40582-0.13453-6.54944,2.65282-6.10815,4.50369C787.12518,125.47447,788.92438,126.61588,789.5434,127.30788z"/>
	<path style="&st24;" d="M794.71521,101.21953c0.58881-0.24894,1.17755-0.49784,1.76636-0.74667
		c-0.59106,0.65137-1.18213,1.30271-1.77332,1.95387C794.71051,102.02418,794.71289,101.62189,794.71521,101.21953z"/>
	<path style="&st10;" d="M794.71521,101.21957c-0.00232,0.40232-0.0047,0.80461-0.00696,1.20715
		c-0.01257,0.30278-0.15887,0.51128-0.43536,0.62695c-0.34979-0.33486-0.70337-0.67101-1.05719-1.00744
		C793.71533,101.77052,794.21527,101.49506,794.71521,101.21957z"/>
	<path style="&st6;" d="M789.5434,127.30788c-0.61902-0.69199-2.41821-1.8334-2.77277-3.32016
		c-0.44128-1.85088,3.70233-4.63822,6.10815-4.50369c2.19788,0.12287,3.05731,1.61681,3.14252,3.54691
		C796.12433,125.3651,793.39453,127.49364,789.5434,127.30788z"/>
</g>
</svg>
