<?xml version="1.0" encoding="utf-8"?>
<!-- Generator: Adobe Illustrator 28.2.0, SVG Export Plug-In . SVG Version: 6.00 Build 0)  -->
<!DOCTYPE svg PUBLIC "-//W3C//DTD SVG 1.1//EN" "http://www.w3.org/Graphics/SVG/1.1/DTD/svg11.dtd" [
	<!ENTITY st0 "fill:#FE91E1;">
	<!ENTITY st1 "fill:#FE91E2;">
	<!ENTITY st2 "fill:#FE9AE4;">
	<!ENTITY st3 "fill:#FE96E3;">
	<!ENTITY st4 "fill:#FE97E3;">
	<!ENTITY st5 "fill:#FE95E3;">
	<!ENTITY st6 "fill:#FE94E2;">
	<!ENTITY st7 "fill:#FE93E2;">
	<!ENTITY st8 "fill:#FE92E2;">
	<!ENTITY st9 "fill:#FEB2EA;">
]>
<svg version="1.1" id="Camada_1" xmlns="http://www.w3.org/2000/svg" xmlns:xlink="http://www.w3.org/1999/xlink" x="0px" y="0px"
	 width="137px" height="185px" viewBox="0 0 137 185" style="enable-background:new 0 0 137 185;" xml:space="preserve">
<g>
	<path style="&st0;" d="M69.03086,153.97063c-1.21224,3.36496-3.9673,5.46645-8.45275,5.13243
		c-3.66782-0.2731-5.94061-1.93152-6.38552-5.65643c-0.69058-5.78171,0.6599-10.87151,5.83123-14.38522
		c5.1258-3.4828,10.35678-3.9892,15.77782-0.77748c6.11665,3.62378,6.32787,8.51672,0.38779,12.4908
		C74.34921,152.00589,72.10159,152.62817,69.03086,153.97063z"/>
	<path style="&st1;" d="M101.77214,99.00195c-2.61399,4.79581-5.50803,5.96405-10.88049,4.77534
		c-1.53175-0.33891-3.22436-0.70905-4.70176-0.39642c-4.89003,1.03473-7.63352,0.37555-9.07076-2.61046
		c-1.64465-3.41692,0.03659-9.05673,3.40101-11.4088c7.23473-5.05775,16.56555-2.13232,19.77675,6.18996
		C100.71317,96.63043,101.20458,97.6803,101.77214,99.00195z"/>
	<path style="&st1;" d="M39.76734,70.38593c-2.0219,1.10608-3.43064,1.91003-4.86937,2.65614
		c-2.31699,1.20161-4.3539,1.02983-6.31283-0.93837c-1.88154-1.89046-2.85421-3.5533-2.01902-6.53951
		c2.41793-8.64528,10.98959-12.80135,18.86599-8.58675c1.68006,0.89899,3.22157,2.37447,4.34087,3.93333
		c1.93414,2.69366,1.73635,5.7128-0.04141,7.78275c-2.21629,2.58055-5.28426,3.44473-8.38532,2.34389
		C40.72713,70.81764,40.12973,70.53671,39.76734,70.38593z"/>
	<path style="&st2;" d="M74.05703,133.89104c-4.61292-3.8524-4.74649-4.26888-3.55691-10.61539
		c2.68298-0.47517,3.79687,1.16849,4.51029,3.35844C75.80273,129.06619,77.30497,131.58363,74.05703,133.89104z"/>
	<path style="&st3;" d="M56.50523,122.21144c4.42598-0.14517,7.48461,1.94859,7.3186,5.06667
		c-0.17014,3.1955-2.53253,2.91541-5.01011,2.55486C57.90935,127.49408,54.97684,125.79845,56.50523,122.21144z"/>
	<path style="&st3;" d="M83.88657,72.17877c3.12038,0.87387,5.35076,3.78059,4.81087,6.54628
		c-0.15952,0.8172-1.08217,2.07486-1.68243,2.09062c-1.15536,0.03035-2.77398-0.33401-3.41364-1.15086
		C81.69643,77.23219,81.46631,74.57431,83.88657,72.17877z"/>
	<path style="&st4;" d="M32.63367,52.65254c-1.81212-2.90738-3.23835-5.19562-5.19379-8.33293
		c2.34105-0.67213,3.9757-1.14145,5.61127-1.61102C35.02971,46.07195,36.23583,48.80904,32.63367,52.65254z"/>
	<path style="&st5;" d="M51.80555,135.15918c-4.08517-1.2874-4.64993-2.1385-4.41335-6.65099
		c5.26704-0.86273,7.30973,0.87837,7.63623,6.50887C53.95413,135.06442,52.87984,135.1118,51.80555,135.15918z"/>
	<path style="&st6;" d="M51.03112,46.10031c3.80338,4.46643,3.82456,6.04613,0.37782,10.47159
		C48.15092,54.37779,47.88578,50.10252,51.03112,46.10031z"/>
	<path style="&st3;" d="M21.4474,51.54366c4.48554-0.25842,5.54559,1.1776,5.01646,6.79568
		C21.2387,59.4608,20.33051,58.23048,21.4474,51.54366z"/>
	<path style="&st6;" d="M42.30782,141.69464c5.5607-1.53105,7.67643,0.07698,7.44892,5.66142
		C45.18711,148.14822,43.40484,146.79362,42.30782,141.69464z"/>
	<path style="&st7;" d="M39.74311,50.00758c-0.31066-3.15514-0.57898-5.88026-0.85384-8.67181
		c3.61885-0.48517,5.2653,1.16428,5.72962,3.52446C45.12285,47.42191,43.604,49.13159,39.74311,50.00758z"/>
	<path style="&st7;" d="M77.47636,87.98828c-3.68709-1.45407-5.31923-4.48615-4.23009-7.22926
		c0.78638-1.98061,2.8205-2.20724,4.25085-0.46811C79.50451,82.73161,78.18507,85.15817,77.47636,87.98828z"/>
	<path style="&st8;" d="M96.47026,73.29272c1.24009,6.7989,0.81757,7.56308-3.76051,7.26768
		C91.29317,74.51712,91.86626,73.32393,96.47026,73.29272z"/>
	<path style="&st3;" d="M101.59424,89.90993c-1.32538-6.67018-0.98035-7.70016,2.70312-8.65308
		C105.84488,86.79173,105.39806,88.40141,101.59424,89.90993z"/>
	<path style="&st9;" d="M51.80555,135.15918c1.0743-0.04738,2.14858-0.09476,3.22288-0.14212
		C54.02245,136.61362,53.00703,137.99612,51.80555,135.15918z"/>
</g>
</svg>
