<?xml version="1.0" encoding="utf-8"?>
<!-- Generator: Adobe Illustrator 28.2.0, SVG Export Plug-In . SVG Version: 6.00 Build 0)  -->
<!DOCTYPE svg PUBLIC "-//W3C//DTD SVG 1.1//EN" "http://www.w3.org/Graphics/SVG/1.1/DTD/svg11.dtd" [
	<!ENTITY st0 "fill:#FE92E2;">
	<!ENTITY st1 "fill:#FE9AE4;">
	<!ENTITY st2 "fill:#FE97E3;">
	<!ENTITY st3 "fill:#FE96E3;">
	<!ENTITY st4 "fill:#FE9BE4;">
	<!ENTITY st5 "fill:#FE9DE5;">
	<!ENTITY st6 "fill:#FE99E3;">
	<!ENTITY st7 "fill:#FE95E3;">
	<!ENTITY st8 "fill:#FE94E2;">
]>
<svg version="1.1" id="Camada_1" xmlns="http://www.w3.org/2000/svg" xmlns:xlink="http://www.w3.org/1999/xlink" x="0px" y="0px"
	 width="137px" height="185px" viewBox="0 0 137 185" style="enable-background:new 0 0 137 185;" xml:space="preserve">
<g>
	<path style="&st0;" d="M20.46185,99.02942c-2.05029-1.81024-4.30786-3.27017-5.85126-5.27887
		c-3.06525-3.98929-1.19098-8.58844,3.80035-9.74878c2.2196-0.51602,4.55145-1.07944,6.78113-0.91733
		c5.61945,0.4086,10.28662,2.73792,13.15649,7.8942c0.8858,1.59146,1.77881,3.09277,0.77197,5.07452
		c-0.40527,0.79767-0.41656,2.09619-0.05798,2.93069c1.81006,4.21191-1.32977,6.46622-3.58777,8.81808
		c-2.69189,2.80389-10.33929,1.56989-12.30786-1.90366C21.98273,103.80875,21.36945,101.3956,20.46185,99.02942z"/>
	<path style="&st0;" d="M106.02429,16.6774c6.28717-0.3931,9.68689,3.27621,12.18646,8.22519
		c0.31323,0.62012,0.11401,1.52322,0.07507,2.29129c-0.05841,1.15103-0.53766,2.40793-0.22101,3.42838
		c1.25458,4.04355-0.74231,6.81503-3.17285,9.62198c-1.92377,2.22168-3.97504,4.44269-7.07654,3.52487
		c-3.4809-1.03012-6.2113-3.5242-6.68933-7.26736c-0.3255-2.54868-0.58606-4.16214-3.50842-5.03897
		c-2.6239-0.78735-4.15204-4.63016-3.42578-7.5842c0.66119-2.68936,1.64465-5.40509,5.1062-5.89969
		C101.55603,17.65625,103.78326,17.11868,106.02429,16.6774z"/>
	<path style="&st0;" d="M107.64874,105.10648c-0.6203,1.89413-1.25122,3.49323-1.66193,5.14703
		c-0.72089,2.90225-2.36627,5.13397-4.85254,6.65454c-4.65186,2.84491-10.59753-0.06198-11.07892-5.52905
		c-0.20825-2.36484-0.6087-3.64935-3.17224-4.74692c-5.00122-2.14124-5.90649-7.65137-2.5575-12.02951
		c0.29889-0.39075,0.61346-0.91586,1.02679-1.04895c2.81403-0.90564,5.7959-2.70947,8.45654-2.33347
		c3.82782,0.54099,7.98474,1.5329,10.73419,4.96213c1.23547,1.54092,2.42841,2.89203,1.8266,5.27591
		C106.08325,102.59314,107.26068,104.0976,107.64874,105.10648z"/>
	<path style="&st0;" d="M9.08484,170.36755c-1.6062-1.29755-3.80011-2.77734-5.62488-4.62219
		c-2.02045-2.04266-2.01917-4.47522-0.52374-7.28149c1.31891-2.47504,3.06708-3.66541,6.03271-2.60388
		c1.18054,0.42255,2.70599,0.39532,3.94006,0.06738c5.80493-1.54291,8.71289,2.67981,11.83197,6.0545
		c1.44965,1.56848,2.59552,3.78705,1.36792,6.37402c-0.44891,0.94617-0.38708,2.40979,0.00122,3.42297
		c0.91815,2.396-0.03156,3.81836-1.6106,5.58691c-3.97394,4.45093-8.7359,4.64294-12.19666-0.14807
		C10.92389,175.30859,10.242,172.89606,9.08484,170.36755z"/>
	<path style="&st1;" d="M135.8988,20.69919c-0.14124,3.43204-5.78137,7.3613-8.78931,6.12314
		c-2.30219-0.94766-2.90521-4.79791-0.78296-6.21158c2.02899-1.35156,4.2926-2.41409,6.5683-3.31168
		C134.63654,16.61206,135.99847,18.2774,135.8988,20.69919z"/>
	<path style="&st2;" d="M115.2561,80.15491c3.80927,5.00842,3.80927,5.00842-5.66864,11.67267
		C105.42938,87.97238,106.51581,85.65237,115.2561,80.15491z"/>
	<path style="&st3;" d="M123.34882,18.69196c-2.31097-0.10303-4.3028-3.27618-2.99713-4.83115
		c1.83539-2.18573,4.24097-3.97791,6.66486-5.52847c0.66309-0.42416,2.66974,0.27579,3.33826,1.06845
		c0.96985,1.15002,0.78711,2.57635-0.76691,3.7287c-1.41846,1.05185-2.42108,2.6467-3.72992,3.87076
		C125.05969,17.7468,124.02875,18.2446,123.34882,18.69196z"/>
	<path style="&st4;" d="M121.50562,39.52094c-1.27808-3.3718,0.15942-5.04172,2.86072-6.11261
		c1.46942-0.58258,2.83447-1.55951,4.34589-1.86176c1.12268-0.22449,3.15845,0.00763,3.44861,0.64545
		c0.49719,1.09299,0.42499,3.50952-0.24438,3.88684C128.78223,37.84576,125.94116,40.90195,121.50562,39.52094z"/>
	<path style="&st5;" d="M43.19427,105.22812c0.61444-4.62482,0.61444-4.62482,10.02405-6.9086
		c2.15698,2.76236,2.41925,4.53601,0.06488,5.52158C50.27295,105.10114,47.22766,108.02618,43.19427,105.22812z"/>
	<path style="&st6;" d="M103.85083,80.31555c0.09521,3.68863-3.46741,7.48605-7.19263,7.49371
		c-1.828,0.00375-3.1825-1.47342-2.29932-2.88736c1.70947-2.7366,3.88324-5.28824,6.28711-7.44577
		C102.04858,76.21716,103.78717,77.84924,103.85083,80.31555z"/>
	<path style="&st3;" d="M117.04376,3.16855c0.24213,1.46976,0.75671,2.81705,0.60339,4.08356
		c-0.22461,1.85608-5.9314,6.35938-7.8559,6.53055c-1.81628,0.16153-3.08179-1.38699-2.3902-3.23648
		c0.93762-2.50772,2.42041-4.62216,5.17163-5.5347C113.87677,4.57898,115.12195,3.96887,117.04376,3.16855z"/>
	<path style="&st3;" d="M50.56781,78.94281c-1.11865,1.42337-1.784,2.54871-2.71594,3.37231
		c-0.82513,0.72916-1.89197,1.32861-2.95184,1.61105c-1.27112,0.33862-3.23712,0.86157-3.83667,0.25372
		c-0.83423-0.84573-1.12512-2.76019-0.85559-4.05173c0.57318-2.7468,4.94415-5.00934,7.60583-3.99466
		C48.81903,76.51678,49.48376,77.79352,50.56781,78.94281z"/>
	<path style="&st3;" d="M55.45551,86.10858c0.60022,4.49942-0.38593,6.30099-3.84192,7.42773
		c-2.18384,0.71194-4.90344-0.22934-5.50208-1.90436c-0.81824-2.28943,0.85028-5.06454,3.57996-5.46906
		C51.59369,85.88095,53.57153,86.10858,55.45551,86.10858z"/>
	<path style="&st7;" d="M122.97278,89.52307c-0.57678,3.18573-0.39581,5.52728-1.43634,7.01392
		c-1.08624,1.552-3.34869,2.28076-5.05011,3.34027c-4.73456-3.82794-4.59546-5.65207,0.66803-8.29996
		C118.68231,90.80862,120.39917,90.41547,122.97278,89.52307z"/>
	<path style="&st5;" d="M14.461,153.16089c-0.89325-0.85638-1.79218-1.71814-2.64423-2.53503
		c1.69299-3.00879,2.05316-6.1571,5.23547-6.95349c1.25793-0.31476,3.21149-0.35748,3.92859,0.37555
		c0.72437,0.74048,0.6358,2.67352,0.33002,3.94647C20.53546,151.22284,17.32843,151.4754,14.461,153.16089z"/>
	<path style="&st4;" d="M113.35107,113.4726c-1.2926-0.83157-2.50385-1.23483-3.01038-2.06702
		c-0.34546-0.56747-0.0119-2.11594,0.54791-2.56461c2.00861-1.60971,4.15894-3.09998,6.4397-4.27951
		c0.73724-0.38132,2.65387,0.02591,2.94824,0.6142c0.49664,0.99258,0.64893,3.00876,0.0304,3.55222
		C118.25879,110.52722,115.80164,111.86118,113.35107,113.4726z"/>
	<path style="&st4;" d="M34.50214,71.49713c0.81287,5.33765,0.58435,5.89218-4.15912,7.61548
		c-1.03131,0.37469-2.83057,0.42377-3.40204-0.19046c-0.66931-0.71936-0.76514-2.44174-0.44153-3.5304
		C27.61078,71.65344,29.65625,70.7583,34.50214,71.49713z"/>
	<path style="&st8;" d="M28.57458,156.9624c-2.112-0.13446-3.54895-2.47186-2.25232-4.33868
		c1.37311-1.97699,3.28876-3.66034,5.24695-5.08868c0.4848-0.3537,2.70758,0.52118,2.99695,1.26984
		c0.87152,2.25452-2.14569,7.20685-4.52563,7.97687C29.58032,156.93066,29.06488,156.90887,28.57458,156.9624z"/>
	<path style="&st7;" d="M39.52051,156.75159c1.05487,1.46637,4.216,2.47626,1.19946,5.22656
		c-3.42975,3.12708-5.57477,3.72461-7.51031,1.70428c-2.11432-2.20691-1.46625-4.72424,1.4411-5.5661
		C36.12152,157.69043,37.59943,157.289,39.52051,156.75159z"/>
	<path style="&st2;" d="M40.70081,170.64905c-0.53088,4.93744-4.685,5.1189-7.92163,6.19098
		c-1.64612,0.54529-3.3363-1.78076-2.3858-3.1698c0.76367-1.11584,2.1543-2.42468,3.33813-2.49823
		C36.01453,171.03027,37.88824,166.88849,40.70081,170.64905z"/>
</g>
</svg>
