<?xml version="1.0" standalone="no"?>
<!DOCTYPE svg PUBLIC "-//W3C//DTD SVG 20010904//EN" "http://www.w3.org/TR/2001/REC-SVG-20010904/DTD/svg10.dtd">
<!-- Created using Krita: https://krita.org -->
<svg xmlns="http://www.w3.org/2000/svg" 
    xmlns:xlink="http://www.w3.org/1999/xlink"
    xmlns:krita="http://krita.org/namespaces/svg/krita"
    xmlns:sodipodi="http://sodipodi.sourceforge.net/DTD/sodipodi-0.dtd"
    width="600pt"
    height="600pt"
    viewBox="0 0 600 600">
<defs/>
<path id="shape0" transform="translate(38.982290554565, 519.328045655908)" fill="#39a74d" fill-rule="evenodd" d="M0 52.5347C0 51.2686 2.11227 54.3375 3.37688 54.2742C10.6045 53.9127 13.1314 17.6546 16.6815 11.0062C17.6699 9.15494 19.9791 1.14531 16.5678 0.0137184C15.6103 -0.303899 13.8625 4.99268 13.5887 5.64149C7.76971 19.429 -0.0731426 36.3989 0.71434 51.6431C0.729926 51.9448 1.46074 53.471 1.65597 53.1194" sodipodi:nodetypes="ccccccc"/><path id="shape1" transform="translate(27.740457254299, 559.813309370106)" fill="#39a74d" fill-rule="evenodd" d="M5.93299 16.559C-3.83961 16.559 0.208176 -14.9344 5.63264 8.94324C6.10859 11.0383 6.8921 12.8922 6.6798 14.9949" sodipodi:nodetypes="ccc"/><path id="shape2" transform="translate(50.4814275552144, 569.034954956123)" fill="#39a74d" fill-rule="evenodd" d="M1.76486 9.3619C-5.0823 9.3619 10.3201 -6.26125 8.63226 2.85707C8.36544 4.2985 2.16262 12.2564 2.16262 9.08417" sodipodi:nodetypes="ccc"/><path id="shape3" transform="translate(166.562461525431, 537.693532771503)" fill="#39a74d" fill-rule="evenodd" d="M32.1009 38.9405C31.0639 40.8079 29.7845 35.2696 28.1476 33.8975C24.5974 30.9214 -1.51522 2.5662 0.0692024 1.26368C11.549 -8.17365 35.3479 38.3953 31.0375 36.8429" sodipodi:nodetypes="cccc"/><path id="shape4" transform="translate(200.251290797436, 548.07388744896)" fill="#39a74d" fill-rule="evenodd" d="M15.3127 33.9029C15.3127 37.2198 13.1615 27.6097 11.7085 24.628C10.1932 21.5187 -3.42596 3.40446 0.814808 0.677112C10.7212 -5.69397 20.1124 35.0502 15.9052 32.7774" sodipodi:nodetypes="cccc"/><path id="shape5" transform="translate(227.488599098751, 560.978930014535)" fill="#39a74d" fill-rule="evenodd" d="M0.998414 14.8877C0.998414 15.1136 -0.853483 7.70897 0.487011 3.63216C4.31101 -7.99765 6.80979 11.6651 1.039 15.7063" sodipodi:nodetypes="ccc"/><path id="shape6" transform="translate(310.86586202403, 595.35212237268)" fill="#39a74d" fill-rule="evenodd" d="M0 8.67761C0 12.0915 4.82881 -2.72201 6.09624 0.447898C8.37055 6.13604 4.46221 7.8409 0.170467 8.45103" sodipodi:nodetypes="ccc"/><path id="shape7" transform="translate(388.830932571243, 529.882610576257)" fill="#39a74d" fill-rule="evenodd" d="M5.13349 17.8904C3.38407 22.6158 -4.88866 -7.09572 4.15939 1.60638C6.60552 3.95898 10.2103 18.109 3.56681 15.8658" sodipodi:nodetypes="ccc"/><path id="shape8" transform="translate(400.458190524519, 534.124030550093)" fill="#39a74d" fill-rule="evenodd" d="M3.90475 19.781C3.03307 19.5194 2.32258 19.3751 1.73738 18.5239C-6.08544 7.14601 15.254 -7.73908 11.6732 4.71761C10.6688 8.21164 1.7967 20.2986 2.24066 18.1" sodipodi:nodetypes="cccc"/><path id="shape9" transform="translate(499.547985473918, 517.635217198524)" fill="#39a74d" fill-rule="evenodd" d="M10.5029 17.4986C5.80595 23.8422 -10.6189 -17.1734 10.576 8.58915C13.4911 12.1325 11.8583 20.7187 9.49638 16.8408" sodipodi:nodetypes="ccc"/><path id="shape10" transform="translate(544.993542110596, 516.099807525127)" fill="#39a74d" fill-rule="evenodd" d="M2.28425 16.761C-7.12341 16.761 15.7286 -10.9346 13.2591 4.87684C12.5911 9.1538 3.54885 16.4356 3.58305 16.2201" sodipodi:nodetypes="ccc"/><path id="shape11" transform="translate(562.38705128183, 532.196112677492)" fill="#39a74d" fill-rule="evenodd" d="M1.74267 7.91497C-0.98042 6.93425 -0.0517475 2.48725 1.41797 0.825439C5.15907 -3.40464 10.3937 10.1362 1.33679 7.41797" sodipodi:nodetypes="ccc"/><path id="shape12" transform="translate(501.72541301015, 478.881386033651)" fill="#39a74d" fill-rule="evenodd" d="M20.5748 54.374C16.4259 50.6384 16.1675 43.0146 13.8779 38.017C11.6251 33.0998 9.74761 28.3223 7.87094 23.2532C6.34892 19.142 4.35292 15.2476 2.46469 11.3033C1.12584 8.50662 -1.41393 3.62463 1.00354 0.69092C2.45626 -1.07203 5.53858 0.97287 6.76696 2.01381C10.709 5.35431 29.4688 50.096 22.4662 53.2485" sodipodi:nodetypes="ccccccc"/><path id="shape13" transform="translate(302.35856141283, 437.175237133697)" fill="#39a74d" fill-rule="evenodd" d="M18.4237 22.6661C11.8047 28.6256 -3.95848 5.04179 0.922323 0.878525C8.15301 -5.28916 21.6898 23.0186 17.9285 23.6162" sodipodi:nodetypes="ccc"/><path id="shape14" transform="translate(343.363205349364, 435.980271905183)" fill="#39a74d" fill-rule="evenodd" d="M4.33664 26.6968C-4.15482 22.8741 1.13875 -0.911374 8.9555 0.0270265C15.0542 0.759172 11.0604 17.1221 9.02855 20.3236C8.31538 21.4473 4.7747 26.1232 5.01039 25.6078" sodipodi:nodetypes="cccc"/><path id="shape15" transform="translate(304.630557902331, 403.749101853439)" fill="#39a74d" fill-rule="evenodd" d="M27.2483 59.3446C27.2483 65.014 20.2935 50.2235 18.1486 44.9755C16.3583 40.5954 -3.88261 2.58875 0.663466 0.486849C12.299 -4.89289 24.9429 35.9435 26.9155 42.644C28.4786 47.9536 30.3362 64.4804 28.9367 59.1253" sodipodi:nodetypes="ccccc"/><path id="shape16" transform="translate(139.609280478521, 462.211382391212)" fill="#39a74d" fill-rule="evenodd" d="M9.37293 23.7054C2.26338 26.9061 -6.26774 -4.46902 6.81592 0.543835C12.597 2.7588 16.7023 24.5544 9.25117 21.8709" sodipodi:nodetypes="ccc"/><path id="shape17" transform="translate(161.975891272118, 471.432715809175)" fill="#39a74d" fill-rule="evenodd" d="M0.700542 15.7193C0.700542 13.3436 -2.35248 -0.309348 4.28848 0.00535456C8.37959 0.199225 6.98378 17.0817 2.15357 15.3904" sodipodi:nodetypes="ccc"/><path id="shape18" transform="translate(-1.3975723036631, 367.813313936869)" fill="#39a74d" fill-rule="evenodd" d="M0.369728 24.9666C-0.915913 23.809 4.42307 25.4488 5.48375 24.0822C8.95589 19.6085 6.98212 12.8019 6.13315 7.79087C2.68136 -12.5832 -2.60006 12.2713 1.48183 22.562" sodipodi:nodetypes="cccc"/><path id="shape19" transform="translate(14.4282549762961, 374.204798782534)" fill="#39a74d" fill-rule="evenodd" d="M2.82451 19.5837C-4.59007 19.5837 4.51158 -2.26853 8.27135 0.193438C12.8246 3.17499 7.14203 20.3961 2.89757 18.8674" sodipodi:nodetypes="ccc"/><path id="shape20" transform="translate(203.675408943669, 371.971507064194)" fill="#39a74d" fill-rule="evenodd" d="M11.337 17.8204C12.3033 17.8204 9.29226 18.3472 8.43908 17.8935C-6.99554 9.68666 2.07415 -8.29195 9.40506 4.40148C10.3709 6.07381 14.5382 20.6798 8.55273 17.2503" sodipodi:nodetypes="cccc"/><path id="shape21" transform="translate(222.212862035935, 381.774052404735)" fill="#39a74d" fill-rule="evenodd" d="M2.16717 8.59528C-1.69082 7.20582 -0.0273567 -1.9203 4.24525 0.365573C8.24689 2.50647 5.93625 11.0508 2.99516 8.32485" sodipodi:nodetypes="ccc"/><path id="shape22" transform="translate(205.357248514186, 310.128294590431)" fill="#39a74d" fill-rule="evenodd" d="M17.4526 33.3067C17.4526 33.78 12.8009 28.0703 12.4928 27.6424C10.8225 25.3226 -3.98111 3.3159 1.03089 0.307447C7.06966 -3.31733 23.2381 26.2497 16.1781 29.0749" sodipodi:nodetypes="cccc"/><path id="shape23" transform="translate(230.90251764482, 322.328269731288)" fill="#39a74d" fill-rule="evenodd" d="M4.6518 23.292C-4.16298 23.292 1.8552 -1.25224 4.05922 0.0500493C9.74377 3.40889 7.51242 22.7017 5.3499 21.5891" sodipodi:nodetypes="ccc"/><path id="shape24" transform="translate(246.972534649701, 304.794641256798)" fill="#39a74d" fill-rule="evenodd" d="M1.85389 38.0264C-2.19843 40.3068 0.0997432 -2.87571 11.6598 0.152193C19.9824 2.3321 12.1408 22.3459 10.0607 26.1277C8.16283 29.5781 2.19483 38.88 2.19483 34.9421" sodipodi:nodetypes="cccc"/><path id="shape25" transform="translate(67.6128329092993, 267.456959542354)" fill="#39a74d" fill-rule="evenodd" d="M28.4211 48.1863C28.8928 47.9739 25.6106 42.9147 25.4176 42.6389C23.9156 40.4931 -1.86169 1.70945 0.107238 0.80336C18.1169 -7.48454 40.8908 51.1399 29.6306 48.8002" sodipodi:nodetypes="cccc"/><path id="shape26" transform="translate(105.658793112068, 275.21963700043)" fill="#39a74d" fill-rule="evenodd" d="M4.69439 31.4557C-1.66022 31.4557 -1.10899 0.748182 3.63099 0.0498202C13.3999 -1.38948 3.90721 28.8414 3.13583 28.0206" sodipodi:nodetypes="ccc"/><path id="shape27" transform="translate(-6.73980026784396, 230.295032458957)" fill="#39a74d" fill-rule="evenodd" d="M1.32964 15.3066C-3.76025 19.0562 7.01444 3.03611 12.5805 0.0385601C14.4915 -0.990612 12.0259 18.8983 5.2098 21.8334C1.65215 23.3654 2.53485 11.9714 4.25194 10.344" sodipodi:nodetypes="cccc"/><path id="shape28" transform="translate(99.6380296294411, 208.882245218193)" fill="#39a74d" fill-rule="evenodd" d="M8.31469 15.2631C-0.00927208 6.69772 -4.90171 -9.06453 7.54353 6.77756C8.86485 8.45953 14.0198 19.6078 7.51106 14.6491" sodipodi:nodetypes="ccc"/><path id="shape29" transform="translate(110.367693776717, 216.142285671265)" fill="#39a74d" fill-rule="evenodd" d="M4.2246 7.85366C2.22958 7.55429 0.147746 4.03511 0.0197388 2.30629C-0.510586 -4.85608 9.8671 6.79258 4.47625 8.52607" sodipodi:nodetypes="ccc"/><path id="shape30" transform="translate(154.39553739452, 181.805503653289)" fill="#39a74d" fill-rule="evenodd" d="M13.599 22.8107C7.63514 23.4819 1.57486 9.5309 0.570412 5.45231C-4.52288 -15.2291 26.5542 30.0977 12.2677 23.0007" sodipodi:nodetypes="ccc"/><path id="shape31" transform="translate(173.238491311612, 189.390703853414)" fill="#39a74d" fill-rule="evenodd" d="M3.28754 15.8687C-0.501632 15.8687 -0.200469 6.50579 0.275945 4.4158C2.93592 -7.25333 9.23735 6.91894 3.27942 15.6713C2.96581 16.132 2.79485 16.1187 2.37838 15.8687" sodipodi:nodetypes="cccc"/><path id="shape32" transform="translate(189.585529174727, 169.349526359711)" fill="#39a74d" fill-rule="evenodd" d="M1.552 34.6308C-4.83873 34.6308 10.2195 -4.63246 15.717 0.45488C20.5059 4.88642 3.93214 36.9315 0.577899 36.0926" sodipodi:nodetypes="ccc"/><path id="shape33" transform="translate(23.3948247986341, 124.824328853645)" fill="#39a74d" fill-rule="evenodd" d="M14.923 18.5432C10.0582 17.0832 5.6453 13.6289 3.17694 9.15874C-10.492 -15.5955 25.1467 17.7088 12.6014 17.3665" sodipodi:nodetypes="ccc"/><path id="shape34" transform="translate(43.2945904735678, 131.069233074942)" fill="#39a74d" fill-rule="evenodd" d="M1.25743 9.24326C-1.54152 9.24326 0.834511 -2.06419 3.49786 0.333831C4.62454 1.34826 5.02318 9.16718 3.59527 9.03861" sodipodi:nodetypes="ccc"/><path id="shape35" transform="translate(17.2086570712837, 65.4593852938573)" fill="#39a74d" fill-rule="evenodd" d="M15.457 25.5411C9.25179 25.5411 -4.11057 2.92164 1.23512 0.311124C7.71733 -2.85439 16.971 19.0675 16.1713 23.8308C16.0633 24.4745 15.7809 24.4063 15.3109 24.1524" sodipodi:nodetypes="cccc"/><path id="shape36" transform="translate(32.6615519369002, 44.9323846533867)" fill="#39a74d" fill-rule="evenodd" d="M7.1069 41.2881C4.90373 41.7841 -4.22864 2.1077 2.33381 0.0665184C8.51275 -1.85537 13.7486 38.4866 8.90087 41.1054" sodipodi:nodetypes="ccc"/><path id="shape37" transform="translate(47.1847820081696, 54.6942418802098)" fill="#39a74d" fill-rule="evenodd" d="M0.563172 36.6351C-2.49484 36.6351 7.42158 -2.85036 17.7236 0.164231C27.6765 3.07668 1.70141 38.0266 2.92536 33.2512" sodipodi:nodetypes="ccc"/><path id="shape38" transform="translate(140.399854679049, 71.2406030085927)" fill="#39a74d" fill-rule="evenodd" d="M18.5489 43.1549C20.866 46.632 13.6853 36.332 11.7059 32.6521C9.82646 29.1583 -4.15906 3.22596 1.22617 0.186459C7.12046 -3.14036 26.4298 39.098 19.661 43.3303" sodipodi:nodetypes="cccc"/><path id="shape39" transform="translate(159.324236961642, 85.5118114936323)" fill="#39a74d" fill-rule="evenodd" d="M7.29557 24.7323C3.39766 21.5152 2.1053 13.2975 0.947681 8.71139C-5.29917 -16.0365 21.8811 19.4578 8.65119 22.8612" sodipodi:nodetypes="ccc"/><path id="shape40" transform="translate(171.079788932349, 67.4339340580489)" fill="#39a74d" fill-rule="evenodd" d="M1.79049 50.1482C-1.11485 53.6361 0.271598 41.0807 0.767684 36.5684C1.29579 31.765 8.56206 -1.70949 17.0676 0.0683033C22.9589 1.29966 7.36939 46.0844 3.11364 45.0393" sodipodi:nodetypes="cccc"/><path id="shape41" transform="translate(135.984217905032, 27.8405057169618)" fill="#39a74d" fill-rule="evenodd" d="M9.39134 17.0963C5.7321 15.1195 2.53209 12.7682 1.41184 8.29648C-4.77653 -16.4054 11.583 22.5422 8.26301 16.19" sodipodi:nodetypes="ccc"/><path id="shape42" transform="translate(150.706524360446, 22.2971080999383)" fill="#39a74d" fill-rule="evenodd" d="M0.578572 23.144C-0.356352 22.5126 0.101638 20.6101 0.188932 19.6942C2.37043 -3.19259 25.5951 -9.00643 9.10195 17.7939C7.40619 20.5494 5.17105 22.8628 2.14525 24.116" sodipodi:nodetypes="cccc"/><path id="shape43" transform="translate(285.216916442437, 15.2329276672321)" fill="#39a74d" fill-rule="evenodd" d="M3.3856 8.33521C3.3856 13.6058 -3.57148 -6.36611 2.46021 2.13735C3.56268 3.69161 4.76886 6.56196 4.22171 8.53254C4.03225 9.21486 3.32793 9.41746 2.83361 8.88337" sodipodi:nodetypes="cccc"/><path id="shape44" transform="translate(289.405204251076, 4.76418520189103)" fill="#39a74d" fill-rule="evenodd" d="M5.3585 19.893C-6.26153 17.8005 4.12209 -9.15588 7.58269 3.25083C8.3385 5.96051 7.22108 21.645 5.99166 18.4824" sodipodi:nodetypes="ccc"/><path id="shape45" transform="translate(303.221814373105, -2.59183288420548)" fill="#39a74d" fill-rule="evenodd" d="M0.65784 30.7791C-2.40958 30.0887 5.86894 -2.05531 12.7042 0.104101C21.463 2.8712 4.13471 34.6091 3.21485 30.823" sodipodi:nodetypes="ccc"/><path id="shape46" transform="translate(349.294032185574, 84.4588421484595)" fill="#39a74d" fill-rule="evenodd" d="M11.319 43.5708C3.93874 42.6215 -3.3737 0.934822 1.66726 0.0541673C12.5939 -1.85472 20.4836 47.3507 10.6696 43.0664" sodipodi:nodetypes="ccc"/><path id="shape47" transform="translate(367.452354556177, 53.7125416280498)" fill="#39a74d" fill-rule="evenodd" d="M1.80579 73.3011C-5.25638 63.7632 10.4201 28.4433 14.1282 19.7569C15.232 17.1709 21.1835 -0.165226 24.5104 0.00119022C26.7313 0.112278 25.195 7.81668 25.0787 8.49401C21.5582 28.9879 16.1437 49.6895 6.95228 68.4189C6.1126 70.1299 5.14073 70.6382 3.42117 69.9976C3.11064 69.8819 2.5093 69.7515 2.39025 69.3763" sodipodi:nodetypes="ccccccc"/><path id="shape48" transform="translate(379.021060669235, 110.920521157463)" fill="#39a74d" fill-rule="evenodd" d="M0.0430199 18.6147C-0.655751 19.873 7.38936 -12.303 7.38936 5.2542C7.38936 7.27268 2.56467 23.2957 0.684302 17.5038" sodipodi:nodetypes="ccc"/><path id="shape49" transform="translate(421.994378669585, 166.015717168929)" fill="#39a74d" fill-rule="evenodd" d="M14.6038 33.9886C14.9037 34.7446 11.256 26.3824 10.5207 24.9696C9.59988 23.2 -3.45148 2.71438 0.877151 0.631288C13.6958 -5.53748 22.4709 35.6693 12.9885 30.1808" sodipodi:nodetypes="cccc"/><path id="shape50" transform="translate(449.171002051381, 178.305745241002)" fill="#39a74d" fill-rule="evenodd" d="M2.78553 17.6057C2.53943 18.2704 -0.245249 7.95957 0.0174621 6.07971C2.80114 -13.8392 12.0786 21.7663 1.34061 19.4183" sodipodi:nodetypes="ccc"/><path id="shape51" transform="translate(287.925694513732, 216.04706158223)" fill="#39a74d" fill-rule="evenodd" d="M10.4051 21.7977C2.10901 20.7306 -3.88588 -4.92299 3.01814 0.843366C6.0092 3.34155 16.2621 24.1249 9.05756 19.6124" sodipodi:nodetypes="ccc"/><path id="shape52" transform="translate(307.851920929707, 224.387934822434)" fill="#39a74d" fill-rule="evenodd" d="M0.000827349 10.6534C0.000827349 13.849 -0.111511 3.45947 2.28184 1.34203C9.94673 -5.43923 5.4353 15.8579 0.942457 12.4514" sodipodi:nodetypes="ccc"/><path id="shape53" transform="translate(385.338289771666, 286.540338260668)" fill="#39a74d" fill-rule="evenodd" d="M3.9411 19.009C1.99624 21.6357 -0.354231 10.4872 0.0446999 8.90826C6.65643 -17.2603 9.47802 22.9458 4.16027 19.009" sodipodi:nodetypes="ccc"/><path id="shape54" transform="translate(406.723737889235, 283.13134672097)" fill="#39a74d" fill-rule="evenodd" d="M1.42072 19.1364C1.08964 20.925 -0.0152201 12.6607 0.000158965 11.9591C0.173373 4.05726 8.08306 -7.59667 7.62249 6.8795C7.60175 7.53129 3.6894 22.4497 2.02142 19.0706" sodipodi:nodetypes="cccc"/><path id="shape55" transform="translate(418.238445915602, 276.134108769186)" fill="#39a74d" fill-rule="evenodd" d="M0.775346 32.2291C-2.82969 33.1565 7.21422 6.72469 8.86849 4.67496C22.5683 -12.2997 11.6119 21.8165 0.929578 29.7514" sodipodi:nodetypes="ccc"/><path id="shape56" transform="translate(508.293864443633, 43.9756923077111)" fill="#39a74d" fill-rule="evenodd" d="M16.4277 32.8384C16.4277 33.0771 14.8649 30.6342 14.6337 30.273C12.6462 27.1676 -2.01251 2.24143 0.233298 0.935505C12.8792 -6.41799 23.796 32.0922 13.2538 28.9282" sodipodi:nodetypes="cccc"/><path id="shape57" transform="translate(529.783884581129, 54.4119706873511)" fill="#39a74d" fill-rule="evenodd" d="M5.02774 14.5671C5.02774 18.9891 -0.639836 6.6327 0.0598326 2.26639C1.34792 -5.77194 6.93706 9.95271 7.00029 12.5718C7.04453 14.4041 6.39158 15.1957 4.55693 15.1957" sodipodi:nodetypes="cccc"/><path id="shape58" transform="translate(576.137458051497, 245.326461288972)" fill="#39a74d" fill-rule="evenodd" d="M2.29076 16.4747C2.95622 13.7784 -0.196751 9.14497 0.00973824 5.88426C0.858306 -7.51565 12.2117 4.85434 6.91773 14.4429C5.46265 17.0783 3.98315 14.747 3.24862 12.9519" sodipodi:nodetypes="cccc"/><path id="shape59" transform="translate(590.52179036345, 233.183706002455)" fill="#39a74d" fill-rule="evenodd" d="M0.399256 27.0022C-0.187828 27.1784 -0.00768385 26.9274 0.188201 26.0667C1.11941 21.9751 8.22407 -2.82936 14.4506 0.266632C25.4997 5.76045 2.77796 28.4077 2.74521 27.2873" sodipodi:nodetypes="cccc"/><path id="shape60" transform="translate(564.468680966695, 353.406861877186)" fill="#39a74d" fill-rule="evenodd" d="M18.0002 40.7402C18.8265 37.7645 -7.27253 2.00651 1.99252 0.110594C14.2664 -2.40103 29.3647 38.712 16.3361 37.539" sodipodi:nodetypes="ccc"/>
</svg>
